Foldit-Black-origin.ufo
<glyph name="quotedbl.color3" format="2">
  <advance width="600"/>
  <unicode hex="0022"/>
  <outline>
    <contour>
      <point x="318" y="390" type="line"/>
      <point x="319" y="390" type="line"/>
      <point x="446" y="390" type="line"/>
      <point x="532" y="590" type="line"/>
      <point x="358" y="590" type="line"/>
    </contour>
  </outline>
</glyph>
<glyph name="ampersand.color1" format="2">
  <advance width="600"/>
  <unicode hex="0026"/>
  <outline>
    <contour>
      <point x="235" y="466" type="line"/>
      <point x="459" y="466" type="line"/>
      <point x="459" y="730" type="line"/>
      <point x="458" y="730" type="line"/>
      <point x="235" y="603" type="line"/>
    </contour>
  </outline>
</glyph>
<glyph name="ampersand.color7" format="2">
  <advance width="600"/>
  <unicode hex="0026"/>
  <outline>
    <contour>
      <point x="561" y="262" type="line"/>
      <point x="562" y="262" type="line"/>
      <point x="785" y="466" type="line"/>
      <point x="785" y="603" type="line"/>
      <point x="562" y="730" type="line"/>
      <point x="561" y="730" type="line"/>
    </contour>
  </outline>
</glyph>
<glyph name="ampersand" format="2">
  <advance width="1126"/>
  <unicode hex="0026"/>
  <outline>
    <contour>
      <point x="459" y="486" type="line"/>
      <point x="561" y="486" type="line"/>
      <point x="561" y="730" type="line"/>
      <point x="459" y="730" type="line"/>
    </contour>
    <contour>
      <point x="235" y="466" type="line"/>
      <point x="459" y="466" type="line"/>
      <point x="459" y="730" type="line"/>
      <point x="458" y="730" type="line"/>
      <point x="235" y="603" type="line"/>
    </contour>
    <contour>
      <point x="794" y="0" type="line"/>
      <point x="799" y="0" type="line"/>
      <point x="1070" y="0" type="line"/>
      <point x="1070" y="1" type="line"/>
      <point x="734" y="406" type="line"/>
      <point x="432" y="406" type="line"/>
      <point x="432" y="405" type="line"/>
    </contour>
    <contour>
      <point x="236" y="0" type="line"/>
      <point x="642" y="0" type="line"/>
      <point x="642" y="244" type="line"/>
      <point x="236" y="244" type="line"/>
    </contour>
    <contour>
      <point x="236" y="262" type="line"/>
      <point x="561" y="262" type="line"/>
      <point x="561" y="466" type="line"/>
      <point x="236" y="466" type="line"/>
    </contour>
    <contour>
      <point x="235" y="0" type="line"/>
      <point x="236" y="0" type="line"/>
      <point x="236" y="466" type="line"/>
      <point x="235" y="466" type="line"/>
      <point x="22" y="267" type="line"/>
      <point x="22" y="162" type="line"/>
    </contour>
    <contour>
      <point x="642" y="0" type="line"/>
      <point x="643" y="0" type="line"/>
      <point x="885" y="230" type="line"/>
      <point x="1101" y="436" type="line"/>
      <point x="1101" y="439" type="line"/>
      <point x="830" y="439" type="line"/>
      <point x="642" y="244" type="line"/>
    </contour>
    <contour>
      <point x="561" y="262" type="line"/>
      <point x="562" y="262" type="line"/>
      <point x="785" y="466" type="line"/>
      <point x="785" y="603" type="line"/>
      <point x="562" y="730" type="line"/>
      <point x="561" y="730" type="line"/>
    </contour>
  </outline>
</glyph>
<glyph name="asterisk.color0" format="2">
  <advance width="600"/>
  <unicode hex="002A"/>
  <outline>
    <contour>
      <point x="87" y="349" type="line"/>
      <point x="211" y="349" type="line"/>
      <point x="211" y="351" type="line"/>
      <point x="225" y="442" type="line"/>
      <point x="5" y="556" type="line"/>
    </contour>
  </outline>
</glyph>
<glyph name="comma" format="2">
  <advance width="312"/>
  <unicode hex="002C"/>
  <outline>
    <contour>
      <point x="35" y="0" type="line"/>
      <point x="277" y="0" type="line"/>
      <point x="170" y="204" type="line"/>
      <point x="35" y="204" type="line"/>
    </contour>
    <contour>
      <point x="103" y="-200" type="line"/>
      <point x="104" y="-200" type="line"/>
      <point x="277" y="-93" type="line"/>
      <point x="277" y="0" type="line"/>
      <point x="103" y="0" type="line"/>
    </contour>
  </outline>
</glyph>
<glyph name="zero.color0" format="2">
  <advance width="600"/>
  <unicode hex="0030"/>
  <outline>
    <contour>
      <point x="439" y="244" type="line"/>
      <point x="642" y="244" type="line"/>
      <point x="642" y="245" type="line"/>
      <point x="400" y="486" type="line"/>
      <point x="197" y="486" type="line"/>
    </contour>
  </outline>
</glyph>
<glyph name="three.color0" format="2">
  <advance width="600"/>
  <unicode hex="0033"/>
  <outline>
    <contour>
      <point x="15" y="486" type="line"/>
      <point x="511" y="486" type="line"/>
      <point x="511" y="730" type="line"/>
      <point x="217" y="730" type="line"/>
      <point x="15" y="487" type="line"/>
    </contour>
  </outline>
</glyph>
<glyph name="three.color2" format="2">
  <advance width="600"/>
  <unicode hex="0033"/>
  <outline>
    <contour>
      <point x="116" y="262" type="line"/>
      <point x="511" y="262" type="line"/>
      <point x="511" y="466" type="line"/>
      <point x="116" y="466" type="line"/>
    </contour>
  </outline>
</glyph>
<glyph name="eight.color1" format="2">
  <advance width="600"/>
  <unicode hex="0038"/>
  <outline>
    <contour>
      <point x="279" y="0" type="line"/>
      <point x="521" y="0" type="line"/>
      <point x="521" y="244" type="line"/>
      <point x="279" y="244" type="line"/>
    </contour>
  </outline>
</glyph>
<glyph name="eight.color4" format="2">
  <advance width="600"/>
  <unicode hex="0038"/>
  <outline>
    <contour>
      <point x="279" y="262" type="line"/>
      <point x="521" y="262" type="line"/>
      <point x="521" y="466" type="line"/>
      <point x="279" y="466" type="line"/>
    </contour>
  </outline>
</glyph>
<glyph name="nine.color4" format="2">
  <advance width="600"/>
  <unicode hex="0039"/>
  <outline>
    <contour>
      <point x="259" y="486" type="line"/>
      <point x="755" y="486" type="line"/>
      <point x="755" y="487" type="line"/>
      <point x="553" y="730" type="line"/>
      <point x="259" y="730" type="line"/>
    </contour>
  </outline>
</glyph>
<glyph name="question.color1" format="2">
  <advance width="600"/>
  <unicode hex="003F"/>
  <outline>
    <contour>
      <point x="588" y="466" type="line"/>
      <point x="842" y="466" type="line"/>
      <point x="842" y="523" type="line"/>
      <point x="589" y="730" type="line"/>
      <point x="588" y="730" type="line"/>
    </contour>
  </outline>
</glyph>
<glyph name="question.color2" format="2">
  <advance width="600"/>
  <unicode hex="003F"/>
  <outline>
    <contour>
      <point x="206" y="0" type="line"/>
      <point x="438" y="0" type="line"/>
      <point x="438" y="204" type="line"/>
      <point x="206" y="204" type="line"/>
    </contour>
  </outline>
</glyph>
<glyph name="at.color8" format="2">
  <advance width="600"/>
  <unicode hex="0040"/>
  <outline>
    <contour>
      <point x="1046" y="24" type="line"/>
      <point x="1070" y="24" type="line"/>
      <point x="1070" y="607" type="line"/>
      <point x="1047" y="630" type="line"/>
      <point x="1046" y="630" type="line"/>
    </contour>
  </outline>
</glyph>
<glyph name="B.color0" format="2">
  <advance width="600"/>
  <unicode hex="0042"/>
  <outline>
    <contour>
      <point x="35" y="0" type="line"/>
      <point x="738" y="0" type="line"/>
      <point x="738" y="244" type="line"/>
      <point x="35" y="244" type="line"/>
    </contour>
  </outline>
</glyph>
<glyph name="B" format="2">
  <advance width="992"/>
  <unicode hex="0042"/>
  <outline>
    <contour>
      <point x="35" y="0" type="line"/>
      <point x="738" y="0" type="line"/>
      <point x="738" y="244" type="line"/>
      <point x="35" y="244" type="line"/>
    </contour>
    <contour>
      <point x="35" y="244" type="line"/>
      <point x="289" y="244" type="line"/>
      <point x="289" y="730" type="line"/>
      <point x="35" y="730" type="line"/>
    </contour>
    <contour>
      <point x="737" y="263" type="line"/>
      <point x="738" y="263" type="line"/>
      <point x="738" y="467" type="line"/>
      <point x="584" y="467" type="line"/>
      <point x="584" y="466" type="line"/>
    </contour>
    <contour>
      <point x="289" y="486" type="line"/>
      <point x="584" y="486" type="line"/>
      <point x="584" y="730" type="line"/>
      <point x="289" y="730" type="line"/>
    </contour>
    <contour>
      <point x="858" y="376" type="line"/>
      <point x="858" y="533" type="line"/>
      <point x="585" y="730" type="line"/>
      <point x="584" y="730" type="line"/>
      <point x="584" y="467" type="line"/>
      <point x="739" y="467" type="line"/>
    </contour>
    <contour>
      <point x="738" y="0" type="line"/>
      <point x="739" y="0" type="line"/>
      <point x="992" y="193" type="line"/>
      <point x="992" y="274" type="line"/>
      <point x="739" y="467" type="line"/>
      <point x="738" y="467" type="line"/>
    </contour>
  </outline>
</glyph>
<glyph name="F.color2" format="2">
  <advance width="600"/>
  <unicode hex="0046"/>
  <outline>
    <contour>
      <point x="289" y="212" type="line"/>
      <point x="678" y="212" type="line"/>
      <point x="678" y="416" type="line"/>
      <point x="35" y="416" type="line"/>
      <point x="35" y="415" type="line"/>
    </contour>
  </outline>
</glyph>
<glyph name="G.color2" format="2">
  <advance width="600"/>
  <unicode hex="0047"/>
  <outline>
    <contour>
      <point x="25" y="244" type="line"/>
      <point x="279" y="244" type="line"/>
      <point x="279" y="730" type="line"/>
      <point x="278" y="730" type="line"/>
      <point x="25" y="523" type="line"/>
    </contour>
  </outline>
</glyph>
<glyph name="J.color2" format="2">
  <advance width="600"/>
  <unicode hex="004A"/>
  <outline>
    <contour>
      <point x="25" y="486" type="line"/>
      <point x="246" y="486" type="line"/>
      <point x="448" y="730" type="line"/>
      <point x="25" y="730" type="line"/>
    </contour>
  </outline>
</glyph>
<glyph name="K.color2" format="2">
  <advance width="600"/>
  <unicode hex="004B"/>
  <outline>
    <contour>
      <point x="289" y="223" type="line"/>
      <point x="588" y="223" type="line"/>
      <point x="588" y="467" type="line"/>
      <point x="289" y="467" type="line"/>
    </contour>
  </outline>
</glyph>
<glyph name="bracketleft.color2" format="2">
  <advance width="600"/>
  <unicode hex="005B"/>
  <outline>
    <contour>
      <point x="289" y="486" type="line"/>
      <point x="550" y="486" type="line"/>
      <point x="550" y="730" type="line"/>
      <point x="289" y="730" type="line"/>
    </contour>
  </outline>
</glyph>
<glyph name="bracketleft" format="2">
  <advance width="585"/>
  <unicode hex="005B"/>
  <outline>
    <contour>
      <point x="35" y="144" type="line"/>
      <point x="289" y="144" type="line"/>
      <point x="289" y="730" type="line"/>
      <point x="35" y="730" type="line"/>
    </contour>
    <contour>
      <point x="35" y="-100" type="line"/>
      <point x="550" y="-100" type="line"/>
      <point x="550" y="144" type="line"/>
      <point x="35" y="144" type="line"/>
    </contour>
    <contour>
      <point x="289" y="486" type="line"/>
      <point x="550" y="486" type="line"/>
      <point x="550" y="730" type="line"/>
      <point x="289" y="730" type="line"/>
    </contour>
  </outline>
</glyph>
<glyph name="bracketright.color0" format="2">
  <advance width="600"/>
  <unicode hex="005D"/>
  <outline>
    <contour>
      <point x="276" y="-100" type="line"/>
      <point x="530" y="-100" type="line"/>
      <point x="530" y="486" type="line"/>
      <point x="276" y="486" type="line"/>
    </contour>
  </outline>
</glyph>
<glyph name="f" format="2">
  <advance width="658"/>
  <unicode hex="0066"/>
  <outline>
    <contour>
      <point x="289" y="173" type="line"/>
      <point x="623" y="173" type="line"/>
      <point x="623" y="417" type="line"/>
      <point x="36" y="417" type="line"/>
    </contour>
    <contour>
      <point x="35" y="0" type="line"/>
      <point x="289" y="0" type="line"/>
      <point x="289" y="173" type="line"/>
      <point x="36" y="417" type="line"/>
      <point x="35" y="417" type="line"/>
    </contour>
    <contour>
      <point x="35" y="417" type="line"/>
      <point x="289" y="417" type="line"/>
      <point x="289" y="703" type="line"/>
      <point x="288" y="703" type="line"/>
      <point x="35" y="596" type="line"/>
    </contour>
    <contour>
      <point x="289" y="459" type="line"/>
      <point x="616" y="459" type="line"/>
      <point x="616" y="460" type="line"/>
      <point x="593" y="703" type="line"/>
      <point x="289" y="703" type="line"/>
    </contour>
  </outline>
</glyph>
<glyph name="g.color4" format="2">
  <advance width="600"/>
  <unicode hex="0067"/>
  <outline>
    <contour>
      <point x="570" y="-206" type="line"/>
      <point x="571" y="-206" type="line"/>
      <point x="824" y="-104" type="line"/>
      <point x="824" y="286" type="line"/>
      <point x="570" y="286" type="line"/>
    </contour>
  </outline>
</glyph>
<glyph name="k.color1" format="2">
  <advance width="600"/>
  <unicode hex="006B"/>
  <outline>
    <contour>
      <point x="588" y="0" type="line"/>
      <point x="842" y="0" type="line"/>
      <point x="842" y="193" type="line"/>
      <point x="588" y="193" type="line"/>
    </contour>
  </outline>
</glyph>
<glyph name="n.color1" format="2">
  <advance width="600"/>
  <unicode hex="006E"/>
  <outline>
    <contour>
      <point x="598" y="-6" type="line"/>
      <point x="599" y="-6" type="line"/>
      <point x="852" y="41" type="line"/>
      <point x="852" y="286" type="line"/>
      <point x="598" y="286" type="line"/>
    </contour>
  </outline>
</glyph>
<glyph name="q.color0" format="2">
  <advance width="600"/>
  <unicode hex="0071"/>
  <outline>
    <contour>
      <point x="600" y="-200" type="line"/>
      <point x="853" y="-200" type="line"/>
      <point x="853" y="286" type="line"/>
      <point x="599" y="286" type="line"/>
      <point x="599" y="0" type="line"/>
    </contour>
  </outline>
</glyph>
<glyph name="x.color1" format="2">
  <advance width="600"/>
  <unicode hex="0078"/>
  <outline>
    <contour>
      <point x="565" y="0" type="line"/>
      <point x="879" y="0" type="line"/>
      <point x="879" y="1" type="line"/>
      <point x="611" y="265" type="line"/>
      <point x="600" y="265" type="line"/>
      <point x="428" y="130" type="line"/>
    </contour>
  </outline>
</glyph>
<glyph name="cent" format="2">
  <advance width="767"/>
  <unicode hex="00A2"/>
  <outline>
    <contour>
      <point x="315" y="477" type="line"/>
      <point x="548" y="477" type="line"/>
      <point x="547" y="586" type="line"/>
      <point x="545" y="586" type="line"/>
      <point x="314" y="563" type="line"/>
    </contour>
    <contour>
      <point x="315" y="-56" type="line"/>
      <point x="317" y="-56" type="line"/>
      <point x="548" y="-33" type="line"/>
      <point x="548" y="34" type="line"/>
      <point x="315" y="34" type="line"/>
    </contour>
    <component base="c" xOffset="-5"/>
  </outline>
</glyph>
<glyph name="sterling.color1" format="2">
  <advance width="600"/>
  <unicode hex="00A3"/>
  <outline>
    <contour>
      <point x="70" y="279" type="line"/>
      <point x="892" y="280" type="line"/>
      <point x="892" y="454" type="line"/>
      <point x="70" y="453" type="line"/>
    </contour>
  </outline>
</glyph>
<glyph name="currency.color1" format="2">
  <advance width="600"/>
  <unicode hex="00A4"/>
  <outline>
    <contour>
      <point x="142" y="65" type="line"/>
      <point x="282" y="150" type="line"/>
      <point x="155" y="354" type="line"/>
      <point x="15" y="269" type="line"/>
    </contour>
  </outline>
</glyph>
<glyph name="section.color1" format="2">
  <advance width="600"/>
  <unicode hex="00A7"/>
  <outline>
    <contour>
      <point x="590" y="126" type="line"/>
      <point x="656" y="230" type="line"/>
      <point x="490" y="397" type="line"/>
      <point x="434" y="314" type="line"/>
    </contour>
  </outline>
</glyph>
<glyph name="copyright" format="2">
  <advance width="1017"/>
  <unicode hex="00A9"/>
  <outline>
    <contour>
      <point x="248" y="32" type="line"/>
      <point x="781" y="32" type="line"/>
      <point x="888" y="271" type="line"/>
      <point x="888" y="272" type="line"/>
      <point x="141" y="272" type="line"/>
      <point x="141" y="271" type="line"/>
    </contour>
    <contour>
      <point x="76" y="-50" type="line"/>
      <point x="77" y="-50" type="line"/>
      <point x="77" y="656" type="line"/>
      <point x="53" y="656" type="line"/>
      <point x="53" y="-27" type="line"/>
    </contour>
    <contour>
      <point x="77" y="-50" type="line"/>
      <point x="941" y="-50" type="line"/>
      <point x="964" y="-27" type="line"/>
      <point x="964" y="-26" type="line"/>
      <point x="77" y="-26" type="line"/>
    </contour>
    <contour>
      <point x="141" y="272" type="line"/>
      <point x="395" y="272" type="line"/>
      <point x="395" y="596" type="line"/>
      <point x="394" y="596" type="line"/>
      <point x="141" y="489" type="line"/>
    </contour>
    <contour>
      <point x="395" y="377" type="line"/>
      <point x="888" y="377" type="line"/>
      <point x="888" y="378" type="line"/>
      <point x="781" y="596" type="line"/>
      <point x="395" y="596" type="line"/>
    </contour>
    <contour>
      <point x="53" y="656" type="line"/>
      <point x="940" y="656" type="line"/>
      <point x="940" y="680" type="line"/>
      <point x="76" y="680" type="line"/>
      <point x="53" y="657" type="line"/>
    </contour>
    <contour>
      <point x="940" y="-26" type="line"/>
      <point x="964" y="-26" type="line"/>
      <point x="964" y="657" type="line"/>
      <point x="941" y="680" type="line"/>
      <point x="940" y="680" type="line"/>
    </contour>
  </outline>
</glyph>
<glyph name="softhyphen" format="2">
  <advance width="410"/>
  <unicode hex="00AD"/>
  <outline>
    <contour>
      <point x="35" y="263" type="line"/>
      <point x="395" y="263" type="line"/>
      <point x="395" y="467" type="line"/>
      <point x="35" y="467" type="line"/>
    </contour>
  </outline>
</glyph>
<glyph name="degree.color3" format="2">
  <advance width="600"/>
  <unicode hex="00B0"/>
  <outline>
    <contour>
      <point x="276" y="538" type="line"/>
      <point x="277" y="538" type="line"/>
      <point x="391" y="606" type="line"/>
      <point x="391" y="699" type="line"/>
      <point x="276" y="699" type="line"/>
    </contour>
  </outline>
</glyph>
<glyph name="twosuperior.color1" format="2">
  <advance width="600"/>
  <unicode hex="00B2"/>
  <outline>
    <contour>
      <point x="111" y="503" type="line"/>
      <point x="399" y="689" type="line"/>
      <point x="319" y="794" type="line"/>
      <point x="31" y="609" type="line"/>
      <point x="31" y="608" type="line"/>
    </contour>
  </outline>
</glyph>
<glyph name="threesuperior.color3" format="2">
  <advance width="600"/>
  <unicode hex="00B3"/>
  <outline>
    <contour>
      <point x="264" y="638" type="line"/>
      <point x="419" y="638" type="line"/>
      <point x="419" y="703" type="line"/>
      <point x="265" y="794" type="line"/>
      <point x="264" y="794" type="line"/>
    </contour>
  </outline>
</glyph>
<glyph name="acute" format="2">
  <advance width="600"/>
  <unicode hex="00B4"/>
  <anchor x="259" y="530" name="_top"/>
  <outline>
    <contour>
      <point x="166" y="590" type="line"/>
      <point x="312" y="590" type="line"/>
      <point x="417" y="819" type="line"/>
      <point x="417" y="820" type="line"/>
      <point x="201" y="820" type="line"/>
    </contour>
  </outline>
</glyph>
<glyph name="paragraph.color1" format="2">
  <advance width="600"/>
  <unicode hex="00B6"/>
  <outline>
    <contour>
      <point x="207" y="173" type="line"/>
      <point x="454" y="173" type="line"/>
      <point x="454" y="417" type="line"/>
      <point x="5" y="417" type="line"/>
      <point x="5" y="416" type="line"/>
    </contour>
  </outline>
</glyph>
<glyph name="onesuperior.color0" format="2">
  <advance width="600"/>
  <unicode hex="00B9"/>
  <outline>
    <contour>
      <point x="179" y="470" type="line"/>
      <point x="231" y="470" type="line"/>
      <point x="333" y="604" type="line"/>
      <point x="333" y="794" type="line"/>
      <point x="281" y="794" type="line"/>
      <point x="179" y="660" type="line"/>
    </contour>
  </outline>
</glyph>
<glyph name="ordmasculine.color2" format="2">
  <advance width="600"/>
  <unicode hex="00BA"/>
  <outline>
    <contour>
      <point x="45" y="604" type="line"/>
      <point x="169" y="604" type="line"/>
      <point x="169" y="800" type="line"/>
      <point x="168" y="800" type="line"/>
      <point x="45" y="693" type="line"/>
    </contour>
  </outline>
</glyph>
<glyph name="guillemetright.color1" format="2">
  <advance width="600"/>
  <unicode hex="00BB"/>
  <outline>
    <contour>
      <point x="551" y="0" type="line"/>
      <point x="793" y="260" type="line"/>
      <point x="793" y="261" type="line"/>
      <point x="555" y="261" type="line"/>
      <point x="314" y="4" type="line"/>
      <point x="314" y="0" type="line"/>
    </contour>
  </outline>
</glyph>
<glyph name="guillemetright.color3" format="2">
  <advance width="600"/>
  <unicode hex="00BB"/>
  <outline>
    <contour>
      <point x="262" y="0" type="line"/>
      <point x="504" y="260" type="line"/>
      <point x="504" y="261" type="line"/>
      <point x="266" y="261" type="line"/>
      <point x="25" y="4" type="line"/>
      <point x="25" y="0" type="line"/>
    </contour>
  </outline>
</glyph>
<glyph name="threequarters.color0" format="2">
  <advance width="600"/>
  <unicode hex="00BE"/>
  <outline>
    <contour>
      <point x="117" y="474" type="line"/>
      <point x="264" y="474" type="line"/>
      <point x="264" y="581" type="line"/>
      <point x="-5" y="581" type="line"/>
      <point x="-5" y="580" type="line"/>
    </contour>
  </outline>
</glyph>
<glyph name="threequarters.color5" format="2">
  <advance width="600"/>
  <unicode hex="00BE"/>
  <outline>
    <contour>
      <point x="44" y="0" type="line"/>
      <point x="277" y="0" type="line"/>
      <point x="871" y="729" type="line"/>
      <point x="871" y="730" type="line"/>
      <point x="638" y="730" type="line"/>
      <point x="44" y="1" type="line"/>
    </contour>
  </outline>
</glyph>
<glyph name="questiondown.color2" format="2">
  <advance width="600"/>
  <unicode hex="00BF"/>
  <outline>
    <contour>
      <point x="308" y="-30" type="line"/>
      <point x="309" y="-30" type="line"/>
      <point x="309" y="234" type="line"/>
      <point x="55" y="234" type="line"/>
      <point x="55" y="177" type="line"/>
    </contour>
  </outline>
</glyph>
<glyph name="Aacute.color4" format="2">
  <advance width="600"/>
  <unicode hex="00C1"/>
  <outline>
    <contour>
      <point x="382" y="760" type="line"/>
      <point x="548" y="760" type="line"/>
      <point x="663" y="899" type="line"/>
      <point x="663" y="900" type="line"/>
      <point x="417" y="900" type="line"/>
    </contour>
  </outline>
</glyph>
<glyph name="Acircumflex.color5" format="2">
  <advance width="600"/>
  <unicode hex="00C2"/>
  <outline>
    <contour>
      <point x="240" y="760" type="line"/>
      <point x="414" y="760" type="line"/>
      <point x="578" y="900" type="line"/>
      <point x="394" y="900" type="line"/>
      <point x="240" y="761" type="line"/>
    </contour>
  </outline>
</glyph>
<glyph name="Adieresis.color4" format="2">
  <advance width="600"/>
  <unicode hex="00C4"/>
  <outline>
    <contour>
      <point x="538" y="788" type="line"/>
      <point x="684" y="788" type="line"/>
      <point x="684" y="900" type="line"/>
      <point x="538" y="900" type="line"/>
    </contour>
  </outline>
</glyph>
<glyph name="Aring" format="2">
  <advance width="927"/>
  <unicode hex="00C5"/>
  <anchor x="462" y="0" name="bottom"/>
  <anchor x="486" y="730" name="top"/>
  <outline>
    <contour>
      <point x="35" y="0" type="line"/>
      <point x="289" y="0" type="line"/>
      <point x="289" y="730" type="line"/>
      <point x="288" y="730" type="line"/>
      <point x="35" y="523" type="line"/>
    </contour>
    <contour>
      <point x="289" y="173" type="line"/>
      <point x="638" y="173" type="line"/>
      <point x="638" y="417" type="line"/>
      <point x="289" y="417" type="line"/>
    </contour>
    <contour>
      <point x="638" y="0" type="line"/>
      <point x="892" y="0" type="line"/>
      <point x="892" y="486" type="line"/>
      <point x="638" y="486" type="line"/>
    </contour>
    <contour>
      <point x="289" y="486" type="line"/>
      <point x="892" y="486" type="line"/>
      <point x="892" y="487" type="line"/>
      <point x="690" y="730" type="line"/>
      <point x="289" y="730" type="line"/>
    </contour>
    <contour>
      <point x="548" y="730" type="line"/>
      <point x="548" y="730" type="line"/>
      <point x="644" y="786" type="line"/>
      <point x="644" y="864" type="line"/>
      <point x="548" y="864" type="line"/>
    </contour>
    <contour>
      <point x="378" y="730" type="line"/>
      <point x="548" y="730" type="line"/>
      <point x="548" y="812" type="line"/>
      <point x="318" y="812" type="line"/>
      <point x="318" y="811" type="line"/>
    </contour>
    <contour>
      <point x="318" y="812" type="line"/>
      <point x="414" y="812" type="line"/>
      <point x="414" y="948" type="line"/>
      <point x="413" y="948" type="line"/>
      <point x="318" y="886" type="line"/>
    </contour>
    <contour>
      <point x="414" y="864" type="line"/>
      <point x="644" y="864" type="line"/>
      <point x="644" y="865" type="line"/>
      <point x="584" y="948" type="line"/>
      <point x="414" y="948" type="line"/>
    </contour>
  </outline>
</glyph>
<glyph name="AE.color1" format="2">
  <advance width="600"/>
  <unicode hex="00C6"/>
  <outline>
    <contour>
      <point x="289" y="173" type="line"/>
      <point x="661" y="173" type="line"/>
      <point x="598" y="417" type="line"/>
      <point x="289" y="417" type="line"/>
    </contour>
  </outline>
</glyph>
<glyph name="Ccedilla.color5" format="2">
  <advance width="600"/>
  <unicode hex="00C7"/>
  <outline>
    <contour>
      <point x="345" y="-260" type="line"/>
      <point x="503" y="-260" type="line"/>
      <point x="503" y="-168" type="line"/>
      <point x="285" y="-168" type="line"/>
      <point x="285" y="-169" type="line"/>
    </contour>
  </outline>
</glyph>
<glyph name="Eacute.color4" format="2">
  <advance width="600"/>
  <unicode hex="00C9"/>
  <outline>
    <contour>
      <point x="352" y="760" type="line"/>
      <point x="518" y="760" type="line"/>
      <point x="633" y="899" type="line"/>
      <point x="633" y="900" type="line"/>
      <point x="387" y="900" type="line"/>
    </contour>
  </outline>
</glyph>
<glyph name="Ecircumflex.color5" format="2">
  <advance width="600"/>
  <unicode hex="00CA"/>
  <outline>
    <contour>
      <point x="210" y="760" type="line"/>
      <point x="384" y="760" type="line"/>
      <point x="548" y="900" type="line"/>
      <point x="364" y="900" type="line"/>
      <point x="210" y="761" type="line"/>
    </contour>
  </outline>
</glyph>
<glyph name="Edieresis.color2" format="2">
  <advance width="600"/>
  <unicode hex="00CB"/>
  <outline>
    <contour>
      <point x="289" y="263" type="line"/>
      <point x="698" y="263" type="line"/>
      <point x="698" y="467" type="line"/>
      <point x="289" y="467" type="line"/>
    </contour>
  </outline>
</glyph>
<glyph name="Igrave.color1" format="2">
  <advance width="600"/>
  <unicode hex="00CC"/>
  <outline>
    <contour>
      <point x="25" y="0" type="line"/>
      <point x="246" y="0" type="line"/>
      <point x="246" y="244" type="line"/>
      <point x="25" y="244" type="line"/>
    </contour>
  </outline>
</glyph>
<glyph name="Iacute" format="2">
  <advance width="697"/>
  <unicode hex="00CD"/>
  <anchor x="340" y="0" name="bottom"/>
  <anchor x="351" y="730" name="top"/>
  <outline>
    <contour>
      <point x="246" y="0" type="line"/>
      <point x="298" y="0" type="line"/>
      <point x="500" y="244" type="line"/>
      <point x="500" y="730" type="line"/>
      <point x="448" y="730" type="line"/>
      <point x="246" y="486" type="line"/>
    </contour>
    <contour>
      <point x="25" y="0" type="line"/>
      <point x="246" y="0" type="line"/>
      <point x="246" y="244" type="line"/>
      <point x="25" y="244" type="line"/>
    </contour>
    <contour>
      <point x="298" y="0" type="line"/>
      <point x="672" y="0" type="line"/>
      <point x="672" y="244" type="line"/>
      <point x="500" y="244" type="line"/>
    </contour>
    <contour>
      <point x="25" y="486" type="line"/>
      <point x="246" y="486" type="line"/>
      <point x="448" y="730" type="line"/>
      <point x="25" y="730" type="line"/>
    </contour>
    <contour>
      <point x="500" y="486" type="line"/>
      <point x="671" y="486" type="line"/>
      <point x="671" y="730" type="line"/>
      <point x="500" y="730" type="line"/>
    </contour>
    <contour>
      <point x="247" y="760" type="line"/>
      <point x="413" y="760" type="line"/>
      <point x="528" y="899" type="line"/>
      <point x="528" y="900" type="line"/>
      <point x="282" y="900" type="line"/>
    </contour>
  </outline>
</glyph>
<glyph name="Idieresis.color3" format="2">
  <advance width="600"/>
  <unicode hex="00CF"/>
  <outline>
    <contour>
      <point x="25" y="486" type="line"/>
      <point x="246" y="486" type="line"/>
      <point x="448" y="730" type="line"/>
      <point x="25" y="730" type="line"/>
    </contour>
  </outline>
</glyph>
<glyph name="Ntilde.color4" format="2">
  <advance width="600"/>
  <unicode hex="00D1"/>
  <outline>
    <contour>
      <point x="547" y="806" type="line"/>
      <point x="686" y="827" type="line"/>
      <point x="686" y="915" type="line"/>
      <point x="547" y="915" type="line"/>
    </contour>
  </outline>
</glyph>
<glyph name="Ntilde.color5" format="2">
  <advance width="600"/>
  <unicode hex="00D1"/>
  <outline>
    <contour>
      <point x="537" y="756" type="line"/>
      <point x="548" y="756" type="line"/>
      <point x="686" y="826" type="line"/>
      <point x="686" y="827" type="line"/>
      <point x="367" y="923" type="line"/>
      <point x="356" y="923" type="line"/>
      <point x="218" y="854" type="line"/>
      <point x="218" y="853" type="line"/>
    </contour>
  </outline>
</glyph>
<glyph name="Otilde.color5" format="2">
  <advance width="600"/>
  <unicode hex="00D5"/>
  <outline>
    <contour>
      <point x="567" y="806" type="line"/>
      <point x="706" y="827" type="line"/>
      <point x="706" y="915" type="line"/>
      <point x="567" y="915" type="line"/>
    </contour>
  </outline>
</glyph>
<glyph name="Ugrave" format="2">
  <advance width="907"/>
  <unicode hex="00D9"/>
  <anchor x="442" y="0" name="bottom"/>
  <anchor x="811" y="730" name="horn"/>
  <anchor x="476" y="730" name="top"/>
  <outline>
    <contour>
      <point x="628" y="0" type="line"/>
      <point x="629" y="0" type="line"/>
      <point x="882" y="207" type="line"/>
      <point x="882" y="730" type="line"/>
      <point x="628" y="730" type="line"/>
    </contour>
    <contour>
      <point x="237" y="0" type="line"/>
      <point x="628" y="0" type="line"/>
      <point x="628" y="244" type="line"/>
      <point x="35" y="244" type="line"/>
      <point x="35" y="243" type="line"/>
    </contour>
    <contour>
      <point x="35" y="244" type="line"/>
      <point x="289" y="244" type="line"/>
      <point x="289" y="730" type="line"/>
      <point x="35" y="730" type="line"/>
    </contour>
    <contour>
      <point x="429" y="760" type="line"/>
      <point x="555" y="760" type="line"/>
      <point x="520" y="900" type="line"/>
      <point x="314" y="900" type="line"/>
      <point x="314" y="899" type="line"/>
    </contour>
  </outline>
</glyph>
<glyph name="Thorn.color3" format="2">
  <advance width="600"/>
  <unicode hex="00DE"/>
  <outline>
    <contour>
      <point x="279" y="406" type="line"/>
      <point x="882" y="406" type="line"/>
      <point x="882" y="407" type="line"/>
      <point x="680" y="650" type="line"/>
      <point x="279" y="650" type="line"/>
    </contour>
  </outline>
</glyph>
<glyph name="germandbls.color4" format="2">
  <advance width="600"/>
  <unicode hex="00DF"/>
  <outline>
    <contour>
      <point x="527" y="263" type="line"/>
      <point x="688" y="263" type="line"/>
      <point x="688" y="507" type="line"/>
      <point x="414" y="507" type="line"/>
      <point x="414" y="506" type="line"/>
    </contour>
  </outline>
</glyph>
<glyph name="acircumflex.color0" format="2">
  <advance width="600"/>
  <unicode hex="00E2"/>
  <outline>
    <contour>
      <point x="279" y="286" type="line"/>
      <point x="862" y="286" type="line"/>
      <point x="862" y="287" type="line"/>
      <point x="755" y="530" type="line"/>
      <point x="279" y="530" type="line"/>
    </contour>
  </outline>
</glyph>
<glyph name="acircumflex.color5" format="2">
  <advance width="600"/>
  <unicode hex="00E2"/>
  <outline>
    <contour>
      <point x="246" y="592" type="line"/>
      <point x="420" y="592" type="line"/>
      <point x="567" y="770" type="line"/>
      <point x="393" y="770" type="line"/>
      <point x="246" y="593" type="line"/>
    </contour>
  </outline>
</glyph>
<glyph name="atilde.color4" format="2">
  <advance width="600"/>
  <unicode hex="00E3"/>
  <outline>
    <contour>
      <point x="259" y="601" type="line"/>
      <point x="399" y="601" type="line"/>
      <point x="399" y="703" type="line"/>
      <point x="259" y="722" type="line"/>
    </contour>
  </outline>
</glyph>
<glyph name="atilde.color5" format="2">
  <advance width="600"/>
  <unicode hex="00E3"/>
  <outline>
    <contour>
      <point x="558" y="640" type="line"/>
      <point x="697" y="630" type="line"/>
      <point x="697" y="749" type="line"/>
      <point x="558" y="749" type="line"/>
    </contour>
  </outline>
</glyph>
<glyph name="aring.color3" format="2">
  <advance width="600"/>
  <unicode hex="00E5"/>
  <outline>
    <contour>
      <point x="608" y="0" type="line"/>
      <point x="862" y="0" type="line"/>
      <point x="862" y="286" type="line"/>
      <point x="608" y="286" type="line"/>
    </contour>
  </outline>
</glyph>
<glyph name="ccedilla.color3" format="2">
  <advance width="600"/>
  <unicode hex="00E7"/>
  <outline>
    <contour>
      <point x="364" y="-126" type="line"/>
      <point x="524" y="-126" type="line"/>
      <point x="524" y="-125" type="line"/>
      <point x="454" y="-32" type="line"/>
      <point x="400" y="-32" type="line"/>
    </contour>
  </outline>
</glyph>
<glyph name="ccedilla.color4" format="2">
  <advance width="600"/>
  <unicode hex="00E7"/>
  <outline>
    <contour>
      <point x="248" y="-126" type="line"/>
      <point x="364" y="-126" type="line"/>
      <point x="440" y="-1" type="line"/>
      <point x="440" y="0" type="line"/>
      <point x="325" y="0" type="line"/>
      <point x="248" y="-125" type="line"/>
    </contour>
  </outline>
</glyph>
<glyph name="ecircumflex.color6" format="2">
  <advance width="600"/>
  <unicode hex="00EA"/>
  <outline>
    <contour>
      <point x="226" y="592" type="line"/>
      <point x="400" y="592" type="line"/>
      <point x="547" y="770" type="line"/>
      <point x="373" y="770" type="line"/>
      <point x="226" y="593" type="line"/>
    </contour>
  </outline>
</glyph>
<glyph name="icircumflex.color1" format="2">
  <advance width="600"/>
  <unicode hex="00EE"/>
  <outline>
    <contour>
      <point x="222" y="592" type="line"/>
      <point x="399" y="592" type="line"/>
      <point x="399" y="593" type="line"/>
      <point x="254" y="770" type="line"/>
      <point x="111" y="739" type="line"/>
    </contour>
  </outline>
</glyph>
<glyph name="icircumflex.color2" format="2">
  <advance width="600"/>
  <unicode hex="00EE"/>
  <outline>
    <contour>
      <point x="-67" y="592" type="line"/>
      <point x="107" y="592" type="line"/>
      <point x="254" y="770" type="line"/>
      <point x="80" y="770" type="line"/>
      <point x="-67" y="593" type="line"/>
    </contour>
  </outline>
</glyph>
<glyph name="icircumflex" format="2">
  <advance width="344"/>
  <unicode hex="00EE"/>
  <anchor x="171" y="0" name="bottom"/>
  <anchor x="181" y="750" name="top"/>
  <outline>
    <contour>
      <point x="45" y="0" type="line"/>
      <point x="299" y="0" type="line"/>
      <point x="299" y="530" type="line"/>
      <point x="298" y="530" type="line"/>
      <point x="45" y="530" type="line"/>
    </contour>
    <contour>
      <point x="222" y="592" type="line"/>
      <point x="399" y="592" type="line"/>
      <point x="399" y="593" type="line"/>
      <point x="254" y="770" type="line"/>
      <point x="111" y="739" type="line"/>
    </contour>
    <contour>
      <point x="-67" y="592" type="line"/>
      <point x="107" y="592" type="line"/>
      <point x="254" y="770" type="line"/>
      <point x="80" y="770" type="line"/>
      <point x="-67" y="593" type="line"/>
    </contour>
  </outline>
</glyph>
<glyph name="idieresis.color0" format="2">
  <advance width="600"/>
  <unicode hex="00EF"/>
  <outline>
    <contour>
      <point x="188" y="640" type="line"/>
      <point x="344" y="640" type="line"/>
      <point x="344" y="772" type="line"/>
      <point x="188" y="772" type="line"/>
    </contour>
  </outline>
</glyph>
<glyph name="idieresis" format="2">
  <advance width="344"/>
  <unicode hex="00EF"/>
  <outline>
    <contour>
      <point x="188" y="640" type="line"/>
      <point x="344" y="640" type="line"/>
      <point x="344" y="772" type="line"/>
      <point x="188" y="772" type="line"/>
    </contour>
    <contour>
      <point x="0" y="640" type="line"/>
      <point x="156" y="640" type="line"/>
      <point x="156" y="772" type="line"/>
      <point x="0" y="772" type="line"/>
    </contour>
    <component base="idotless" xOffset="3"/>
  </outline>
</glyph>
<glyph name="eth.color5" format="2">
  <advance width="600"/>
  <unicode hex="00F0"/>
  <outline>
    <contour>
      <point x="299" y="286" type="line"/>
      <point x="863" y="286" type="line"/>
      <point x="863" y="287" type="line"/>
      <point x="711" y="530" type="line"/>
      <point x="299" y="530" type="line"/>
    </contour>
  </outline>
</glyph>
<glyph name="ocircumflex" format="2">
  <advance width="917"/>
  <unicode hex="00F4"/>
  <anchor x="462" y="0" name="bottom"/>
  <anchor x="745" y="530" name="horn"/>
  <anchor x="494" y="750" name="top"/>
  <outline>
    <contour>
      <point x="279" y="286" type="line"/>
      <point x="892" y="286" type="line"/>
      <point x="892" y="287" type="line"/>
      <point x="785" y="530" type="line"/>
      <point x="279" y="530" type="line"/>
    </contour>
    <contour>
      <point x="132" y="0" type="line"/>
      <point x="638" y="0" type="line"/>
      <point x="638" y="244" type="line"/>
      <point x="25" y="244" type="line"/>
      <point x="25" y="243" type="line"/>
    </contour>
    <contour>
      <point x="25" y="244" type="line"/>
      <point x="279" y="244" type="line"/>
      <point x="279" y="530" type="line"/>
      <point x="278" y="530" type="line"/>
      <point x="25" y="423" type="line"/>
    </contour>
    <contour>
      <point x="638" y="0" type="line"/>
      <point x="639" y="0" type="line"/>
      <point x="892" y="107" type="line"/>
      <point x="892" y="286" type="line"/>
      <point x="638" y="286" type="line"/>
    </contour>
    <contour>
      <point x="535" y="592" type="line"/>
      <point x="712" y="592" type="line"/>
      <point x="712" y="593" type="line"/>
      <point x="567" y="770" type="line"/>
      <point x="424" y="739" type="line"/>
    </contour>
    <contour>
      <point x="246" y="592" type="line"/>
      <point x="420" y="592" type="line"/>
      <point x="567" y="770" type="line"/>
      <point x="393" y="770" type="line"/>
      <point x="246" y="593" type="line"/>
    </contour>
  </outline>
</glyph>
<glyph name="otilde.color6" format="2">
  <advance width="600"/>
  <unicode hex="00F5"/>
  <outline>
    <contour>
      <point x="548" y="590" type="line"/>
      <point x="549" y="590" type="line"/>
      <point x="697" y="629" type="line"/>
      <point x="697" y="630" type="line"/>
      <point x="409" y="762" type="line"/>
      <point x="408" y="762" type="line"/>
      <point x="259" y="723" type="line"/>
      <point x="259" y="722" type="line"/>
    </contour>
  </outline>
</glyph>
<glyph name="uacute.color1" format="2">
  <advance width="600"/>
  <unicode hex="00FA"/>
  <outline>
    <contour>
      <point x="142" y="0" type="line"/>
      <point x="598" y="0" type="line"/>
      <point x="598" y="244" type="line"/>
      <point x="35" y="244" type="line"/>
      <point x="35" y="243" type="line"/>
    </contour>
  </outline>
</glyph>
<glyph name="uacute.color3" format="2">
  <advance width="600"/>
  <unicode hex="00FA"/>
  <outline>
    <contour>
      <point x="369" y="590" type="line"/>
      <point x="515" y="590" type="line"/>
      <point x="620" y="819" type="line"/>
      <point x="620" y="820" type="line"/>
      <point x="404" y="820" type="line"/>
    </contour>
  </outline>
</glyph>
<glyph name="ucircumflex.color3" format="2">
  <advance width="600"/>
  <unicode hex="00FB"/>
  <outline>
    <contour>
      <point x="505" y="592" type="line"/>
      <point x="682" y="592" type="line"/>
      <point x="682" y="593" type="line"/>
      <point x="537" y="770" type="line"/>
      <point x="394" y="739" type="line"/>
    </contour>
  </outline>
</glyph>
<glyph name="thorn.color0" format="2">
  <advance width="600"/>
  <unicode hex="00FE"/>
  <outline>
    <contour>
      <point x="35" y="244" type="line"/>
      <point x="289" y="244" type="line"/>
      <point x="289" y="800" type="line"/>
      <point x="288" y="800" type="line"/>
      <point x="35" y="693" type="line"/>
    </contour>
  </outline>
</glyph>
<glyph name="Amacron.color4" format="2">
  <advance width="600"/>
  <unicode hex="0100"/>
  <outline>
    <contour>
      <point x="288" y="798" type="line"/>
      <point x="684" y="798" type="line"/>
      <point x="684" y="900" type="line"/>
      <point x="288" y="900" type="line"/>
    </contour>
  </outline>
</glyph>
<glyph name="amacron.color4" format="2">
  <advance width="600"/>
  <unicode hex="0101"/>
  <outline>
    <contour>
      <point x="279" y="628" type="line"/>
      <point x="705" y="628" type="line"/>
      <point x="705" y="740" type="line"/>
      <point x="279" y="740" type="line"/>
    </contour>
  </outline>
</glyph>
<glyph name="Abreve.color5" format="2">
  <advance width="600"/>
  <unicode hex="0102"/>
  <outline>
    <contour>
      <point x="260" y="860" type="line"/>
      <point x="439" y="860" type="line"/>
      <point x="402" y="900" type="line"/>
      <point x="226" y="900" type="line"/>
      <point x="226" y="898" type="line"/>
    </contour>
  </outline>
</glyph>
<glyph name="abreve.color4" format="2">
  <advance width="600"/>
  <unicode hex="0103"/>
  <outline>
    <contour>
      <point x="530" y="720" type="line"/>
      <point x="666" y="720" type="line"/>
      <point x="703" y="779" type="line"/>
      <point x="703" y="780" type="line"/>
      <point x="567" y="780" type="line"/>
    </contour>
  </outline>
</glyph>
<glyph name="aogonek.color5" format="2">
  <advance width="600"/>
  <unicode hex="0105"/>
  <outline>
    <contour>
      <point x="461" y="-240" type="line"/>
      <point x="462" y="-240" type="line"/>
      <point x="462" y="-86" type="line"/>
      <point x="304" y="-86" type="line"/>
      <point x="304" y="-184" type="line"/>
    </contour>
  </outline>
</glyph>
<glyph name="aogonek.color6" format="2">
  <advance width="600"/>
  <unicode hex="0105"/>
  <outline>
    <contour>
      <point x="462" y="-240" type="line"/>
      <point x="570" y="-240" type="line"/>
      <point x="630" y="-129" type="line"/>
      <point x="630" y="-128" type="line"/>
      <point x="462" y="-128" type="line"/>
    </contour>
  </outline>
</glyph>
<glyph name="Ccircumflex.color4" format="2">
  <advance width="600"/>
  <unicode hex="0108"/>
  <outline>
    <contour>
      <point x="230" y="760" type="line"/>
      <point x="404" y="760" type="line"/>
      <point x="568" y="900" type="line"/>
      <point x="384" y="900" type="line"/>
      <point x="230" y="761" type="line"/>
    </contour>
  </outline>
</glyph>
<glyph name="ccircumflex.color3" format="2">
  <advance width="600"/>
  <unicode hex="0109"/>
  <outline>
    <contour>
      <point x="455" y="592" type="line"/>
      <point x="632" y="592" type="line"/>
      <point x="632" y="593" type="line"/>
      <point x="487" y="770" type="line"/>
      <point x="344" y="739" type="line"/>
    </contour>
  </outline>
</glyph>
<glyph name="Cdotaccent.color3" format="2">
  <advance width="600"/>
  <unicode hex="010A"/>
  <outline>
    <contour>
      <point x="388" y="768" type="line"/>
      <point x="564" y="768" type="line"/>
      <point x="564" y="900" type="line"/>
      <point x="388" y="900" type="line"/>
    </contour>
  </outline>
</glyph>
<glyph name="Ccaron.color4" format="2">
  <advance width="600"/>
  <unicode hex="010C"/>
  <outline>
    <contour>
      <point x="392" y="760" type="line"/>
      <point x="566" y="760" type="line"/>
      <point x="730" y="899" type="line"/>
      <point x="730" y="900" type="line"/>
      <point x="556" y="900" type="line"/>
    </contour>
  </outline>
</glyph>
<glyph name="ccaron.color4" format="2">
  <advance width="600"/>
  <unicode hex="010D"/>
  <outline>
    <contour>
      <point x="311" y="582" type="line"/>
      <point x="475" y="582" type="line"/>
      <point x="629" y="749" type="line"/>
      <point x="629" y="750" type="line"/>
      <point x="455" y="750" type="line"/>
    </contour>
  </outline>
</glyph>
<glyph name="Dcaron" format="2">
  <advance width="947"/>
  <unicode hex="010E"/>
  <anchor x="166" y="361" name="stroke"/>
  <anchor x="476" y="730" name="top"/>
  <outline>
    <contour>
      <point x="289" y="486" type="line"/>
      <point x="922" y="486" type="line"/>
      <point x="922" y="487" type="line"/>
      <point x="720" y="730" type="line"/>
      <point x="289" y="730" type="line"/>
    </contour>
    <contour>
      <point x="35" y="-4" type="line"/>
      <point x="668" y="-4" type="line"/>
      <point x="668" y="240" type="line"/>
      <point x="35" y="240" type="line"/>
    </contour>
    <contour>
      <point x="35" y="240" type="line"/>
      <point x="289" y="240" type="line"/>
      <point x="289" y="730" type="line"/>
      <point x="35" y="730" type="line"/>
    </contour>
    <contour>
      <point x="668" y="-4" type="line"/>
      <point x="669" y="-4" type="line"/>
      <point x="922" y="193" type="line"/>
      <point x="922" y="486" type="line"/>
      <point x="668" y="486" type="line"/>
    </contour>
    <contour>
      <point x="392" y="760" type="line"/>
      <point x="545" y="793" type="line"/>
      <point x="401" y="900" type="line"/>
      <point x="224" y="900" type="line"/>
      <point x="224" y="899" type="line"/>
    </contour>
    <contour>
      <point x="392" y="760" type="line"/>
      <point x="566" y="760" type="line"/>
      <point x="730" y="899" type="line"/>
      <point x="730" y="900" type="line"/>
      <point x="556" y="900" type="line"/>
    </contour>
  </outline>
</glyph>
<glyph name="dcaron.color0" format="2">
  <advance width="600"/>
  <unicode hex="010F"/>
  <outline>
    <contour>
      <point x="862" y="289" type="line"/>
      <point x="863" y="289" type="line"/>
      <point x="863" y="794" type="line"/>
      <point x="609" y="794" type="line"/>
      <point x="609" y="530" type="line"/>
    </contour>
  </outline>
</glyph>
<glyph name="dcroat.color5" format="2">
  <advance width="600"/>
  <unicode hex="0111"/>
  <outline>
    <contour>
      <point x="609" y="0" type="line"/>
      <point x="610" y="0" type="line"/>
      <point x="863" y="107" type="line"/>
      <point x="863" y="286" type="line"/>
      <point x="609" y="286" type="line"/>
    </contour>
  </outline>
</glyph>
<glyph name="dcroat" format="2">
  <advance width="898"/>
  <unicode hex="0111"/>
  <outline>
    <contour>
      <point x="142" y="562" type="line"/>
      <point x="841" y="562" type="line"/>
      <point x="841" y="700" type="line"/>
      <point x="142" y="700" type="line"/>
    </contour>
    <component base="d"/>
  </outline>
</glyph>
<glyph name="emacron.color1" format="2">
  <advance width="600"/>
  <unicode hex="0113"/>
  <outline>
    <contour>
      <point x="25" y="200" type="line"/>
      <point x="279" y="200" type="line"/>
      <point x="279" y="530" type="line"/>
      <point x="278" y="530" type="line"/>
      <point x="25" y="423" type="line"/>
    </contour>
  </outline>
</glyph>
<glyph name="ebreve.color5" format="2">
  <advance width="600"/>
  <unicode hex="0115"/>
  <outline>
    <contour>
      <point x="510" y="720" type="line"/>
      <point x="646" y="720" type="line"/>
      <point x="683" y="779" type="line"/>
      <point x="683" y="780" type="line"/>
      <point x="547" y="780" type="line"/>
    </contour>
  </outline>
</glyph>
<glyph name="ebreve.color7" format="2">
  <advance width="600"/>
  <unicode hex="0115"/>
  <outline>
    <contour>
      <point x="320" y="598" type="line"/>
      <point x="575" y="598" type="line"/>
      <point x="646" y="720" type="line"/>
      <point x="249" y="720" type="line"/>
    </contour>
  </outline>
</glyph>
<glyph name="Edotaccent.color2" format="2">
  <advance width="600"/>
  <unicode hex="0116"/>
  <outline>
    <contour>
      <point x="289" y="263" type="line"/>
      <point x="698" y="263" type="line"/>
      <point x="698" y="467" type="line"/>
      <point x="289" y="467" type="line"/>
    </contour>
  </outline>
</glyph>
<glyph name="edotaccent.color5" format="2">
  <advance width="600"/>
  <unicode hex="0117"/>
  <outline>
    <contour>
      <point x="345" y="640" type="line"/>
      <point x="599" y="640" type="line"/>
      <point x="599" y="812" type="line"/>
      <point x="345" y="812" type="line"/>
    </contour>
  </outline>
</glyph>
<glyph name="Eogonek.color5" format="2">
  <advance width="600"/>
  <unicode hex="0118"/>
  <outline>
    <contour>
      <point x="472" y="-240" type="line"/>
      <point x="473" y="-240" type="line"/>
      <point x="473" y="-86" type="line"/>
      <point x="315" y="-86" type="line"/>
      <point x="315" y="-184" type="line"/>
    </contour>
  </outline>
</glyph>
<glyph name="Eogonek.color6" format="2">
  <advance width="600"/>
  <unicode hex="0118"/>
  <outline>
    <contour>
      <point x="473" y="-240" type="line"/>
      <point x="581" y="-240" type="line"/>
      <point x="641" y="-129" type="line"/>
      <point x="641" y="-128" type="line"/>
      <point x="473" y="-128" type="line"/>
    </contour>
  </outline>
</glyph>
<glyph name="Eogonek" format="2">
  <advance width="832"/>
  <unicode hex="0118"/>
  <anchor x="442" y="0" name="bottom"/>
  <anchor x="456" y="730" name="top"/>
  <outline>
    <contour>
      <point x="237" y="0" type="line"/>
      <point x="801" y="0" type="line"/>
      <point x="801" y="244" type="line"/>
      <point x="35" y="244" type="line"/>
      <point x="35" y="243" type="line"/>
    </contour>
    <contour>
      <point x="35" y="244" type="line"/>
      <point x="289" y="244" type="line"/>
      <point x="289" y="730" type="line"/>
      <point x="35" y="730" type="line"/>
    </contour>
    <contour>
      <point x="289" y="263" type="line"/>
      <point x="698" y="263" type="line"/>
      <point x="698" y="467" type="line"/>
      <point x="289" y="467" type="line"/>
    </contour>
    <contour>
      <point x="289" y="486" type="line"/>
      <point x="650" y="486" type="line"/>
      <point x="852" y="729" type="line"/>
      <point x="852" y="730" type="line"/>
      <point x="289" y="730" type="line"/>
    </contour>
    <contour>
      <point x="315" y="-86" type="line"/>
      <point x="473" y="-86" type="line"/>
      <point x="557" y="-1" type="line"/>
      <point x="557" y="0" type="line"/>
      <point x="372" y="0" type="line"/>
      <point x="315" y="-85" type="line"/>
    </contour>
    <contour>
      <point x="472" y="-240" type="line"/>
      <point x="473" y="-240" type="line"/>
      <point x="473" y="-86" type="line"/>
      <point x="315" y="-86" type="line"/>
      <point x="315" y="-184" type="line"/>
    </contour>
    <contour>
      <point x="473" y="-240" type="line"/>
      <point x="581" y="-240" type="line"/>
      <point x="641" y="-129" type="line"/>
      <point x="641" y="-128" type="line"/>
      <point x="473" y="-128" type="line"/>
    </contour>
  </outline>
</glyph>
<glyph name="eogonek.color6" format="2">
  <advance width="600"/>
  <unicode hex="0119"/>
  <outline>
    <contour>
      <point x="441" y="-240" type="line"/>
      <point x="442" y="-240" type="line"/>
      <point x="442" y="-86" type="line"/>
      <point x="284" y="-86" type="line"/>
      <point x="284" y="-184" type="line"/>
    </contour>
  </outline>
</glyph>
<glyph name="eogonek.color7" format="2">
  <advance width="600"/>
  <unicode hex="0119"/>
  <outline>
    <contour>
      <point x="442" y="-240" type="line"/>
      <point x="550" y="-240" type="line"/>
      <point x="610" y="-129" type="line"/>
      <point x="610" y="-128" type="line"/>
      <point x="442" y="-128" type="line"/>
    </contour>
  </outline>
</glyph>
<glyph name="Ecaron.color5" format="2">
  <advance width="600"/>
  <unicode hex="011A"/>
  <outline>
    <contour>
      <point x="372" y="760" type="line"/>
      <point x="546" y="760" type="line"/>
      <point x="710" y="899" type="line"/>
      <point x="710" y="900" type="line"/>
      <point x="536" y="900" type="line"/>
    </contour>
  </outline>
</glyph>
<glyph name="ecaron.color0" format="2">
  <advance width="600"/>
  <unicode hex="011B"/>
  <outline>
    <contour>
      <point x="132" y="0" type="line"/>
      <point x="765" y="0" type="line"/>
      <point x="872" y="199" type="line"/>
      <point x="872" y="200" type="line"/>
      <point x="25" y="200" type="line"/>
      <point x="25" y="199" type="line"/>
    </contour>
  </outline>
</glyph>
<glyph name="ecaron" format="2">
  <advance width="902"/>
  <unicode hex="011B"/>
  <anchor x="411" y="0" name="bottom"/>
  <anchor x="472" y="530" name="top"/>
  <outline>
    <contour>
      <point x="132" y="0" type="line"/>
      <point x="765" y="0" type="line"/>
      <point x="872" y="199" type="line"/>
      <point x="872" y="200" type="line"/>
      <point x="25" y="200" type="line"/>
      <point x="25" y="199" type="line"/>
    </contour>
    <contour>
      <point x="25" y="200" type="line"/>
      <point x="279" y="200" type="line"/>
      <point x="279" y="530" type="line"/>
      <point x="278" y="530" type="line"/>
      <point x="25" y="423" type="line"/>
    </contour>
    <contour>
      <point x="279" y="220" type="line"/>
      <point x="618" y="221" type="line"/>
      <point x="618" y="311" type="line"/>
      <point x="279" y="311" type="line"/>
    </contour>
    <contour>
      <point x="279" y="330" type="line"/>
      <point x="872" y="330" type="line"/>
      <point x="872" y="331" type="line"/>
      <point x="765" y="530" type="line"/>
      <point x="279" y="530" type="line"/>
    </contour>
    <contour>
      <point x="618" y="221" type="line"/>
      <point x="619" y="221" type="line"/>
      <point x="872" y="298" type="line"/>
      <point x="872" y="330" type="line"/>
      <point x="618" y="330" type="line"/>
    </contour>
    <contour>
      <point x="371" y="582" type="line"/>
      <point x="514" y="613" type="line"/>
      <point x="400" y="750" type="line"/>
      <point x="223" y="750" type="line"/>
      <point x="223" y="749" type="line"/>
    </contour>
    <contour>
      <point x="371" y="582" type="line"/>
      <point x="535" y="582" type="line"/>
      <point x="689" y="749" type="line"/>
      <point x="689" y="750" type="line"/>
      <point x="515" y="750" type="line"/>
    </contour>
  </outline>
</glyph>
<glyph name="Gcircumflex.color5" format="2">
  <advance width="600"/>
  <unicode hex="011C"/>
  <outline>
    <contour>
      <point x="606" y="760" type="line"/>
      <point x="783" y="760" type="line"/>
      <point x="783" y="761" type="line"/>
      <point x="615" y="900" type="line"/>
      <point x="462" y="867" type="line"/>
    </contour>
  </outline>
</glyph>
<glyph name="Gcircumflex" format="2">
  <advance width="1007"/>
  <unicode hex="011C"/>
  <anchor x="535" y="0" name="bottom"/>
  <anchor x="523" y="730" name="top"/>
  <outline>
    <contour>
      <point x="279" y="486" type="line"/>
      <point x="982" y="486" type="line"/>
      <point x="982" y="487" type="line"/>
      <point x="780" y="730" type="line"/>
      <point x="279" y="730" type="line"/>
    </contour>
    <contour>
      <point x="227" y="0" type="line"/>
      <point x="728" y="0" type="line"/>
      <point x="728" y="244" type="line"/>
      <point x="25" y="244" type="line"/>
      <point x="25" y="243" type="line"/>
    </contour>
    <contour>
      <point x="25" y="244" type="line"/>
      <point x="279" y="244" type="line"/>
      <point x="279" y="730" type="line"/>
      <point x="278" y="730" type="line"/>
      <point x="25" y="523" type="line"/>
    </contour>
    <contour>
      <point x="299" y="263" type="line"/>
      <point x="728" y="263" type="line"/>
      <point x="728" y="467" type="line"/>
      <point x="299" y="466" type="line"/>
    </contour>
    <contour>
      <point x="728" y="0" type="line"/>
      <point x="729" y="0" type="line"/>
      <point x="982" y="197" type="line"/>
      <point x="982" y="254" type="line"/>
      <point x="729" y="467" type="line"/>
      <point x="728" y="467" type="line"/>
    </contour>
    <contour>
      <point x="606" y="760" type="line"/>
      <point x="783" y="760" type="line"/>
      <point x="783" y="761" type="line"/>
      <point x="615" y="900" type="line"/>
      <point x="462" y="867" type="line"/>
    </contour>
    <contour>
      <point x="277" y="760" type="line"/>
      <point x="451" y="760" type="line"/>
      <point x="615" y="900" type="line"/>
      <point x="431" y="900" type="line"/>
      <point x="277" y="761" type="line"/>
    </contour>
  </outline>
</glyph>
<glyph name="gcircumflex.color1" format="2">
  <advance width="600"/>
  <unicode hex="011D"/>
  <outline>
    <contour>
      <point x="137" y="-206" type="line"/>
      <point x="570" y="-206" type="line"/>
      <point x="570" y="-20" type="line"/>
      <point x="35" y="-20" type="line"/>
      <point x="35" y="-21" type="line"/>
    </contour>
  </outline>
</glyph>
<glyph name="Gbreve.color0" format="2">
  <advance width="600"/>
  <unicode hex="011E"/>
  <outline>
    <contour>
      <point x="279" y="486" type="line"/>
      <point x="982" y="486" type="line"/>
      <point x="982" y="487" type="line"/>
      <point x="780" y="730" type="line"/>
      <point x="279" y="730" type="line"/>
    </contour>
  </outline>
</glyph>
<glyph name="Gbreve.color7" format="2">
  <advance width="600"/>
  <unicode hex="011E"/>
  <outline>
    <contour>
      <point x="551" y="860" type="line"/>
      <point x="730" y="860" type="line"/>
      <point x="764" y="899" type="line"/>
      <point x="764" y="900" type="line"/>
      <point x="588" y="900" type="line"/>
    </contour>
  </outline>
</glyph>
<glyph name="gbreve.color7" format="2">
  <advance width="600"/>
  <unicode hex="011F"/>
  <outline>
    <contour>
      <point x="390" y="598" type="line"/>
      <point x="645" y="598" type="line"/>
      <point x="716" y="720" type="line"/>
      <point x="319" y="720" type="line"/>
    </contour>
  </outline>
</glyph>
<glyph name="Gdotaccent" format="2">
  <advance width="1007"/>
  <unicode hex="0120"/>
  <anchor x="535" y="0" name="bottom"/>
  <anchor x="523" y="900" name="top"/>
  <outline>
    <contour>
      <point x="279" y="486" type="line"/>
      <point x="982" y="486" type="line"/>
      <point x="982" y="487" type="line"/>
      <point x="780" y="730" type="line"/>
      <point x="279" y="730" type="line"/>
    </contour>
    <contour>
      <point x="227" y="0" type="line"/>
      <point x="728" y="0" type="line"/>
      <point x="728" y="244" type="line"/>
      <point x="25" y="244" type="line"/>
      <point x="25" y="243" type="line"/>
    </contour>
    <contour>
      <point x="25" y="244" type="line"/>
      <point x="279" y="244" type="line"/>
      <point x="279" y="730" type="line"/>
      <point x="278" y="730" type="line"/>
      <point x="25" y="523" type="line"/>
    </contour>
    <contour>
      <point x="299" y="263" type="line"/>
      <point x="728" y="263" type="line"/>
      <point x="728" y="467" type="line"/>
      <point x="299" y="466" type="line"/>
    </contour>
    <contour>
      <point x="728" y="0" type="line"/>
      <point x="729" y="0" type="line"/>
      <point x="982" y="197" type="line"/>
      <point x="982" y="254" type="line"/>
      <point x="729" y="467" type="line"/>
      <point x="728" y="467" type="line"/>
    </contour>
    <contour>
      <point x="435" y="768" type="line"/>
      <point x="611" y="768" type="line"/>
      <point x="611" y="900" type="line"/>
      <point x="435" y="900" type="line"/>
    </contour>
  </outline>
</glyph>
<glyph name="gdotaccent.color2" format="2">
  <advance width="600"/>
  <unicode hex="0121"/>
  <outline>
    <contour>
      <point x="137" y="22" type="line"/>
      <point x="570" y="22" type="line"/>
      <point x="570" y="266" type="line"/>
      <point x="35" y="266" type="line"/>
      <point x="35" y="265" type="line"/>
    </contour>
  </outline>
</glyph>
<glyph name="gcommaaccent.color5" format="2">
  <advance width="600"/>
  <unicode hex="0123"/>
  <outline>
    <contour>
      <point x="476" y="590" type="line"/>
      <point x="608" y="590" type="line"/>
      <point x="608" y="800" type="line"/>
      <point x="607" y="800" type="line"/>
      <point x="476" y="698" type="line"/>
    </contour>
  </outline>
</glyph>
<glyph name="Hcircumflex.color0" format="2">
  <advance width="600"/>
  <unicode hex="0124"/>
  <outline>
    <contour>
      <point x="638" y="0" type="line"/>
      <point x="892" y="0" type="line"/>
      <point x="892" y="730" type="line"/>
      <point x="638" y="730" type="line"/>
    </contour>
  </outline>
</glyph>
<glyph name="Hcircumflex" format="2">
  <advance width="927"/>
  <unicode hex="0124"/>
  <anchor x="466" y="730" name="top"/>
  <outline>
    <contour>
      <point x="638" y="0" type="line"/>
      <point x="892" y="0" type="line"/>
      <point x="892" y="730" type="line"/>
      <point x="638" y="730" type="line"/>
    </contour>
    <contour>
      <point x="35" y="0" type="line"/>
      <point x="289" y="0" type="line"/>
      <point x="289" y="730" type="line"/>
      <point x="35" y="730" type="line"/>
    </contour>
    <contour>
      <point x="289" y="243" type="line"/>
      <point x="638" y="243" type="line"/>
      <point x="638" y="487" type="line"/>
      <point x="289" y="487" type="line"/>
    </contour>
    <contour>
      <point x="549" y="760" type="line"/>
      <point x="726" y="760" type="line"/>
      <point x="726" y="761" type="line"/>
      <point x="558" y="900" type="line"/>
      <point x="405" y="867" type="line"/>
    </contour>
    <contour>
      <point x="220" y="760" type="line"/>
      <point x="394" y="760" type="line"/>
      <point x="558" y="900" type="line"/>
      <point x="374" y="900" type="line"/>
      <point x="220" y="761" type="line"/>
    </contour>
  </outline>
</glyph>
<glyph name="hcircumflex.color3" format="2">
  <advance width="600"/>
  <unicode hex="0125"/>
  <outline>
    <contour>
      <point x="631" y="590" type="line"/>
      <point x="808" y="590" type="line"/>
      <point x="808" y="591" type="line"/>
      <point x="640" y="730" type="line"/>
      <point x="487" y="697" type="line"/>
    </contour>
  </outline>
</glyph>
<glyph name="hcircumflex" format="2">
  <advance width="897"/>
  <unicode hex="0125"/>
  <anchor x="331" y="653" name="stroke"/>
  <anchor x="548" y="560" name="top"/>
  <outline>
    <contour>
      <point x="35" y="0" type="line"/>
      <point x="289" y="0" type="line"/>
      <point x="289" y="794" type="line"/>
      <point x="35" y="794" type="line"/>
    </contour>
    <contour>
      <point x="598" y="-6" type="line"/>
      <point x="599" y="-6" type="line"/>
      <point x="852" y="41" type="line"/>
      <point x="852" y="286" type="line"/>
      <point x="598" y="286" type="line"/>
    </contour>
    <contour>
      <point x="289" y="286" type="line"/>
      <point x="852" y="286" type="line"/>
      <point x="852" y="287" type="line"/>
      <point x="745" y="530" type="line"/>
      <point x="289" y="530" type="line"/>
    </contour>
    <contour>
      <point x="631" y="590" type="line"/>
      <point x="808" y="590" type="line"/>
      <point x="808" y="591" type="line"/>
      <point x="640" y="730" type="line"/>
      <point x="487" y="697" type="line"/>
    </contour>
    <contour>
      <point x="302" y="590" type="line"/>
      <point x="476" y="590" type="line"/>
      <point x="640" y="730" type="line"/>
      <point x="456" y="730" type="line"/>
      <point x="302" y="591" type="line"/>
    </contour>
  </outline>
</glyph>
<glyph name="Hbar" format="2">
  <advance width="1017"/>
  <unicode hex="0126"/>
  <outline>
    <contour>
      <point x="20" y="519" type="line"/>
      <point x="997" y="519" type="line"/>
      <point x="997" y="693" type="line"/>
      <point x="20" y="693" type="line"/>
    </contour>
    <component base="H" xOffset="55"/>
  </outline>
</glyph>
<glyph name="hbar" format="2">
  <advance width="897"/>
  <unicode hex="0127"/>
  <anchor x="291" y="653" name="_stroke"/>
  <outline>
    <contour>
      <point x="-6" y="561" type="line"/>
      <point x="588" y="561" type="line"/>
      <point x="588" y="745" type="line"/>
      <point x="-6" y="745" type="line"/>
    </contour>
    <component base="h"/>
  </outline>
</glyph>
<glyph name="Itilde.color6" format="2">
  <advance width="600"/>
  <unicode hex="0128"/>
  <outline>
    <contour>
      <point x="442" y="806" type="line"/>
      <point x="581" y="827" type="line"/>
      <point x="581" y="915" type="line"/>
      <point x="442" y="915" type="line"/>
    </contour>
  </outline>
</glyph>
<glyph name="itilde.color1" format="2">
  <advance width="600"/>
  <unicode hex="0129"/>
  <outline>
    <contour>
      <point x="210" y="630" type="line"/>
      <point x="330" y="630" type="line"/>
      <point x="330" y="759" type="line"/>
      <point x="210" y="759" type="line"/>
    </contour>
  </outline>
</glyph>
<glyph name="itilde.color2" format="2">
  <advance width="600"/>
  <unicode hex="0129"/>
  <outline>
    <contour>
      <point x="231" y="590" type="line"/>
      <point x="232" y="590" type="line"/>
      <point x="330" y="629" type="line"/>
      <point x="330" y="630" type="line"/>
      <point x="111" y="772" type="line"/>
      <point x="110" y="772" type="line"/>
      <point x="12" y="733" type="line"/>
      <point x="12" y="732" type="line"/>
    </contour>
  </outline>
</glyph>
<glyph name="itilde" format="2">
  <advance width="344"/>
  <unicode hex="0129"/>
  <outline>
    <contour>
      <point x="12" y="603" type="line"/>
      <point x="132" y="603" type="line"/>
      <point x="132" y="713" type="line"/>
      <point x="12" y="732" type="line"/>
    </contour>
    <contour>
      <point x="210" y="630" type="line"/>
      <point x="330" y="630" type="line"/>
      <point x="330" y="759" type="line"/>
      <point x="210" y="759" type="line"/>
    </contour>
    <contour>
      <point x="231" y="590" type="line"/>
      <point x="232" y="590" type="line"/>
      <point x="330" y="629" type="line"/>
      <point x="330" y="630" type="line"/>
      <point x="111" y="772" type="line"/>
      <point x="110" y="772" type="line"/>
      <point x="12" y="733" type="line"/>
      <point x="12" y="732" type="line"/>
    </contour>
    <component base="idotless"/>
  </outline>
</glyph>
<glyph name="Imacron.color5" format="2">
  <advance width="600"/>
  <unicode hex="012A"/>
  <outline>
    <contour>
      <point x="153" y="798" type="line"/>
      <point x="549" y="798" type="line"/>
      <point x="549" y="900" type="line"/>
      <point x="153" y="900" type="line"/>
    </contour>
  </outline>
</glyph>
<glyph name="imacron" format="2">
  <advance width="344"/>
  <unicode hex="012B"/>
  <outline>
    <contour>
      <point x="-6" y="638" type="line"/>
      <point x="350" y="638" type="line"/>
      <point x="350" y="750" type="line"/>
      <point x="-6" y="750" type="line"/>
    </contour>
    <component base="idotless"/>
  </outline>
</glyph>
<glyph name="ibreve.color2" format="2">
  <advance width="600"/>
  <unicode hex="012D"/>
  <outline>
    <contour>
      <point x="55" y="700" type="line"/>
      <point x="191" y="700" type="line"/>
      <point x="144" y="780" type="line"/>
      <point x="8" y="780" type="line"/>
      <point x="8" y="778" type="line"/>
    </contour>
  </outline>
</glyph>
<glyph name="ibreve" format="2">
  <advance width="427"/>
  <unicode hex="012D"/>
  <outline>
    <contour>
      <point x="116" y="598" type="line"/>
      <point x="311" y="598" type="line"/>
      <point x="372" y="700" type="line"/>
      <point x="55" y="700" type="line"/>
    </contour>
    <contour>
      <point x="55" y="700" type="line"/>
      <point x="191" y="700" type="line"/>
      <point x="144" y="780" type="line"/>
      <point x="8" y="780" type="line"/>
      <point x="8" y="778" type="line"/>
    </contour>
    <contour>
      <point x="246" y="700" type="line"/>
      <point x="372" y="700" type="line"/>
      <point x="419" y="779" type="line"/>
      <point x="419" y="780" type="line"/>
      <point x="293" y="780" type="line"/>
    </contour>
    <component base="idotless" xOffset="41"/>
  </outline>
</glyph>
<glyph name="Iogonek.color6" format="2">
  <advance width="600"/>
  <unicode hex="012E"/>
  <outline>
    <contour>
      <point x="370" y="-240" type="line"/>
      <point x="371" y="-240" type="line"/>
      <point x="371" y="-86" type="line"/>
      <point x="213" y="-86" type="line"/>
      <point x="213" y="-184" type="line"/>
    </contour>
  </outline>
</glyph>
<glyph name="Iogonek" format="2">
  <advance width="697"/>
  <unicode hex="012E"/>
  <anchor x="340" y="0" name="bottom"/>
  <anchor x="351" y="730" name="top"/>
  <outline>
    <contour>
      <point x="246" y="0" type="line"/>
      <point x="298" y="0" type="line"/>
      <point x="500" y="244" type="line"/>
      <point x="500" y="730" type="line"/>
      <point x="448" y="730" type="line"/>
      <point x="246" y="486" type="line"/>
    </contour>
    <contour>
      <point x="25" y="0" type="line"/>
      <point x="246" y="0" type="line"/>
      <point x="246" y="244" type="line"/>
      <point x="25" y="244" type="line"/>
    </contour>
    <contour>
      <point x="298" y="0" type="line"/>
      <point x="672" y="0" type="line"/>
      <point x="672" y="244" type="line"/>
      <point x="500" y="244" type="line"/>
    </contour>
    <contour>
      <point x="25" y="486" type="line"/>
      <point x="246" y="486" type="line"/>
      <point x="448" y="730" type="line"/>
      <point x="25" y="730" type="line"/>
    </contour>
    <contour>
      <point x="500" y="486" type="line"/>
      <point x="671" y="486" type="line"/>
      <point x="671" y="730" type="line"/>
      <point x="500" y="730" type="line"/>
    </contour>
    <contour>
      <point x="213" y="-86" type="line"/>
      <point x="371" y="-86" type="line"/>
      <point x="455" y="-1" type="line"/>
      <point x="455" y="0" type="line"/>
      <point x="270" y="0" type="line"/>
      <point x="213" y="-85" type="line"/>
    </contour>
    <contour>
      <point x="370" y="-240" type="line"/>
      <point x="371" y="-240" type="line"/>
      <point x="371" y="-86" type="line"/>
      <point x="213" y="-86" type="line"/>
      <point x="213" y="-184" type="line"/>
    </contour>
    <contour>
      <point x="371" y="-240" type="line"/>
      <point x="479" y="-240" type="line"/>
      <point x="539" y="-129" type="line"/>
      <point x="539" y="-128" type="line"/>
      <point x="371" y="-128" type="line"/>
    </contour>
  </outline>
</glyph>
<glyph name="Idotaccent.color5" format="2">
  <advance width="600"/>
  <unicode hex="0130"/>
  <outline>
    <contour>
      <point x="263" y="768" type="line"/>
      <point x="439" y="768" type="line"/>
      <point x="439" y="900" type="line"/>
      <point x="263" y="900" type="line"/>
    </contour>
  </outline>
</glyph>
<glyph name="Idotaccent" format="2">
  <advance width="697"/>
  <unicode hex="0130"/>
  <anchor x="340" y="0" name="bottom"/>
  <anchor x="351" y="900" name="top"/>
  <outline>
    <contour>
      <point x="246" y="0" type="line"/>
      <point x="298" y="0" type="line"/>
      <point x="500" y="244" type="line"/>
      <point x="500" y="730" type="line"/>
      <point x="448" y="730" type="line"/>
      <point x="246" y="486" type="line"/>
    </contour>
    <contour>
      <point x="25" y="0" type="line"/>
      <point x="246" y="0" type="line"/>
      <point x="246" y="244" type="line"/>
      <point x="25" y="244" type="line"/>
    </contour>
    <contour>
      <point x="298" y="0" type="line"/>
      <point x="672" y="0" type="line"/>
      <point x="672" y="244" type="line"/>
      <point x="500" y="244" type="line"/>
    </contour>
    <contour>
      <point x="25" y="486" type="line"/>
      <point x="246" y="486" type="line"/>
      <point x="448" y="730" type="line"/>
      <point x="25" y="730" type="line"/>
    </contour>
    <contour>
      <point x="500" y="486" type="line"/>
      <point x="671" y="486" type="line"/>
      <point x="671" y="730" type="line"/>
      <point x="500" y="730" type="line"/>
    </contour>
    <contour>
      <point x="263" y="768" type="line"/>
      <point x="439" y="768" type="line"/>
      <point x="439" y="900" type="line"/>
      <point x="263" y="900" type="line"/>
    </contour>
  </outline>
</glyph>
<glyph name="idotless" format="2">
  <advance width="344"/>
  <unicode hex="0131"/>
  <anchor x="171" y="0" name="bottom"/>
  <anchor x="179" y="530" name="top"/>
  <outline>
    <contour>
      <point x="45" y="0" type="line"/>
      <point x="299" y="0" type="line"/>
      <point x="299" y="530" type="line"/>
      <point x="298" y="530" type="line"/>
      <point x="45" y="530" type="line"/>
    </contour>
  </outline>
</glyph>
<glyph name="Jcircumflex.color4" format="2">
  <advance width="600"/>
  <unicode hex="0134"/>
  <outline>
    <contour>
      <point x="449" y="760" type="line"/>
      <point x="626" y="760" type="line"/>
      <point x="626" y="761" type="line"/>
      <point x="458" y="900" type="line"/>
      <point x="305" y="867" type="line"/>
    </contour>
  </outline>
</glyph>
<glyph name="Jcircumflex.color5" format="2">
  <advance width="600"/>
  <unicode hex="0134"/>
  <outline>
    <contour>
      <point x="120" y="760" type="line"/>
      <point x="294" y="760" type="line"/>
      <point x="458" y="900" type="line"/>
      <point x="274" y="900" type="line"/>
      <point x="120" y="761" type="line"/>
    </contour>
  </outline>
</glyph>
<glyph name="Kcommaaccent" format="2">
  <advance width="951"/>
  <unicode hex="0136"/>
  <anchor x="435" y="0" name="bottom"/>
  <outline>
    <contour>
      <point x="640" y="0" type="line"/>
      <point x="951" y="0" type="line"/>
      <point x="951" y="1" type="line"/>
      <point x="678" y="363" type="line"/>
      <point x="464" y="240" type="line"/>
    </contour>
    <contour>
      <point x="35" y="0" type="line"/>
      <point x="289" y="0" type="line"/>
      <point x="289" y="730" type="line"/>
      <point x="35" y="730" type="line"/>
    </contour>
    <contour>
      <point x="289" y="223" type="line"/>
      <point x="588" y="223" type="line"/>
      <point x="588" y="467" type="line"/>
      <point x="289" y="467" type="line"/>
    </contour>
    <contour>
      <point x="588" y="223" type="line"/>
      <point x="589" y="223" type="line"/>
      <point x="842" y="420" type="line"/>
      <point x="842" y="730" type="line"/>
      <point x="588" y="730" type="line"/>
    </contour>
    <contour>
      <point x="530" y="-260" type="line"/>
      <point x="531" y="-260" type="line"/>
      <point x="531" y="-50" type="line"/>
      <point x="339" y="-50" type="line"/>
      <point x="339" y="-158" type="line"/>
    </contour>
  </outline>
</glyph>
<glyph name="kcommaaccent.color3" format="2">
  <advance width="600"/>
  <unicode hex="0137"/>
  <outline>
    <contour>
      <point x="481" y="437" type="line"/>
      <point x="735" y="437" type="line"/>
      <point x="735" y="703" type="line"/>
      <point x="734" y="703" type="line"/>
      <point x="481" y="596" type="line"/>
    </contour>
  </outline>
</glyph>
<glyph name="Lcommaaccent.color2" format="2">
  <advance width="600"/>
  <unicode hex="013B"/>
  <outline>
    <contour>
      <point x="540" y="-260" type="line"/>
      <point x="541" y="-260" type="line"/>
      <point x="541" y="-50" type="line"/>
      <point x="349" y="-50" type="line"/>
      <point x="349" y="-158" type="line"/>
    </contour>
  </outline>
</glyph>
<glyph name="lcommaaccent.color2" format="2">
  <advance width="600"/>
  <unicode hex="013C"/>
  <outline>
    <contour>
      <point x="374" y="-260" type="line"/>
      <point x="375" y="-260" type="line"/>
      <point x="375" y="-50" type="line"/>
      <point x="183" y="-50" type="line"/>
      <point x="183" y="-158" type="line"/>
    </contour>
  </outline>
</glyph>
<glyph name="lcaron.color2" format="2">
  <advance width="600"/>
  <unicode hex="013E"/>
  <outline>
    <contour>
      <point x="309" y="558" type="line"/>
      <point x="405" y="558" type="line"/>
      <point x="520" y="787" type="line"/>
      <point x="520" y="788" type="line"/>
      <point x="344" y="788" type="line"/>
    </contour>
  </outline>
</glyph>
<glyph name="Ldot.color1" format="2">
  <advance width="600"/>
  <unicode hex="013F"/>
  <outline>
    <contour>
      <point x="35" y="245" type="line"/>
      <point x="289" y="245" type="line"/>
      <point x="289" y="730" type="line"/>
      <point x="35" y="730" type="line"/>
    </contour>
  </outline>
</glyph>
<glyph name="ldot.color2" format="2">
  <advance width="600"/>
  <unicode hex="0140"/>
  <outline>
    <contour>
      <point x="318" y="324" type="line"/>
      <point x="550" y="324" type="line"/>
      <point x="550" y="528" type="line"/>
      <point x="318" y="528" type="line"/>
    </contour>
  </outline>
</glyph>
<glyph name="ldot" format="2">
  <advance width="536"/>
  <unicode hex="0140"/>
  <anchor x="279" y="0" name="bottom"/>
  <anchor x="169" y="794" name="top"/>
  <outline>
    <contour>
      <point x="288" y="0" type="line"/>
      <point x="289" y="0" type="line"/>
      <point x="289" y="794" type="line"/>
      <point x="35" y="794" type="line"/>
      <point x="35" y="107" type="line"/>
    </contour>
    <contour>
      <point x="289" y="0" type="line"/>
      <point x="501" y="0" type="line"/>
      <point x="501" y="244" type="line"/>
      <point x="289" y="244" type="line"/>
    </contour>
    <contour>
      <point x="318" y="324" type="line"/>
      <point x="550" y="324" type="line"/>
      <point x="550" y="528" type="line"/>
      <point x="318" y="528" type="line"/>
    </contour>
  </outline>
</glyph>
<glyph name="nacute.color3" format="2">
  <advance width="600"/>
  <unicode hex="0144"/>
  <outline>
    <contour>
      <point x="373" y="590" type="line"/>
      <point x="519" y="590" type="line"/>
      <point x="624" y="819" type="line"/>
      <point x="624" y="820" type="line"/>
      <point x="408" y="820" type="line"/>
    </contour>
  </outline>
</glyph>
<glyph name="ncommaaccent.color3" format="2">
  <advance width="600"/>
  <unicode hex="0146"/>
  <outline>
    <contour>
      <point x="540" y="-260" type="line"/>
      <point x="541" y="-260" type="line"/>
      <point x="541" y="-50" type="line"/>
      <point x="349" y="-50" type="line"/>
      <point x="349" y="-158" type="line"/>
    </contour>
  </outline>
</glyph>
<glyph name="Ncaron.color4" format="2">
  <advance width="600"/>
  <unicode hex="0147"/>
  <outline>
    <contour>
      <point x="372" y="760" type="line"/>
      <point x="546" y="760" type="line"/>
      <point x="710" y="899" type="line"/>
      <point x="710" y="900" type="line"/>
      <point x="536" y="900" type="line"/>
    </contour>
  </outline>
</glyph>
<glyph name="ncaron.color4" format="2">
  <advance width="600"/>
  <unicode hex="0148"/>
  <outline>
    <contour>
      <point x="365" y="582" type="line"/>
      <point x="529" y="582" type="line"/>
      <point x="683" y="749" type="line"/>
      <point x="683" y="750" type="line"/>
      <point x="509" y="750" type="line"/>
    </contour>
  </outline>
</glyph>
<glyph name="obreve.color4" format="2">
  <advance width="600"/>
  <unicode hex="014F"/>
  <outline>
    <contour>
      <point x="530" y="720" type="line"/>
      <point x="666" y="720" type="line"/>
      <point x="703" y="779" type="line"/>
      <point x="703" y="780" type="line"/>
      <point x="567" y="780" type="line"/>
    </contour>
  </outline>
</glyph>
<glyph name="ohungarumlaut.color0" format="2">
  <advance width="600"/>
  <unicode hex="0151"/>
  <outline>
    <contour>
      <point x="279" y="286" type="line"/>
      <point x="892" y="286" type="line"/>
      <point x="892" y="287" type="line"/>
      <point x="785" y="530" type="line"/>
      <point x="279" y="530" type="line"/>
    </contour>
  </outline>
</glyph>
<glyph name="ohungarumlaut.color3" format="2">
  <advance width="600"/>
  <unicode hex="0151"/>
  <outline>
    <contour>
      <point x="638" y="0" type="line"/>
      <point x="639" y="0" type="line"/>
      <point x="892" y="107" type="line"/>
      <point x="892" y="286" type="line"/>
      <point x="638" y="286" type="line"/>
    </contour>
  </outline>
</glyph>
<glyph name="oe.color3" format="2">
  <advance width="600"/>
  <unicode hex="0153"/>
  <outline>
    <contour>
      <point x="608" y="330" type="line"/>
      <point x="1455" y="330" type="line"/>
      <point x="1455" y="331" type="line"/>
      <point x="1348" y="530" type="line"/>
      <point x="862" y="530" type="line"/>
    </contour>
  </outline>
</glyph>
<glyph name="oe.color5" format="2">
  <advance width="600"/>
  <unicode hex="0153"/>
  <outline>
    <contour>
      <point x="608" y="0" type="line"/>
      <point x="609" y="0" type="line"/>
      <point x="862" y="239" type="line"/>
      <point x="862" y="286" type="line"/>
      <point x="608" y="286" type="line"/>
    </contour>
  </outline>
</glyph>
<glyph name="Racute.color5" format="2">
  <advance width="600"/>
  <unicode hex="0154"/>
  <outline>
    <contour>
      <point x="312" y="760" type="line"/>
      <point x="478" y="760" type="line"/>
      <point x="593" y="899" type="line"/>
      <point x="593" y="900" type="line"/>
      <point x="347" y="900" type="line"/>
    </contour>
  </outline>
</glyph>
<glyph name="racute.color2" format="2">
  <advance width="600"/>
  <unicode hex="0155"/>
  <outline>
    <contour>
      <point x="269" y="590" type="line"/>
      <point x="415" y="590" type="line"/>
      <point x="520" y="819" type="line"/>
      <point x="520" y="820" type="line"/>
      <point x="304" y="820" type="line"/>
    </contour>
  </outline>
</glyph>
<glyph name="Rcommaaccent.color0" format="2">
  <advance width="600"/>
  <unicode hex="0156"/>
  <outline>
    <contour>
      <point x="35" y="0" type="line"/>
      <point x="289" y="0" type="line"/>
      <point x="289" y="730" type="line"/>
      <point x="35" y="730" type="line"/>
    </contour>
  </outline>
</glyph>
<glyph name="Rcommaaccent.color5" format="2">
  <advance width="600"/>
  <unicode hex="0156"/>
  <outline>
    <contour>
      <point x="519" y="-260" type="line"/>
      <point x="520" y="-260" type="line"/>
      <point x="520" y="-50" type="line"/>
      <point x="328" y="-50" type="line"/>
      <point x="328" y="-158" type="line"/>
    </contour>
  </outline>
</glyph>
<glyph name="Rcaron.color1" format="2">
  <advance width="600"/>
  <unicode hex="0158"/>
  <outline>
    <contour>
      <point x="590" y="0" type="line"/>
      <point x="901" y="0" type="line"/>
      <point x="901" y="1" type="line"/>
      <point x="699" y="329" type="line"/>
      <point x="499" y="173" type="line"/>
    </contour>
  </outline>
</glyph>
<glyph name="Rcaron.color5" format="2">
  <advance width="600"/>
  <unicode hex="0158"/>
  <outline>
    <contour>
      <point x="332" y="760" type="line"/>
      <point x="485" y="793" type="line"/>
      <point x="341" y="900" type="line"/>
      <point x="164" y="900" type="line"/>
      <point x="164" y="899" type="line"/>
    </contour>
  </outline>
</glyph>
<glyph name="Rcaron.color6" format="2">
  <advance width="600"/>
  <unicode hex="0158"/>
  <outline>
    <contour>
      <point x="332" y="760" type="line"/>
      <point x="506" y="760" type="line"/>
      <point x="670" y="899" type="line"/>
      <point x="670" y="900" type="line"/>
      <point x="496" y="900" type="line"/>
    </contour>
  </outline>
</glyph>
<glyph name="Rcaron" format="2">
  <advance width="926"/>
  <unicode hex="0158"/>
  <anchor x="424" y="0" name="bottom"/>
  <anchor x="416" y="730" name="top"/>
  <outline>
    <contour>
      <point x="35" y="0" type="line"/>
      <point x="289" y="0" type="line"/>
      <point x="289" y="730" type="line"/>
      <point x="35" y="730" type="line"/>
    </contour>
    <contour>
      <point x="590" y="0" type="line"/>
      <point x="901" y="0" type="line"/>
      <point x="901" y="1" type="line"/>
      <point x="699" y="329" type="line"/>
      <point x="499" y="173" type="line"/>
    </contour>
    <contour>
      <point x="289" y="173" type="line"/>
      <point x="628" y="173" type="line"/>
      <point x="628" y="417" type="line"/>
      <point x="289" y="417" type="line"/>
    </contour>
    <contour>
      <point x="628" y="173" type="line"/>
      <point x="629" y="173" type="line"/>
      <point x="882" y="370" type="line"/>
      <point x="882" y="486" type="line"/>
      <point x="628" y="486" type="line"/>
    </contour>
    <contour>
      <point x="289" y="486" type="line"/>
      <point x="882" y="486" type="line"/>
      <point x="882" y="487" type="line"/>
      <point x="680" y="730" type="line"/>
      <point x="289" y="730" type="line"/>
    </contour>
    <contour>
      <point x="332" y="760" type="line"/>
      <point x="485" y="793" type="line"/>
      <point x="341" y="900" type="line"/>
      <point x="164" y="900" type="line"/>
      <point x="164" y="899" type="line"/>
    </contour>
    <contour>
      <point x="332" y="760" type="line"/>
      <point x="506" y="760" type="line"/>
      <point x="670" y="899" type="line"/>
      <point x="670" y="900" type="line"/>
      <point x="496" y="900" type="line"/>
    </contour>
  </outline>
</glyph>
<glyph name="rcaron.color3" format="2">
  <advance width="600"/>
  <unicode hex="0159"/>
  <outline>
    <contour>
      <point x="261" y="582" type="line"/>
      <point x="425" y="582" type="line"/>
      <point x="579" y="749" type="line"/>
      <point x="579" y="750" type="line"/>
      <point x="405" y="750" type="line"/>
    </contour>
  </outline>
</glyph>
<glyph name="rcaron" format="2">
  <advance width="642"/>
  <unicode hex="0159"/>
  <anchor x="155" y="0" name="bottom"/>
  <anchor x="362" y="530" name="top"/>
  <outline>
    <contour>
      <point x="35" y="0" type="line"/>
      <point x="289" y="0" type="line"/>
      <point x="289" y="530" type="line"/>
      <point x="288" y="530" type="line"/>
      <point x="35" y="423" type="line"/>
    </contour>
    <contour>
      <point x="289" y="286" type="line"/>
      <point x="642" y="286" type="line"/>
      <point x="642" y="287" type="line"/>
      <point x="535" y="530" type="line"/>
      <point x="289" y="530" type="line"/>
    </contour>
    <contour>
      <point x="261" y="582" type="line"/>
      <point x="404" y="613" type="line"/>
      <point x="290" y="750" type="line"/>
      <point x="113" y="750" type="line"/>
      <point x="113" y="749" type="line"/>
    </contour>
    <contour>
      <point x="261" y="582" type="line"/>
      <point x="425" y="582" type="line"/>
      <point x="579" y="749" type="line"/>
      <point x="579" y="750" type="line"/>
      <point x="405" y="750" type="line"/>
    </contour>
  </outline>
</glyph>
<glyph name="Scircumflex.color2" format="2">
  <advance width="600"/>
  <unicode hex="015C"/>
  <outline>
    <contour>
      <point x="222" y="262" type="line"/>
      <point x="613" y="262" type="line"/>
      <point x="613" y="466" type="line"/>
      <point x="20" y="466" type="line"/>
      <point x="20" y="465" type="line"/>
    </contour>
  </outline>
</glyph>
<glyph name="Scircumflex.color5" format="2">
  <advance width="600"/>
  <unicode hex="015C"/>
  <outline>
    <contour>
      <point x="534" y="760" type="line"/>
      <point x="711" y="760" type="line"/>
      <point x="711" y="761" type="line"/>
      <point x="543" y="900" type="line"/>
      <point x="390" y="867" type="line"/>
    </contour>
  </outline>
</glyph>
<glyph name="scircumflex.color3" format="2">
  <advance width="600"/>
  <unicode hex="015D"/>
  <outline>
    <contour>
      <point x="387" y="592" type="line"/>
      <point x="564" y="592" type="line"/>
      <point x="564" y="593" type="line"/>
      <point x="419" y="770" type="line"/>
      <point x="276" y="739" type="line"/>
    </contour>
  </outline>
</glyph>
<glyph name="Scedilla.color5" format="2">
  <advance width="600"/>
  <unicode hex="015E"/>
  <outline>
    <contour>
      <point x="416" y="-126" type="line"/>
      <point x="576" y="-126" type="line"/>
      <point x="576" y="-125" type="line"/>
      <point x="506" y="-32" type="line"/>
      <point x="452" y="-32" type="line"/>
    </contour>
  </outline>
</glyph>
<glyph name="Scedilla.color6" format="2">
  <advance width="600"/>
  <unicode hex="015E"/>
  <outline>
    <contour>
      <point x="300" y="-126" type="line"/>
      <point x="416" y="-126" type="line"/>
      <point x="492" y="-1" type="line"/>
      <point x="492" y="0" type="line"/>
      <point x="377" y="0" type="line"/>
      <point x="300" y="-125" type="line"/>
    </contour>
  </outline>
</glyph>
<glyph name="Scedilla" format="2">
  <advance width="887"/>
  <unicode hex="015E"/>
  <anchor x="447" y="0" name="bottom"/>
  <anchor x="451" y="730" name="top"/>
  <outline>
    <contour>
      <point x="274" y="486" type="line"/>
      <point x="867" y="486" type="line"/>
      <point x="867" y="487" type="line"/>
      <point x="665" y="730" type="line"/>
      <point x="274" y="730" type="line"/>
    </contour>
    <contour>
      <point x="222" y="0" type="line"/>
      <point x="613" y="0" type="line"/>
      <point x="613" y="244" type="line"/>
      <point x="20" y="244" type="line"/>
      <point x="20" y="243" type="line"/>
    </contour>
    <contour>
      <point x="222" y="262" type="line"/>
      <point x="613" y="262" type="line"/>
      <point x="613" y="466" type="line"/>
      <point x="20" y="466" type="line"/>
      <point x="20" y="465" type="line"/>
    </contour>
    <contour>
      <point x="20" y="466" type="line"/>
      <point x="274" y="466" type="line"/>
      <point x="274" y="730" type="line"/>
      <point x="273" y="730" type="line"/>
      <point x="20" y="523" type="line"/>
    </contour>
    <contour>
      <point x="613" y="0" type="line"/>
      <point x="614" y="0" type="line"/>
      <point x="867" y="193" type="line"/>
      <point x="867" y="269" type="line"/>
      <point x="614" y="466" type="line"/>
      <point x="613" y="466" type="line"/>
    </contour>
    <contour>
      <point x="416" y="-126" type="line"/>
      <point x="576" y="-126" type="line"/>
      <point x="576" y="-125" type="line"/>
      <point x="506" y="-32" type="line"/>
      <point x="452" y="-32" type="line"/>
    </contour>
    <contour>
      <point x="300" y="-126" type="line"/>
      <point x="416" y="-126" type="line"/>
      <point x="492" y="-1" type="line"/>
      <point x="492" y="0" type="line"/>
      <point x="377" y="0" type="line"/>
      <point x="300" y="-125" type="line"/>
    </contour>
    <contour>
      <point x="310" y="-260" type="line"/>
      <point x="468" y="-260" type="line"/>
      <point x="468" y="-168" type="line"/>
      <point x="250" y="-168" type="line"/>
      <point x="250" y="-169" type="line"/>
    </contour>
    <contour>
      <point x="468" y="-260" type="line"/>
      <point x="469" y="-260" type="line"/>
      <point x="576" y="-204" type="line"/>
      <point x="576" y="-126" type="line"/>
      <point x="468" y="-126" type="line"/>
    </contour>
  </outline>
</glyph>
<glyph name="scaron.color3" format="2">
  <advance width="600"/>
  <unicode hex="0161"/>
  <outline>
    <contour>
      <point x="243" y="582" type="line"/>
      <point x="386" y="613" type="line"/>
      <point x="272" y="750" type="line"/>
      <point x="95" y="750" type="line"/>
      <point x="95" y="749" type="line"/>
    </contour>
  </outline>
</glyph>
<glyph name="scaron.color4" format="2">
  <advance width="600"/>
  <unicode hex="0161"/>
  <outline>
    <contour>
      <point x="243" y="582" type="line"/>
      <point x="407" y="582" type="line"/>
      <point x="561" y="749" type="line"/>
      <point x="561" y="750" type="line"/>
      <point x="387" y="750" type="line"/>
    </contour>
  </outline>
</glyph>
<glyph name="scaron" format="2">
  <advance width="674"/>
  <unicode hex="0161"/>
  <anchor x="342" y="0" name="bottom"/>
  <anchor x="344" y="530" name="top"/>
  <outline>
    <contour>
      <point x="148" y="311" type="line"/>
      <point x="642" y="311" type="line"/>
      <point x="642" y="312" type="line"/>
      <point x="535" y="530" type="line"/>
      <point x="122" y="530" type="line"/>
    </contour>
    <contour>
      <point x="384" y="149" type="line"/>
      <point x="652" y="219" type="line"/>
      <point x="652" y="220" type="line"/>
      <point x="122" y="530" type="line"/>
      <point x="32" y="325" type="line"/>
    </contour>
    <contour>
      <point x="129" y="0" type="line"/>
      <point x="545" y="0" type="line"/>
      <point x="652" y="219" type="line"/>
      <point x="22" y="219" type="line"/>
      <point x="22" y="218" type="line"/>
    </contour>
    <contour>
      <point x="243" y="582" type="line"/>
      <point x="386" y="613" type="line"/>
      <point x="272" y="750" type="line"/>
      <point x="95" y="750" type="line"/>
      <point x="95" y="749" type="line"/>
    </contour>
    <contour>
      <point x="243" y="582" type="line"/>
      <point x="407" y="582" type="line"/>
      <point x="561" y="749" type="line"/>
      <point x="561" y="750" type="line"/>
      <point x="387" y="750" type="line"/>
    </contour>
  </outline>
</glyph>
<glyph name="Tcedilla.color4" format="2">
  <advance width="600"/>
  <unicode hex="0162"/>
  <outline>
    <contour>
      <point x="286" y="-126" type="line"/>
      <point x="402" y="-126" type="line"/>
      <point x="478" y="-1" type="line"/>
      <point x="478" y="0" type="line"/>
      <point x="363" y="0" type="line"/>
      <point x="286" y="-125" type="line"/>
    </contour>
  </outline>
</glyph>
<glyph name="tcedilla.color5" format="2">
  <advance width="600"/>
  <unicode hex="0163"/>
  <outline>
    <contour>
      <point x="209" y="-126" type="line"/>
      <point x="325" y="-126" type="line"/>
      <point x="401" y="-1" type="line"/>
      <point x="401" y="0" type="line"/>
      <point x="286" y="0" type="line"/>
      <point x="209" y="-125" type="line"/>
    </contour>
  </outline>
</glyph>
<glyph name="Tcaron.color4" format="2">
  <advance width="600"/>
  <unicode hex="0164"/>
  <outline>
    <contour>
      <point x="352" y="760" type="line"/>
      <point x="526" y="760" type="line"/>
      <point x="690" y="899" type="line"/>
      <point x="690" y="900" type="line"/>
      <point x="516" y="900" type="line"/>
    </contour>
  </outline>
</glyph>
<glyph name="tcaron.color2" format="2">
  <advance width="600"/>
  <unicode hex="0165"/>
  <outline>
    <contour>
      <point x="288" y="0" type="line"/>
      <point x="289" y="0" type="line"/>
      <point x="289" y="286" type="line"/>
      <point x="35" y="286" type="line"/>
      <point x="35" y="107" type="line"/>
    </contour>
  </outline>
</glyph>
<glyph name="tcaron" format="2">
  <advance width="662"/>
  <unicode hex="0165"/>
  <anchor x="356" y="0" name="bottom"/>
  <anchor x="169" y="794" name="top"/>
  <outline>
    <contour>
      <point x="35" y="286" type="line"/>
      <point x="36" y="286" type="line"/>
      <point x="289" y="530" type="line"/>
      <point x="289" y="703" type="line"/>
      <point x="35" y="703" type="line"/>
    </contour>
    <contour>
      <point x="36" y="286" type="line"/>
      <point x="583" y="286" type="line"/>
      <point x="583" y="530" type="line"/>
      <point x="289" y="530" type="line"/>
    </contour>
    <contour>
      <point x="288" y="0" type="line"/>
      <point x="289" y="0" type="line"/>
      <point x="289" y="286" type="line"/>
      <point x="35" y="286" type="line"/>
      <point x="35" y="107" type="line"/>
    </contour>
    <contour>
      <point x="289" y="0" type="line"/>
      <point x="639" y="0" type="line"/>
      <point x="662" y="243" type="line"/>
      <point x="662" y="244" type="line"/>
      <point x="289" y="244" type="line"/>
    </contour>
    <contour>
      <point x="309" y="558" type="line"/>
      <point x="405" y="558" type="line"/>
      <point x="520" y="787" type="line"/>
      <point x="520" y="788" type="line"/>
      <point x="344" y="788" type="line"/>
    </contour>
  </outline>
</glyph>
<glyph name="Tbar.color2" format="2">
  <advance width="600"/>
  <unicode hex="0166"/>
  <outline>
    <contour>
      <point x="25" y="486" type="line"/>
      <point x="306" y="486" type="line"/>
      <point x="508" y="730" type="line"/>
      <point x="25" y="730" type="line"/>
    </contour>
  </outline>
</glyph>
<glyph name="tbar.color4" format="2">
  <advance width="600"/>
  <unicode hex="0167"/>
  <outline>
    <contour>
      <point x="292" y="0" type="line"/>
      <point x="642" y="0" type="line"/>
      <point x="665" y="243" type="line"/>
      <point x="665" y="244" type="line"/>
      <point x="292" y="244" type="line"/>
    </contour>
  </outline>
</glyph>
<glyph name="tbar" format="2">
  <advance width="665"/>
  <unicode hex="0167"/>
  <anchor x="359" y="0" name="bottom"/>
  <anchor x="172" y="794" name="top"/>
  <outline>
    <contour>
      <point x="0" y="253" type="line"/>
      <point x="521" y="253" type="line"/>
      <point x="521" y="277" type="line"/>
      <point x="0" y="277" type="line"/>
    </contour>
    <contour>
      <point x="38" y="286" type="line"/>
      <point x="39" y="286" type="line"/>
      <point x="292" y="530" type="line"/>
      <point x="292" y="703" type="line"/>
      <point x="38" y="703" type="line"/>
    </contour>
    <contour>
      <point x="39" y="286" type="line"/>
      <point x="586" y="286" type="line"/>
      <point x="586" y="530" type="line"/>
      <point x="292" y="530" type="line"/>
    </contour>
    <contour>
      <point x="291" y="0" type="line"/>
      <point x="292" y="0" type="line"/>
      <point x="292" y="286" type="line"/>
      <point x="38" y="286" type="line"/>
      <point x="38" y="107" type="line"/>
    </contour>
    <contour>
      <point x="292" y="0" type="line"/>
      <point x="642" y="0" type="line"/>
      <point x="665" y="243" type="line"/>
      <point x="665" y="244" type="line"/>
      <point x="292" y="244" type="line"/>
    </contour>
  </outline>
</glyph>
<glyph name="Utilde.color3" format="2">
  <advance width="600"/>
  <unicode hex="0168"/>
  <outline>
    <contour>
      <point x="238" y="772" type="line"/>
      <point x="378" y="772" type="line"/>
      <point x="378" y="864" type="line"/>
      <point x="238" y="853" type="line"/>
    </contour>
  </outline>
</glyph>
<glyph name="Umacron.color3" format="2">
  <advance width="600"/>
  <unicode hex="016A"/>
  <outline>
    <contour>
      <point x="278" y="798" type="line"/>
      <point x="674" y="798" type="line"/>
      <point x="674" y="900" type="line"/>
      <point x="278" y="900" type="line"/>
    </contour>
  </outline>
</glyph>
<glyph name="umacron.color3" format="2">
  <advance width="600"/>
  <unicode hex="016B"/>
  <outline>
    <contour>
      <point x="249" y="628" type="line"/>
      <point x="675" y="628" type="line"/>
      <point x="675" y="740" type="line"/>
      <point x="249" y="740" type="line"/>
    </contour>
  </outline>
</glyph>
<glyph name="Ubreve.color0" format="2">
  <advance width="600"/>
  <unicode hex="016C"/>
  <outline>
    <contour>
      <point x="628" y="0" type="line"/>
      <point x="629" y="0" type="line"/>
      <point x="882" y="207" type="line"/>
      <point x="882" y="730" type="line"/>
      <point x="628" y="730" type="line"/>
    </contour>
  </outline>
</glyph>
<glyph name="Ubreve.color5" format="2">
  <advance width="600"/>
  <unicode hex="016C"/>
  <outline>
    <contour>
      <point x="504" y="860" type="line"/>
      <point x="683" y="860" type="line"/>
      <point x="717" y="899" type="line"/>
      <point x="717" y="900" type="line"/>
      <point x="541" y="900" type="line"/>
    </contour>
  </outline>
</glyph>
<glyph name="Ubreve" format="2">
  <advance width="907"/>
  <unicode hex="016C"/>
  <anchor x="442" y="0" name="bottom"/>
  <anchor x="811" y="730" name="horn"/>
  <anchor x="476" y="730" name="top"/>
  <outline>
    <contour>
      <point x="628" y="0" type="line"/>
      <point x="629" y="0" type="line"/>
      <point x="882" y="207" type="line"/>
      <point x="882" y="730" type="line"/>
      <point x="628" y="730" type="line"/>
    </contour>
    <contour>
      <point x="237" y="0" type="line"/>
      <point x="628" y="0" type="line"/>
      <point x="628" y="244" type="line"/>
      <point x="35" y="244" type="line"/>
      <point x="35" y="243" type="line"/>
    </contour>
    <contour>
      <point x="35" y="244" type="line"/>
      <point x="289" y="244" type="line"/>
      <point x="289" y="730" type="line"/>
      <point x="35" y="730" type="line"/>
    </contour>
    <contour>
      <point x="344" y="760" type="line"/>
      <point x="589" y="760" type="line"/>
      <point x="683" y="860" type="line"/>
      <point x="250" y="860" type="line"/>
    </contour>
    <contour>
      <point x="250" y="860" type="line"/>
      <point x="429" y="860" type="line"/>
      <point x="392" y="900" type="line"/>
      <point x="216" y="900" type="line"/>
      <point x="216" y="898" type="line"/>
    </contour>
    <contour>
      <point x="504" y="860" type="line"/>
      <point x="683" y="860" type="line"/>
      <point x="717" y="899" type="line"/>
      <point x="717" y="900" type="line"/>
      <point x="541" y="900" type="line"/>
    </contour>
  </outline>
</glyph>
<glyph name="ubreve.color3" format="2">
  <advance width="600"/>
  <unicode hex="016D"/>
  <outline>
    <contour>
      <point x="500" y="720" type="line"/>
      <point x="636" y="720" type="line"/>
      <point x="673" y="779" type="line"/>
      <point x="673" y="780" type="line"/>
      <point x="537" y="780" type="line"/>
    </contour>
  </outline>
</glyph>
<glyph name="uhungarumlaut.color4" format="2">
  <advance width="600"/>
  <unicode hex="0171"/>
  <outline>
    <contour>
      <point x="299" y="590" type="line"/>
      <point x="395" y="590" type="line"/>
      <point x="510" y="819" type="line"/>
      <point x="510" y="820" type="line"/>
      <point x="334" y="820" type="line"/>
    </contour>
  </outline>
</glyph>
<glyph name="uhungarumlaut" format="2">
  <advance width="887"/>
  <unicode hex="0171"/>
  <anchor x="442" y="0" name="bottom"/>
  <anchor x="812" y="530" name="horn"/>
  <anchor x="462" y="530" name="top"/>
  <outline>
    <contour>
      <point x="598" y="0" type="line"/>
      <point x="599" y="0" type="line"/>
      <point x="852" y="0" type="line"/>
      <point x="852" y="530" type="line"/>
      <point x="598" y="530" type="line"/>
    </contour>
    <contour>
      <point x="142" y="0" type="line"/>
      <point x="598" y="0" type="line"/>
      <point x="598" y="244" type="line"/>
      <point x="35" y="244" type="line"/>
      <point x="35" y="243" type="line"/>
    </contour>
    <contour>
      <point x="35" y="244" type="line"/>
      <point x="289" y="244" type="line"/>
      <point x="289" y="536" type="line"/>
      <point x="288" y="536" type="line"/>
      <point x="35" y="489" type="line"/>
    </contour>
    <contour>
      <point x="499" y="590" type="line"/>
      <point x="595" y="590" type="line"/>
      <point x="710" y="819" type="line"/>
      <point x="710" y="820" type="line"/>
      <point x="534" y="820" type="line"/>
    </contour>
    <contour>
      <point x="299" y="590" type="line"/>
      <point x="395" y="590" type="line"/>
      <point x="510" y="819" type="line"/>
      <point x="510" y="820" type="line"/>
      <point x="334" y="820" type="line"/>
    </contour>
  </outline>
</glyph>
<glyph name="Uogonek.color3" format="2">
  <advance width="600"/>
  <unicode hex="0172"/>
  <outline>
    <contour>
      <point x="315" y="-86" type="line"/>
      <point x="473" y="-86" type="line"/>
      <point x="557" y="-1" type="line"/>
      <point x="557" y="0" type="line"/>
      <point x="372" y="0" type="line"/>
      <point x="315" y="-85" type="line"/>
    </contour>
  </outline>
</glyph>
<glyph name="Wcircumflex.color4" format="2">
  <advance width="600"/>
  <unicode hex="0174"/>
  <outline>
    <contour>
      <point x="756" y="760" type="line"/>
      <point x="933" y="760" type="line"/>
      <point x="933" y="761" type="line"/>
      <point x="765" y="900" type="line"/>
      <point x="612" y="867" type="line"/>
    </contour>
  </outline>
</glyph>
<glyph name="wcircumflex.color0" format="2">
  <advance width="600"/>
  <unicode hex="0175"/>
  <outline>
    <contour>
      <point x="1021" y="1" type="line"/>
      <point x="1022" y="1" type="line"/>
      <point x="1275" y="205" type="line"/>
      <point x="1275" y="531" type="line"/>
      <point x="1021" y="531" type="line"/>
    </contour>
  </outline>
</glyph>
<glyph name="wcircumflex.color5" format="2">
  <advance width="600"/>
  <unicode hex="0175"/>
  <outline>
    <contour>
      <point x="684" y="592" type="line"/>
      <point x="861" y="592" type="line"/>
      <point x="861" y="593" type="line"/>
      <point x="716" y="770" type="line"/>
      <point x="573" y="739" type="line"/>
    </contour>
  </outline>
</glyph>
<glyph name="wcircumflex.color6" format="2">
  <advance width="600"/>
  <unicode hex="0175"/>
  <outline>
    <contour>
      <point x="395" y="592" type="line"/>
      <point x="569" y="592" type="line"/>
      <point x="716" y="770" type="line"/>
      <point x="542" y="770" type="line"/>
      <point x="395" y="593" type="line"/>
    </contour>
  </outline>
</glyph>
<glyph name="Ycircumflex.color4" format="2">
  <advance width="600"/>
  <unicode hex="0176"/>
  <outline>
    <contour>
      <point x="197" y="760" type="line"/>
      <point x="371" y="760" type="line"/>
      <point x="535" y="900" type="line"/>
      <point x="351" y="900" type="line"/>
      <point x="197" y="761" type="line"/>
    </contour>
  </outline>
</glyph>
<glyph name="ycircumflex.color4" format="2">
  <advance width="600"/>
  <unicode hex="0177"/>
  <outline>
    <contour>
      <point x="485" y="592" type="line"/>
      <point x="662" y="592" type="line"/>
      <point x="662" y="593" type="line"/>
      <point x="517" y="770" type="line"/>
      <point x="374" y="739" type="line"/>
    </contour>
  </outline>
</glyph>
<glyph name="ycircumflex" format="2">
  <advance width="859"/>
  <unicode hex="0177"/>
  <anchor x="422" y="-200" name="bottom"/>
  <anchor x="444" y="750" name="top"/>
  <outline>
    <contour>
      <point x="570" y="-206" type="line"/>
      <point x="571" y="-206" type="line"/>
      <point x="824" y="-104" type="line"/>
      <point x="824" y="530" type="line"/>
      <point x="570" y="530" type="line"/>
    </contour>
    <contour>
      <point x="137" y="-206" type="line"/>
      <point x="570" y="-206" type="line"/>
      <point x="570" y="-20" type="line"/>
      <point x="35" y="-20" type="line"/>
      <point x="35" y="-21" type="line"/>
    </contour>
    <contour>
      <point x="142" y="22" type="line"/>
      <point x="570" y="22" type="line"/>
      <point x="570" y="266" type="line"/>
      <point x="35" y="266" type="line"/>
      <point x="35" y="265" type="line"/>
    </contour>
    <contour>
      <point x="35" y="266" type="line"/>
      <point x="289" y="266" type="line"/>
      <point x="289" y="536" type="line"/>
      <point x="288" y="536" type="line"/>
      <point x="35" y="489" type="line"/>
    </contour>
    <contour>
      <point x="485" y="592" type="line"/>
      <point x="662" y="592" type="line"/>
      <point x="662" y="593" type="line"/>
      <point x="517" y="770" type="line"/>
      <point x="374" y="739" type="line"/>
    </contour>
    <contour>
      <point x="196" y="592" type="line"/>
      <point x="370" y="592" type="line"/>
      <point x="517" y="770" type="line"/>
      <point x="343" y="770" type="line"/>
      <point x="196" y="593" type="line"/>
    </contour>
  </outline>
</glyph>
<glyph name="zdotaccent.color1" format="2">
  <advance width="600"/>
  <unicode hex="017C"/>
  <outline>
    <contour>
      <point x="393" y="149" type="line"/>
      <point x="763" y="325" type="line"/>
      <point x="673" y="530" type="line"/>
      <point x="30" y="220" type="line"/>
      <point x="30" y="219" type="line"/>
    </contour>
  </outline>
</glyph>
<glyph name="Zcaron.color3" format="2">
  <advance width="600"/>
  <unicode hex="017D"/>
  <outline>
    <contour>
      <point x="302" y="760" type="line"/>
      <point x="455" y="793" type="line"/>
      <point x="311" y="900" type="line"/>
      <point x="134" y="900" type="line"/>
      <point x="134" y="899" type="line"/>
    </contour>
  </outline>
</glyph>
<glyph name="Zcaron.color4" format="2">
  <advance width="600"/>
  <unicode hex="017D"/>
  <outline>
    <contour>
      <point x="302" y="760" type="line"/>
      <point x="476" y="760" type="line"/>
      <point x="640" y="899" type="line"/>
      <point x="640" y="900" type="line"/>
      <point x="466" y="900" type="line"/>
    </contour>
  </outline>
</glyph>
<glyph name="zcaron.color1" format="2">
  <advance width="600"/>
  <unicode hex="017E"/>
  <outline>
    <contour>
      <point x="393" y="149" type="line"/>
      <point x="763" y="325" type="line"/>
      <point x="673" y="530" type="line"/>
      <point x="30" y="220" type="line"/>
      <point x="30" y="219" type="line"/>
    </contour>
  </outline>
</glyph>
<glyph name="zcaron" format="2">
  <advance width="793"/>
  <unicode hex="017E"/>
  <anchor x="417" y="530" name="top"/>
  <outline>
    <contour>
      <point x="36" y="311" type="line"/>
      <point x="647" y="311" type="line"/>
      <point x="673" y="530" type="line"/>
      <point x="143" y="530" type="line"/>
      <point x="36" y="312" type="line"/>
    </contour>
    <contour>
      <point x="393" y="149" type="line"/>
      <point x="763" y="325" type="line"/>
      <point x="673" y="530" type="line"/>
      <point x="30" y="220" type="line"/>
      <point x="30" y="219" type="line"/>
    </contour>
    <contour>
      <point x="137" y="0" type="line"/>
      <point x="757" y="0" type="line"/>
      <point x="757" y="219" type="line"/>
      <point x="30" y="219" type="line"/>
    </contour>
    <contour>
      <point x="316" y="582" type="line"/>
      <point x="459" y="613" type="line"/>
      <point x="345" y="750" type="line"/>
      <point x="168" y="750" type="line"/>
      <point x="168" y="749" type="line"/>
    </contour>
    <contour>
      <point x="316" y="582" type="line"/>
      <point x="480" y="582" type="line"/>
      <point x="634" y="749" type="line"/>
      <point x="634" y="750" type="line"/>
      <point x="460" y="750" type="line"/>
    </contour>
  </outline>
</glyph>
<glyph name="florin.color4" format="2">
  <advance width="600"/>
  <unicode hex="0192"/>
  <outline>
    <contour>
      <point x="220" y="173" type="line"/>
      <point x="733" y="173" type="line"/>
      <point x="733" y="417" type="line"/>
      <point x="473" y="417" type="line"/>
    </contour>
  </outline>
</glyph>
<glyph name="Uhorn.color2" format="2">
  <advance width="600"/>
  <unicode hex="01AF"/>
  <outline>
    <contour>
      <point x="35" y="244" type="line"/>
      <point x="289" y="244" type="line"/>
      <point x="289" y="730" type="line"/>
      <point x="35" y="730" type="line"/>
    </contour>
  </outline>
</glyph>
<glyph name="DZcaron.color7" format="2">
  <advance width="600"/>
  <unicode hex="01C4"/>
  <outline>
    <contour>
      <point x="1249" y="760" type="line"/>
      <point x="1402" y="793" type="line"/>
      <point x="1258" y="900" type="line"/>
      <point x="1081" y="900" type="line"/>
      <point x="1081" y="899" type="line"/>
    </contour>
  </outline>
</glyph>
<glyph name="DZcaron.color8" format="2">
  <advance width="600"/>
  <unicode hex="01C4"/>
  <outline>
    <contour>
      <point x="1249" y="760" type="line"/>
      <point x="1423" y="760" type="line"/>
      <point x="1587" y="899" type="line"/>
      <point x="1587" y="900" type="line"/>
      <point x="1413" y="900" type="line"/>
    </contour>
  </outline>
</glyph>
<glyph name="Dzcaron.color5" format="2">
  <advance width="600"/>
  <unicode hex="01C5"/>
  <outline>
    <contour>
      <point x="1340" y="149" type="line"/>
      <point x="1710" y="325" type="line"/>
      <point x="1620" y="530" type="line"/>
      <point x="977" y="220" type="line"/>
      <point x="977" y="219" type="line"/>
    </contour>
  </outline>
</glyph>
<glyph name="Dzcaron.color7" format="2">
  <advance width="600"/>
  <unicode hex="01C5"/>
  <outline>
    <contour>
      <point x="1263" y="582" type="line"/>
      <point x="1406" y="613" type="line"/>
      <point x="1292" y="750" type="line"/>
      <point x="1115" y="750" type="line"/>
      <point x="1115" y="749" type="line"/>
    </contour>
  </outline>
</glyph>
<glyph name="dzcaron.color2" format="2">
  <advance width="600"/>
  <unicode hex="01C6"/>
  <outline>
    <contour>
      <point x="147" y="0" type="line"/>
      <point x="609" y="0" type="line"/>
      <point x="609" y="244" type="line"/>
      <point x="45" y="244" type="line"/>
      <point x="45" y="243" type="line"/>
    </contour>
  </outline>
</glyph>
<glyph name="LJ.color0" format="2">
  <advance width="600"/>
  <unicode hex="01C7"/>
  <outline>
    <contour>
      <point x="237" y="1" type="line"/>
      <point x="768" y="1" type="line"/>
      <point x="768" y="245" type="line"/>
      <point x="35" y="245" type="line"/>
      <point x="35" y="244" type="line"/>
    </contour>
  </outline>
</glyph>
<glyph name="Lj" format="2">
  <advance width="1134"/>
  <unicode hex="01C8"/>
  <anchor x="445" y="0" name="bottom"/>
  <anchor x="173" y="730" name="top"/>
  <outline>
    <contour>
      <point x="237" y="1" type="line"/>
      <point x="768" y="1" type="line"/>
      <point x="768" y="245" type="line"/>
      <point x="35" y="245" type="line"/>
      <point x="35" y="244" type="line"/>
    </contour>
    <contour>
      <point x="35" y="245" type="line"/>
      <point x="289" y="245" type="line"/>
      <point x="289" y="730" type="line"/>
      <point x="35" y="730" type="line"/>
    </contour>
    <contour>
      <point x="855" y="-206" type="line"/>
      <point x="856" y="-206" type="line"/>
      <point x="1089" y="-99" type="line"/>
      <point x="1089" y="503" type="line"/>
      <point x="1088" y="503" type="line"/>
      <point x="855" y="393" type="line"/>
    </contour>
    <contour>
      <point x="643" y="-206" type="line"/>
      <point x="855" y="-206" type="line"/>
      <point x="855" y="-26" type="line"/>
      <point x="643" y="-26" type="line"/>
    </contour>
    <contour>
      <point x="855" y="469" type="line"/>
      <point x="856" y="469" type="line"/>
      <point x="1089" y="576" type="line"/>
      <point x="1089" y="682" type="line"/>
      <point x="855" y="682" type="line"/>
    </contour>
  </outline>
</glyph>
<glyph name="lj.color2" format="2">
  <advance width="600"/>
  <unicode hex="01C9"/>
  <outline>
    <contour>
      <point x="598" y="-206" type="line"/>
      <point x="599" y="-206" type="line"/>
      <point x="832" y="-99" type="line"/>
      <point x="832" y="503" type="line"/>
      <point x="831" y="503" type="line"/>
      <point x="598" y="393" type="line"/>
    </contour>
  </outline>
</glyph>
<glyph name="Nj" format="2">
  <advance width="1238"/>
  <unicode hex="01CB"/>
  <anchor x="445" y="0" name="bottom"/>
  <anchor x="456" y="730" name="top"/>
  <outline>
    <contour>
      <point x="862" y="172" type="line"/>
      <point x="862" y="730" type="line"/>
      <point x="608" y="730" type="line"/>
      <point x="608" y="397" type="line"/>
    </contour>
    <contour>
      <point x="35" y="0" type="line"/>
      <point x="289" y="0" type="line"/>
      <point x="289" y="345" type="line"/>
      <point x="35" y="571" type="line"/>
    </contour>
    <contour>
      <point x="682" y="-6" type="line"/>
      <point x="683" y="-6" type="line"/>
      <point x="862" y="171" type="line"/>
      <point x="862" y="172" type="line"/>
      <point x="228" y="736" type="line"/>
      <point x="227" y="736" type="line"/>
      <point x="35" y="572" type="line"/>
      <point x="35" y="571" type="line"/>
    </contour>
    <contour>
      <point x="959" y="-206" type="line"/>
      <point x="960" y="-206" type="line"/>
      <point x="1193" y="-99" type="line"/>
      <point x="1193" y="503" type="line"/>
      <point x="1192" y="503" type="line"/>
      <point x="959" y="393" type="line"/>
    </contour>
    <contour>
      <point x="747" y="-206" type="line"/>
      <point x="959" y="-206" type="line"/>
      <point x="959" y="-26" type="line"/>
      <point x="747" y="-26" type="line"/>
    </contour>
    <contour>
      <point x="959" y="469" type="line"/>
      <point x="960" y="469" type="line"/>
      <point x="1193" y="576" type="line"/>
      <point x="1193" y="682" type="line"/>
      <point x="959" y="682" type="line"/>
    </contour>
  </outline>
</glyph>
<glyph name="nj" format="2">
  <advance width="1238"/>
  <unicode hex="01CC"/>
  <anchor x="445" y="0" name="bottom"/>
  <anchor x="466" y="530" name="top"/>
  <outline>
    <contour>
      <point x="35" y="0" type="line"/>
      <point x="289" y="0" type="line"/>
      <point x="289" y="530" type="line"/>
      <point x="288" y="530" type="line"/>
      <point x="35" y="423" type="line"/>
    </contour>
    <contour>
      <point x="598" y="-6" type="line"/>
      <point x="599" y="-6" type="line"/>
      <point x="852" y="41" type="line"/>
      <point x="852" y="286" type="line"/>
      <point x="598" y="286" type="line"/>
    </contour>
    <contour>
      <point x="289" y="286" type="line"/>
      <point x="852" y="286" type="line"/>
      <point x="852" y="287" type="line"/>
      <point x="745" y="530" type="line"/>
      <point x="289" y="530" type="line"/>
    </contour>
    <contour>
      <point x="959" y="-206" type="line"/>
      <point x="960" y="-206" type="line"/>
      <point x="1193" y="-99" type="line"/>
      <point x="1193" y="503" type="line"/>
      <point x="1192" y="503" type="line"/>
      <point x="959" y="393" type="line"/>
    </contour>
    <contour>
      <point x="747" y="-206" type="line"/>
      <point x="959" y="-206" type="line"/>
      <point x="959" y="-26" type="line"/>
      <point x="747" y="-26" type="line"/>
    </contour>
    <contour>
      <point x="959" y="469" type="line"/>
      <point x="960" y="469" type="line"/>
      <point x="1193" y="576" type="line"/>
      <point x="1193" y="682" type="line"/>
      <point x="959" y="682" type="line"/>
    </contour>
  </outline>
</glyph>
<glyph name="gcaron.color5" format="2">
  <advance width="600"/>
  <unicode hex="01E7"/>
  <outline>
    <contour>
      <point x="441" y="582" type="line"/>
      <point x="584" y="613" type="line"/>
      <point x="470" y="750" type="line"/>
      <point x="293" y="750" type="line"/>
      <point x="293" y="749" type="line"/>
    </contour>
  </outline>
</glyph>
<glyph name="gcaron.color6" format="2">
  <advance width="600"/>
  <unicode hex="01E7"/>
  <outline>
    <contour>
      <point x="441" y="582" type="line"/>
      <point x="605" y="582" type="line"/>
      <point x="759" y="749" type="line"/>
      <point x="759" y="750" type="line"/>
      <point x="585" y="750" type="line"/>
    </contour>
  </outline>
</glyph>
<glyph name="gcaron" format="2">
  <advance width="910"/>
  <unicode hex="01E7"/>
  <anchor x="542" y="530" name="top"/>
  <outline>
    <contour>
      <point x="289" y="286" type="line"/>
      <point x="824" y="286" type="line"/>
      <point x="910" y="529" type="line"/>
      <point x="910" y="530" type="line"/>
      <point x="289" y="530" type="line"/>
    </contour>
    <contour>
      <point x="137" y="-206" type="line"/>
      <point x="570" y="-206" type="line"/>
      <point x="570" y="-20" type="line"/>
      <point x="35" y="-20" type="line"/>
      <point x="35" y="-21" type="line"/>
    </contour>
    <contour>
      <point x="137" y="22" type="line"/>
      <point x="570" y="22" type="line"/>
      <point x="570" y="266" type="line"/>
      <point x="35" y="266" type="line"/>
      <point x="35" y="265" type="line"/>
    </contour>
    <contour>
      <point x="35" y="266" type="line"/>
      <point x="289" y="266" type="line"/>
      <point x="289" y="530" type="line"/>
      <point x="288" y="530" type="line"/>
      <point x="35" y="423" type="line"/>
    </contour>
    <contour>
      <point x="570" y="-206" type="line"/>
      <point x="571" y="-206" type="line"/>
      <point x="824" y="-104" type="line"/>
      <point x="824" y="286" type="line"/>
      <point x="570" y="286" type="line"/>
    </contour>
    <contour>
      <point x="441" y="582" type="line"/>
      <point x="584" y="613" type="line"/>
      <point x="470" y="750" type="line"/>
      <point x="293" y="750" type="line"/>
      <point x="293" y="749" type="line"/>
    </contour>
    <contour>
      <point x="441" y="582" type="line"/>
      <point x="605" y="582" type="line"/>
      <point x="759" y="749" type="line"/>
      <point x="759" y="750" type="line"/>
      <point x="585" y="750" type="line"/>
    </contour>
  </outline>
</glyph>
<glyph name="Oogonek.color4" format="2">
  <advance width="600"/>
  <unicode hex="01EA"/>
  <outline>
    <contour>
      <point x="325" y="-86" type="line"/>
      <point x="483" y="-86" type="line"/>
      <point x="567" y="-1" type="line"/>
      <point x="567" y="0" type="line"/>
      <point x="382" y="0" type="line"/>
      <point x="325" y="-85" type="line"/>
    </contour>
  </outline>
</glyph>
<glyph name="Oogonek.color6" format="2">
  <advance width="600"/>
  <unicode hex="01EA"/>
  <outline>
    <contour>
      <point x="483" y="-240" type="line"/>
      <point x="591" y="-240" type="line"/>
      <point x="651" y="-129" type="line"/>
      <point x="651" y="-128" type="line"/>
      <point x="483" y="-128" type="line"/>
    </contour>
  </outline>
</glyph>
<glyph name="oogonek.color4" format="2">
  <advance width="600"/>
  <unicode hex="01EB"/>
  <outline>
    <contour>
      <point x="335" y="-86" type="line"/>
      <point x="493" y="-86" type="line"/>
      <point x="577" y="-1" type="line"/>
      <point x="577" y="0" type="line"/>
      <point x="392" y="0" type="line"/>
      <point x="335" y="-85" type="line"/>
    </contour>
  </outline>
</glyph>
<glyph name="oogonek.color5" format="2">
  <advance width="600"/>
  <unicode hex="01EB"/>
  <outline>
    <contour>
      <point x="492" y="-240" type="line"/>
      <point x="493" y="-240" type="line"/>
      <point x="493" y="-86" type="line"/>
      <point x="335" y="-86" type="line"/>
      <point x="335" y="-184" type="line"/>
    </contour>
  </outline>
</glyph>
<glyph name="Aringacute.color2" format="2">
  <advance width="600"/>
  <unicode hex="01FA"/>
  <outline>
    <contour>
      <point x="304" y="818" type="line"/>
      <point x="385" y="818" type="line"/>
      <point x="385" y="914" type="line"/>
      <point x="384" y="914" type="line"/>
      <point x="304" y="852" type="line"/>
    </contour>
  </outline>
</glyph>
<glyph name="aringacute" format="2">
  <advance width="907"/>
  <unicode hex="01FB"/>
  <anchor x="431" y="0" name="bottom"/>
  <anchor x="492" y="530" name="top"/>
  <outline>
    <contour>
      <point x="380" y="676" type="line"/>
      <point x="610" y="676" type="line"/>
      <point x="610" y="677" type="line"/>
      <point x="550" y="760" type="line"/>
      <point x="380" y="760" type="line"/>
    </contour>
    <contour>
      <point x="279" y="286" type="line"/>
      <point x="862" y="286" type="line"/>
      <point x="862" y="287" type="line"/>
      <point x="755" y="530" type="line"/>
      <point x="279" y="530" type="line"/>
    </contour>
    <contour>
      <point x="132" y="0" type="line"/>
      <point x="608" y="0" type="line"/>
      <point x="608" y="244" type="line"/>
      <point x="25" y="244" type="line"/>
      <point x="25" y="243" type="line"/>
    </contour>
    <contour>
      <point x="25" y="244" type="line"/>
      <point x="279" y="244" type="line"/>
      <point x="279" y="530" type="line"/>
      <point x="278" y="530" type="line"/>
      <point x="25" y="423" type="line"/>
    </contour>
    <contour>
      <point x="608" y="0" type="line"/>
      <point x="862" y="0" type="line"/>
      <point x="862" y="286" type="line"/>
      <point x="608" y="286" type="line"/>
    </contour>
    <contour>
      <point x="344" y="572" type="line"/>
      <point x="514" y="572" type="line"/>
      <point x="514" y="654" type="line"/>
      <point x="284" y="654" type="line"/>
      <point x="284" y="653" type="line"/>
    </contour>
    <contour>
      <point x="284" y="654" type="line"/>
      <point x="380" y="654" type="line"/>
      <point x="380" y="760" type="line"/>
      <point x="379" y="760" type="line"/>
      <point x="284" y="698" type="line"/>
    </contour>
    <contour>
      <point x="514" y="572" type="line"/>
      <point x="515" y="572" type="line"/>
      <point x="610" y="628" type="line"/>
      <point x="610" y="676" type="line"/>
      <point x="514" y="676" type="line"/>
    </contour>
    <contour>
      <point x="413" y="790" type="line"/>
      <point x="499" y="790" type="line"/>
      <point x="584" y="899" type="line"/>
      <point x="584" y="900" type="line"/>
      <point x="428" y="900" type="line"/>
    </contour>
  </outline>
</glyph>
<glyph name="AEacute.color3" format="2">
  <advance width="600"/>
  <unicode hex="01FC"/>
  <outline>
    <contour>
      <point x="598" y="244" type="line"/>
      <point x="852" y="244" type="line"/>
      <point x="852" y="486" type="line"/>
      <point x="598" y="486" type="line"/>
    </contour>
  </outline>
</glyph>
<glyph name="AEacute.color4" format="2">
  <advance width="600"/>
  <unicode hex="01FC"/>
  <outline>
    <contour>
      <point x="289" y="486" type="line"/>
      <point x="852" y="486" type="line"/>
      <point x="852" y="487" type="line"/>
      <point x="650" y="730" type="line"/>
      <point x="289" y="730" type="line"/>
    </contour>
  </outline>
</glyph>
<glyph name="AEacute.color6" format="2">
  <advance width="600"/>
  <unicode hex="01FC"/>
  <outline>
    <contour>
      <point x="852" y="486" type="line"/>
      <point x="1174" y="486" type="line"/>
      <point x="1376" y="729" type="line"/>
      <point x="1376" y="730" type="line"/>
      <point x="650" y="730" type="line"/>
    </contour>
  </outline>
</glyph>
<glyph name="aeacute.color1" format="2">
  <advance width="600"/>
  <unicode hex="01FD"/>
  <outline>
    <contour>
      <point x="608" y="330" type="line"/>
      <point x="1455" y="330" type="line"/>
      <point x="1455" y="331" type="line"/>
      <point x="1348" y="530" type="line"/>
      <point x="862" y="530" type="line"/>
    </contour>
  </outline>
</glyph>
<glyph name="aeacute.color6" format="2">
  <advance width="600"/>
  <unicode hex="01FD"/>
  <outline>
    <contour>
      <point x="862" y="220" type="line"/>
      <point x="1201" y="221" type="line"/>
      <point x="1201" y="311" type="line"/>
      <point x="851" y="311" type="line"/>
    </contour>
  </outline>
</glyph>
<glyph name="Oslashacute.color0" format="2">
  <advance width="600"/>
  <unicode hex="01FE"/>
  <outline>
    <contour>
      <point x="42" y="0" type="line"/>
      <point x="155" y="0" type="line"/>
      <point x="867" y="729" type="line"/>
      <point x="867" y="730" type="line"/>
      <point x="754" y="730" type="line"/>
      <point x="42" y="2" type="line"/>
    </contour>
  </outline>
</glyph>
<glyph name="Oslashacute.color1" format="2">
  <advance width="600"/>
  <unicode hex="01FE"/>
  <outline>
    <contour>
      <point x="227" y="0" type="line"/>
      <point x="628" y="0" type="line"/>
      <point x="628" y="244" type="line"/>
      <point x="25" y="244" type="line"/>
      <point x="25" y="243" type="line"/>
    </contour>
  </outline>
</glyph>
<glyph name="Oslashacute.color5" format="2">
  <advance width="600"/>
  <unicode hex="01FE"/>
  <outline>
    <contour>
      <point x="374" y="760" type="line"/>
      <point x="540" y="760" type="line"/>
      <point x="655" y="899" type="line"/>
      <point x="655" y="900" type="line"/>
      <point x="409" y="900" type="line"/>
    </contour>
  </outline>
</glyph>
<glyph name="Adblgrave.color5" format="2">
  <advance width="600"/>
  <unicode hex="0200"/>
  <outline>
    <contour>
      <point x="318" y="760" type="line"/>
      <point x="444" y="760" type="line"/>
      <point x="409" y="900" type="line"/>
      <point x="203" y="900" type="line"/>
      <point x="203" y="899" type="line"/>
    </contour>
  </outline>
</glyph>
<glyph name="Adblgrave" format="2">
  <advance width="927"/>
  <unicode hex="0200"/>
  <anchor x="462" y="0" name="bottom"/>
  <anchor x="486" y="730" name="top"/>
  <outline>
    <contour>
      <point x="35" y="0" type="line"/>
      <point x="289" y="0" type="line"/>
      <point x="289" y="730" type="line"/>
      <point x="288" y="730" type="line"/>
      <point x="35" y="523" type="line"/>
    </contour>
    <contour>
      <point x="289" y="173" type="line"/>
      <point x="638" y="173" type="line"/>
      <point x="638" y="417" type="line"/>
      <point x="289" y="417" type="line"/>
    </contour>
    <contour>
      <point x="638" y="0" type="line"/>
      <point x="892" y="0" type="line"/>
      <point x="892" y="486" type="line"/>
      <point x="638" y="486" type="line"/>
    </contour>
    <contour>
      <point x="289" y="486" type="line"/>
      <point x="892" y="486" type="line"/>
      <point x="892" y="487" type="line"/>
      <point x="690" y="730" type="line"/>
      <point x="289" y="730" type="line"/>
    </contour>
    <contour>
      <point x="548" y="760" type="line"/>
      <point x="674" y="760" type="line"/>
      <point x="639" y="900" type="line"/>
      <point x="433" y="900" type="line"/>
      <point x="433" y="899" type="line"/>
    </contour>
    <contour>
      <point x="318" y="760" type="line"/>
      <point x="444" y="760" type="line"/>
      <point x="409" y="900" type="line"/>
      <point x="203" y="900" type="line"/>
      <point x="203" y="899" type="line"/>
    </contour>
  </outline>
</glyph>
<glyph name="adblgrave.color1" format="2">
  <advance width="600"/>
  <unicode hex="0201"/>
  <outline>
    <contour>
      <point x="132" y="0" type="line"/>
      <point x="608" y="0" type="line"/>
      <point x="608" y="244" type="line"/>
      <point x="25" y="244" type="line"/>
      <point x="25" y="243" type="line"/>
    </contour>
  </outline>
</glyph>
<glyph name="adblgrave.color5" format="2">
  <advance width="600"/>
  <unicode hex="0201"/>
  <outline>
    <contour>
      <point x="364" y="590" type="line"/>
      <point x="460" y="590" type="line"/>
      <point x="425" y="820" type="line"/>
      <point x="249" y="820" type="line"/>
      <point x="249" y="819" type="line"/>
    </contour>
  </outline>
</glyph>
<glyph name="Ainvertedbreve.color6" format="2">
  <advance width="600"/>
  <unicode hex="0202"/>
  <outline>
    <contour>
      <point x="581" y="760" type="line"/>
      <point x="737" y="760" type="line"/>
      <point x="737" y="761" type="line"/>
      <point x="683" y="820" type="line"/>
      <point x="524" y="820" type="line"/>
    </contour>
  </outline>
</glyph>
<glyph name="edblgrave.color5" format="2">
  <advance width="600"/>
  <unicode hex="0205"/>
  <outline>
    <contour>
      <point x="544" y="590" type="line"/>
      <point x="640" y="590" type="line"/>
      <point x="605" y="820" type="line"/>
      <point x="429" y="820" type="line"/>
      <point x="429" y="819" type="line"/>
    </contour>
  </outline>
</glyph>
<glyph name="Einvertedbreve.color6" format="2">
  <advance width="600"/>
  <unicode hex="0206"/>
  <outline>
    <contour>
      <point x="551" y="760" type="line"/>
      <point x="707" y="760" type="line"/>
      <point x="707" y="761" type="line"/>
      <point x="653" y="820" type="line"/>
      <point x="494" y="820" type="line"/>
    </contour>
  </outline>
</glyph>
<glyph name="einvertedbreve" format="2">
  <advance width="902"/>
  <unicode hex="0207"/>
  <anchor x="411" y="0" name="bottom"/>
  <anchor x="472" y="530" name="top"/>
  <outline>
    <contour>
      <point x="132" y="0" type="line"/>
      <point x="765" y="0" type="line"/>
      <point x="872" y="199" type="line"/>
      <point x="872" y="200" type="line"/>
      <point x="25" y="200" type="line"/>
      <point x="25" y="199" type="line"/>
    </contour>
    <contour>
      <point x="25" y="200" type="line"/>
      <point x="279" y="200" type="line"/>
      <point x="279" y="530" type="line"/>
      <point x="278" y="530" type="line"/>
      <point x="25" y="423" type="line"/>
    </contour>
    <contour>
      <point x="279" y="220" type="line"/>
      <point x="618" y="221" type="line"/>
      <point x="618" y="311" type="line"/>
      <point x="279" y="311" type="line"/>
    </contour>
    <contour>
      <point x="279" y="330" type="line"/>
      <point x="872" y="330" type="line"/>
      <point x="872" y="331" type="line"/>
      <point x="765" y="530" type="line"/>
      <point x="279" y="530" type="line"/>
    </contour>
    <contour>
      <point x="618" y="221" type="line"/>
      <point x="619" y="221" type="line"/>
      <point x="872" y="298" type="line"/>
      <point x="872" y="330" type="line"/>
      <point x="618" y="330" type="line"/>
    </contour>
    <contour>
      <point x="289" y="698" type="line"/>
      <point x="616" y="698" type="line"/>
      <point x="555" y="800" type="line"/>
      <point x="350" y="800" type="line"/>
    </contour>
    <contour>
      <point x="242" y="618" type="line"/>
      <point x="368" y="618" type="line"/>
      <point x="415" y="698" type="line"/>
      <point x="289" y="698" type="line"/>
      <point x="242" y="620" type="line"/>
    </contour>
    <contour>
      <point x="547" y="618" type="line"/>
      <point x="663" y="618" type="line"/>
      <point x="663" y="619" type="line"/>
      <point x="616" y="698" type="line"/>
      <point x="500" y="698" type="line"/>
    </contour>
  </outline>
</glyph>
<glyph name="idblgrave.color1" format="2">
  <advance width="600"/>
  <unicode hex="0209"/>
  <outline>
    <contour>
      <point x="54" y="0" type="line"/>
      <point x="308" y="0" type="line"/>
      <point x="308" y="530" type="line"/>
      <point x="307" y="530" type="line"/>
      <point x="54" y="530" type="line"/>
    </contour>
  </outline>
</glyph>
<glyph name="idblgrave" format="2">
  <advance width="366"/>
  <unicode hex="0209"/>
  <outline>
    <contour>
      <point x="245" y="590" type="line"/>
      <point x="346" y="590" type="line"/>
      <point x="301" y="820" type="line"/>
      <point x="140" y="820" type="line"/>
      <point x="140" y="819" type="line"/>
    </contour>
    <contour>
      <point x="75" y="590" type="line"/>
      <point x="176" y="590" type="line"/>
      <point x="131" y="820" type="line"/>
      <point x="-30" y="820" type="line"/>
      <point x="-30" y="819" type="line"/>
    </contour>
    <component base="idotless" xOffset="9"/>
  </outline>
</glyph>
<glyph name="Iinvertedbreve.color1" format="2">
  <advance width="600"/>
  <unicode hex="020A"/>
  <outline>
    <contour>
      <point x="25" y="0" type="line"/>
      <point x="246" y="0" type="line"/>
      <point x="246" y="244" type="line"/>
      <point x="25" y="244" type="line"/>
    </contour>
  </outline>
</glyph>
<glyph name="iinvertedbreve.color3" format="2">
  <advance width="600"/>
  <unicode hex="020B"/>
  <outline>
    <contour>
      <point x="293" y="598" type="line"/>
      <point x="419" y="598" type="line"/>
      <point x="419" y="599" type="line"/>
      <point x="372" y="678" type="line"/>
      <point x="246" y="678" type="line"/>
    </contour>
  </outline>
</glyph>
<glyph name="iinvertedbreve" format="2">
  <advance width="367"/>
  <unicode hex="020B"/>
  <outline>
    <contour>
      <point x="55" y="678" type="line"/>
      <point x="372" y="678" type="line"/>
      <point x="311" y="780" type="line"/>
      <point x="116" y="780" type="line"/>
    </contour>
    <contour>
      <point x="8" y="598" type="line"/>
      <point x="144" y="598" type="line"/>
      <point x="191" y="678" type="line"/>
      <point x="55" y="678" type="line"/>
      <point x="8" y="600" type="line"/>
    </contour>
    <contour>
      <point x="293" y="598" type="line"/>
      <point x="419" y="598" type="line"/>
      <point x="419" y="599" type="line"/>
      <point x="372" y="678" type="line"/>
      <point x="246" y="678" type="line"/>
    </contour>
    <component base="idotless" xOffset="41"/>
  </outline>
</glyph>
<glyph name="Odblgrave.color4" format="2">
  <advance width="600"/>
  <unicode hex="020C"/>
  <outline>
    <contour>
      <point x="538" y="760" type="line"/>
      <point x="664" y="760" type="line"/>
      <point x="629" y="900" type="line"/>
      <point x="423" y="900" type="line"/>
      <point x="423" y="899" type="line"/>
    </contour>
  </outline>
</glyph>
<glyph name="Odblgrave" format="2">
  <advance width="907"/>
  <unicode hex="020C"/>
  <anchor x="452" y="0" name="bottom"/>
  <anchor x="680" y="730" name="horn"/>
  <anchor x="476" y="730" name="top"/>
  <outline>
    <contour>
      <point x="279" y="486" type="line"/>
      <point x="882" y="486" type="line"/>
      <point x="882" y="487" type="line"/>
      <point x="680" y="730" type="line"/>
      <point x="279" y="730" type="line"/>
    </contour>
    <contour>
      <point x="227" y="0" type="line"/>
      <point x="628" y="0" type="line"/>
      <point x="628" y="244" type="line"/>
      <point x="25" y="244" type="line"/>
      <point x="25" y="243" type="line"/>
    </contour>
    <contour>
      <point x="25" y="244" type="line"/>
      <point x="279" y="244" type="line"/>
      <point x="279" y="730" type="line"/>
      <point x="278" y="730" type="line"/>
      <point x="25" y="523" type="line"/>
    </contour>
    <contour>
      <point x="628" y="0" type="line"/>
      <point x="629" y="0" type="line"/>
      <point x="882" y="197" type="line"/>
      <point x="882" y="486" type="line"/>
      <point x="628" y="486" type="line"/>
    </contour>
    <contour>
      <point x="538" y="760" type="line"/>
      <point x="664" y="760" type="line"/>
      <point x="629" y="900" type="line"/>
      <point x="423" y="900" type="line"/>
      <point x="423" y="899" type="line"/>
    </contour>
    <contour>
      <point x="308" y="760" type="line"/>
      <point x="434" y="760" type="line"/>
      <point x="399" y="900" type="line"/>
      <point x="193" y="900" type="line"/>
      <point x="193" y="899" type="line"/>
    </contour>
  </outline>
</glyph>
<glyph name="odblgrave.color4" format="2">
  <advance width="600"/>
  <unicode hex="020D"/>
  <outline>
    <contour>
      <point x="564" y="590" type="line"/>
      <point x="660" y="590" type="line"/>
      <point x="625" y="820" type="line"/>
      <point x="449" y="820" type="line"/>
      <point x="449" y="819" type="line"/>
    </contour>
  </outline>
</glyph>
<glyph name="odblgrave" format="2">
  <advance width="917"/>
  <unicode hex="020D"/>
  <anchor x="462" y="0" name="bottom"/>
  <anchor x="745" y="530" name="horn"/>
  <anchor x="492" y="530" name="top"/>
  <outline>
    <contour>
      <point x="279" y="286" type="line"/>
      <point x="892" y="286" type="line"/>
      <point x="892" y="287" type="line"/>
      <point x="785" y="530" type="line"/>
      <point x="279" y="530" type="line"/>
    </contour>
    <contour>
      <point x="132" y="0" type="line"/>
      <point x="638" y="0" type="line"/>
      <point x="638" y="244" type="line"/>
      <point x="25" y="244" type="line"/>
      <point x="25" y="243" type="line"/>
    </contour>
    <contour>
      <point x="25" y="244" type="line"/>
      <point x="279" y="244" type="line"/>
      <point x="279" y="530" type="line"/>
      <point x="278" y="530" type="line"/>
      <point x="25" y="423" type="line"/>
    </contour>
    <contour>
      <point x="638" y="0" type="line"/>
      <point x="639" y="0" type="line"/>
      <point x="892" y="107" type="line"/>
      <point x="892" y="286" type="line"/>
      <point x="638" y="286" type="line"/>
    </contour>
    <contour>
      <point x="564" y="590" type="line"/>
      <point x="660" y="590" type="line"/>
      <point x="625" y="820" type="line"/>
      <point x="449" y="820" type="line"/>
      <point x="449" y="819" type="line"/>
    </contour>
    <contour>
      <point x="364" y="590" type="line"/>
      <point x="460" y="590" type="line"/>
      <point x="425" y="820" type="line"/>
      <point x="249" y="820" type="line"/>
      <point x="249" y="819" type="line"/>
    </contour>
  </outline>
</glyph>
<glyph name="rinvertedbreve.color4" format="2">
  <advance width="600"/>
  <unicode hex="0213"/>
  <outline>
    <contour>
      <point x="437" y="618" type="line"/>
      <point x="553" y="618" type="line"/>
      <point x="553" y="619" type="line"/>
      <point x="506" y="698" type="line"/>
      <point x="390" y="698" type="line"/>
    </contour>
  </outline>
</glyph>
<glyph name="Udblgrave.color3" format="2">
  <advance width="600"/>
  <unicode hex="0214"/>
  <outline>
    <contour>
      <point x="538" y="760" type="line"/>
      <point x="664" y="760" type="line"/>
      <point x="629" y="900" type="line"/>
      <point x="423" y="900" type="line"/>
      <point x="423" y="899" type="line"/>
    </contour>
  </outline>
</glyph>
<glyph name="Udblgrave" format="2">
  <advance width="907"/>
  <unicode hex="0214"/>
  <anchor x="442" y="0" name="bottom"/>
  <anchor x="811" y="730" name="horn"/>
  <anchor x="476" y="730" name="top"/>
  <outline>
    <contour>
      <point x="628" y="0" type="line"/>
      <point x="629" y="0" type="line"/>
      <point x="882" y="207" type="line"/>
      <point x="882" y="730" type="line"/>
      <point x="628" y="730" type="line"/>
    </contour>
    <contour>
      <point x="237" y="0" type="line"/>
      <point x="628" y="0" type="line"/>
      <point x="628" y="244" type="line"/>
      <point x="35" y="244" type="line"/>
      <point x="35" y="243" type="line"/>
    </contour>
    <contour>
      <point x="35" y="244" type="line"/>
      <point x="289" y="244" type="line"/>
      <point x="289" y="730" type="line"/>
      <point x="35" y="730" type="line"/>
    </contour>
    <contour>
      <point x="538" y="760" type="line"/>
      <point x="664" y="760" type="line"/>
      <point x="629" y="900" type="line"/>
      <point x="423" y="900" type="line"/>
      <point x="423" y="899" type="line"/>
    </contour>
    <contour>
      <point x="308" y="760" type="line"/>
      <point x="434" y="760" type="line"/>
      <point x="399" y="900" type="line"/>
      <point x="193" y="900" type="line"/>
      <point x="193" y="899" type="line"/>
    </contour>
  </outline>
</glyph>
<glyph name="udblgrave.color4" format="2">
  <advance width="600"/>
  <unicode hex="0215"/>
  <outline>
    <contour>
      <point x="334" y="590" type="line"/>
      <point x="430" y="590" type="line"/>
      <point x="395" y="820" type="line"/>
      <point x="219" y="820" type="line"/>
      <point x="219" y="819" type="line"/>
    </contour>
  </outline>
</glyph>
<glyph name="Scommaaccent.color5" format="2">
  <advance width="600"/>
  <unicode hex="0218"/>
  <outline>
    <contour>
      <point x="542" y="-260" type="line"/>
      <point x="543" y="-260" type="line"/>
      <point x="543" y="-50" type="line"/>
      <point x="351" y="-50" type="line"/>
      <point x="351" y="-158" type="line"/>
    </contour>
  </outline>
</glyph>
<glyph name="Odieresismacron.color4" format="2">
  <advance width="600"/>
  <unicode hex="022A"/>
  <outline>
    <contour>
      <point x="528" y="788" type="line"/>
      <point x="674" y="788" type="line"/>
      <point x="674" y="900" type="line"/>
      <point x="528" y="900" type="line"/>
    </contour>
  </outline>
</glyph>
<glyph name="Odieresismacron.color6" format="2">
  <advance width="600"/>
  <unicode hex="022A"/>
  <outline>
    <contour>
      <point x="278" y="968" type="line"/>
      <point x="674" y="968" type="line"/>
      <point x="674" y="1070" type="line"/>
      <point x="278" y="1070" type="line"/>
    </contour>
  </outline>
</glyph>
<glyph name="Otildemacron.color0" format="2">
  <advance width="600"/>
  <unicode hex="022C"/>
  <outline>
    <contour>
      <point x="259" y="758" type="line"/>
      <point x="379" y="758" type="line"/>
      <point x="379" y="835" type="line"/>
      <point x="259" y="824" type="line"/>
    </contour>
  </outline>
</glyph>
<glyph name="Otildemacron.color2" format="2">
  <advance width="600"/>
  <unicode hex="022C"/>
  <outline>
    <contour>
      <point x="595" y="751" type="line"/>
      <point x="596" y="751" type="line"/>
      <point x="688" y="796" type="line"/>
      <point x="688" y="817" type="line"/>
      <point x="370" y="874" type="line"/>
      <point x="369" y="874" type="line"/>
      <point x="259" y="825" type="line"/>
      <point x="259" y="814" type="line"/>
    </contour>
  </outline>
</glyph>
<glyph name="Otildemacron.color5" format="2">
  <advance width="600"/>
  <unicode hex="022C"/>
  <outline>
    <contour>
      <point x="568" y="777" type="line"/>
      <point x="688" y="796" type="line"/>
      <point x="688" y="870" type="line"/>
      <point x="568" y="870" type="line"/>
    </contour>
  </outline>
</glyph>
<glyph name="Otildemacron" format="2">
  <advance width="907"/>
  <unicode hex="022C"/>
  <anchor x="452" y="0" name="bottom"/>
  <anchor x="680" y="730" name="horn"/>
  <anchor x="476" y="730" name="top"/>
  <outline>
    <contour>
      <point x="279" y="486" type="line"/>
      <point x="882" y="486" type="line"/>
      <point x="882" y="487" type="line"/>
      <point x="680" y="730" type="line"/>
      <point x="279" y="730" type="line"/>
    </contour>
    <contour>
      <point x="227" y="0" type="line"/>
      <point x="628" y="0" type="line"/>
      <point x="628" y="244" type="line"/>
      <point x="25" y="244" type="line"/>
      <point x="25" y="243" type="line"/>
    </contour>
    <contour>
      <point x="25" y="244" type="line"/>
      <point x="279" y="244" type="line"/>
      <point x="279" y="730" type="line"/>
      <point x="278" y="730" type="line"/>
      <point x="25" y="523" type="line"/>
    </contour>
    <contour>
      <point x="628" y="0" type="line"/>
      <point x="629" y="0" type="line"/>
      <point x="882" y="197" type="line"/>
      <point x="882" y="486" type="line"/>
      <point x="628" y="486" type="line"/>
    </contour>
    <contour>
      <point x="259" y="758" type="line"/>
      <point x="379" y="758" type="line"/>
      <point x="379" y="835" type="line"/>
      <point x="259" y="824" type="line"/>
    </contour>
    <contour>
      <point x="568" y="777" type="line"/>
      <point x="688" y="796" type="line"/>
      <point x="688" y="870" type="line"/>
      <point x="568" y="870" type="line"/>
    </contour>
    <contour>
      <point x="595" y="751" type="line"/>
      <point x="596" y="751" type="line"/>
      <point x="688" y="796" type="line"/>
      <point x="688" y="817" type="line"/>
      <point x="370" y="874" type="line"/>
      <point x="369" y="874" type="line"/>
      <point x="259" y="825" type="line"/>
      <point x="259" y="814" type="line"/>
    </contour>
    <contour>
      <point x="259" y="898" type="line"/>
      <point x="688" y="898" type="line"/>
      <point x="688" y="980" type="line"/>
      <point x="259" y="980" type="line"/>
    </contour>
  </outline>
</glyph>
<glyph name="otildemacron.color0" format="2">
  <advance width="600"/>
  <unicode hex="022D"/>
  <outline>
    <contour>
      <point x="260" y="589" type="line"/>
      <point x="380" y="589" type="line"/>
      <point x="380" y="710" type="line"/>
      <point x="260" y="710" type="line"/>
    </contour>
  </outline>
</glyph>
<glyph name="otildemacron.color3" format="2">
  <advance width="600"/>
  <unicode hex="022D"/>
  <outline>
    <contour>
      <point x="257" y="798" type="line"/>
      <point x="663" y="798" type="line"/>
      <point x="663" y="890" type="line"/>
      <point x="257" y="890" type="line"/>
    </contour>
  </outline>
</glyph>
<glyph name="otildemacron.color6" format="2">
  <advance width="600"/>
  <unicode hex="022D"/>
  <outline>
    <contour>
      <point x="547" y="578" type="line"/>
      <point x="548" y="578" type="line"/>
      <point x="658" y="627" type="line"/>
      <point x="658" y="628" type="line"/>
      <point x="371" y="750" type="line"/>
      <point x="370" y="750" type="line"/>
      <point x="260" y="711" type="line"/>
      <point x="260" y="710" type="line"/>
    </contour>
  </outline>
</glyph>
<glyph name="otildemacron" format="2">
  <advance width="877"/>
  <unicode hex="022D"/>
  <outline>
    <contour>
      <point x="260" y="589" type="line"/>
      <point x="380" y="589" type="line"/>
      <point x="380" y="710" type="line"/>
      <point x="260" y="710" type="line"/>
    </contour>
    <contour>
      <point x="539" y="628" type="line"/>
      <point x="658" y="628" type="line"/>
      <point x="658" y="737" type="line"/>
      <point x="539" y="737" type="line"/>
    </contour>
    <contour>
      <point x="547" y="578" type="line"/>
      <point x="548" y="578" type="line"/>
      <point x="658" y="627" type="line"/>
      <point x="658" y="628" type="line"/>
      <point x="371" y="750" type="line"/>
      <point x="370" y="750" type="line"/>
      <point x="260" y="711" type="line"/>
      <point x="260" y="710" type="line"/>
    </contour>
    <contour>
      <point x="257" y="798" type="line"/>
      <point x="663" y="798" type="line"/>
      <point x="663" y="890" type="line"/>
      <point x="257" y="890" type="line"/>
    </contour>
    <component base="o"/>
  </outline>
</glyph>
<glyph name="Odotaccentmacron.color4" format="2">
  <advance width="600"/>
  <unicode hex="0230"/>
  <outline>
    <contour>
      <point x="388" y="768" type="line"/>
      <point x="564" y="768" type="line"/>
      <point x="564" y="900" type="line"/>
      <point x="388" y="900" type="line"/>
    </contour>
  </outline>
</glyph>
<glyph name="jdotless.color0" format="2">
  <advance width="600"/>
  <unicode hex="0237"/>
  <outline>
    <contour>
      <point x="62" y="-206" type="line"/>
      <point x="63" y="-206" type="line"/>
      <point x="296" y="-99" type="line"/>
      <point x="296" y="530" type="line"/>
      <point x="295" y="530" type="line"/>
      <point x="62" y="530" type="line"/>
    </contour>
  </outline>
</glyph>
<glyph name="jdotless" format="2">
  <advance width="301"/>
  <unicode hex="0237"/>
  <anchor x="159" y="530" name="top"/>
  <outline>
    <contour>
      <point x="62" y="-206" type="line"/>
      <point x="63" y="-206" type="line"/>
      <point x="296" y="-99" type="line"/>
      <point x="296" y="530" type="line"/>
      <point x="295" y="530" type="line"/>
      <point x="62" y="530" type="line"/>
    </contour>
    <contour>
      <point x="-150" y="-206" type="line"/>
      <point x="62" y="-206" type="line"/>
      <point x="62" y="-26" type="line"/>
      <point x="-150" y="-26" type="line"/>
    </contour>
  </outline>
</glyph>
<glyph name="schwa" format="2">
  <advance width="917"/>
  <unicode hex="0259"/>
  <outline>
    <contour>
      <point x="35" y="330" type="line"/>
      <point x="882" y="330" type="line"/>
      <point x="882" y="331" type="line"/>
      <point x="775" y="530" type="line"/>
      <point x="142" y="530" type="line"/>
      <point x="35" y="331" type="line"/>
    </contour>
    <contour>
      <point x="35" y="200" type="line"/>
      <point x="289" y="200" type="line"/>
      <point x="289" y="309" type="line"/>
      <point x="288" y="309" type="line"/>
      <point x="35" y="233" type="line"/>
    </contour>
    <contour>
      <point x="142" y="0" type="line"/>
      <point x="628" y="0" type="line"/>
      <point x="628" y="200" type="line"/>
      <point x="35" y="200" type="line"/>
      <point x="35" y="199" type="line"/>
    </contour>
    <contour>
      <point x="289" y="219" type="line"/>
      <point x="628" y="219" type="line"/>
      <point x="628" y="310" type="line"/>
      <point x="289" y="309" type="line"/>
    </contour>
    <contour>
      <point x="628" y="0" type="line"/>
      <point x="629" y="0" type="line"/>
      <point x="882" y="107" type="line"/>
      <point x="882" y="330" type="line"/>
      <point x="628" y="330" type="line"/>
    </contour>
  </outline>
</glyph>
<glyph name="doubleprimemod.color0" format="2">
  <advance width="600"/>
  <unicode hex="02BA"/>
  <outline>
    <contour>
      <point x="53" y="390" type="line"/>
      <point x="181" y="390" type="line"/>
      <point x="317" y="729" type="line"/>
      <point x="317" y="730" type="line"/>
      <point x="123" y="730" type="line"/>
    </contour>
  </outline>
</glyph>
<glyph name="apostrophemod.color0" format="2">
  <advance width="600"/>
  <unicode hex="02BC"/>
  <outline>
    <contour>
      <point x="35" y="590" type="line"/>
      <point x="277" y="590" type="line"/>
      <point x="170" y="794" type="line"/>
      <point x="35" y="794" type="line"/>
    </contour>
  </outline>
</glyph>
<glyph name="apostrophemod.color1" format="2">
  <advance width="600"/>
  <unicode hex="02BC"/>
  <outline>
    <contour>
      <point x="103" y="390" type="line"/>
      <point x="104" y="390" type="line"/>
      <point x="277" y="497" type="line"/>
      <point x="277" y="590" type="line"/>
      <point x="103" y="590" type="line"/>
    </contour>
  </outline>
</glyph>
<glyph name="caron.color0" format="2">
  <advance width="600"/>
  <unicode hex="02C7"/>
  <outline>
    <contour>
      <point x="201" y="582" type="line"/>
      <point x="344" y="613" type="line"/>
      <point x="230" y="750" type="line"/>
      <point x="53" y="750" type="line"/>
      <point x="53" y="749" type="line"/>
    </contour>
  </outline>
</glyph>
<glyph name="ogonek.color0" format="2">
  <advance width="600"/>
  <unicode hex="02DB"/>
  <outline>
    <contour>
      <point x="142" y="-86" type="line"/>
      <point x="300" y="-86" type="line"/>
      <point x="384" y="-1" type="line"/>
      <point x="384" y="0" type="line"/>
      <point x="199" y="0" type="line"/>
      <point x="142" y="-85" type="line"/>
    </contour>
  </outline>
</glyph>
<glyph name="ogonek.color2" format="2">
  <advance width="600"/>
  <unicode hex="02DB"/>
  <outline>
    <contour>
      <point x="300" y="-240" type="line"/>
      <point x="408" y="-240" type="line"/>
      <point x="468" y="-129" type="line"/>
      <point x="468" y="-128" type="line"/>
      <point x="300" y="-128" type="line"/>
    </contour>
  </outline>
</glyph>
<glyph name="ogonek" format="2">
  <advance width="600"/>
  <unicode hex="02DB"/>
  <anchor x="269" y="0" name="_bottom"/>
  <outline>
    <contour>
      <point x="142" y="-86" type="line"/>
      <point x="300" y="-86" type="line"/>
      <point x="384" y="-1" type="line"/>
      <point x="384" y="0" type="line"/>
      <point x="199" y="0" type="line"/>
      <point x="142" y="-85" type="line"/>
    </contour>
    <contour>
      <point x="299" y="-240" type="line"/>
      <point x="300" y="-240" type="line"/>
      <point x="300" y="-86" type="line"/>
      <point x="142" y="-86" type="line"/>
      <point x="142" y="-184" type="line"/>
    </contour>
    <contour>
      <point x="300" y="-240" type="line"/>
      <point x="408" y="-240" type="line"/>
      <point x="468" y="-129" type="line"/>
      <point x="468" y="-128" type="line"/>
      <point x="300" y="-128" type="line"/>
    </contour>
  </outline>
</glyph>
<glyph name="tilde" format="2">
  <advance width="600"/>
  <unicode hex="02DC"/>
  <anchor x="302" y="530" name="_top"/>
  <outline>
    <contour>
      <point x="69" y="601" type="line"/>
      <point x="209" y="601" type="line"/>
      <point x="209" y="703" type="line"/>
      <point x="69" y="722" type="line"/>
    </contour>
    <contour>
      <point x="368" y="640" type="line"/>
      <point x="507" y="630" type="line"/>
      <point x="507" y="749" type="line"/>
      <point x="368" y="749" type="line"/>
    </contour>
    <contour>
      <point x="358" y="590" type="line"/>
      <point x="359" y="590" type="line"/>
      <point x="507" y="629" type="line"/>
      <point x="507" y="630" type="line"/>
      <point x="219" y="762" type="line"/>
      <point x="218" y="762" type="line"/>
      <point x="69" y="723" type="line"/>
      <point x="69" y="722" type="line"/>
    </contour>
  </outline>
</glyph>
<glyph name="acutecomb" format="2">
  <unicode hex="0301"/>
  <anchor x="259" y="530" name="_top"/>
  <outline>
    <contour>
      <point x="166" y="590" type="line"/>
      <point x="312" y="590" type="line"/>
      <point x="417" y="819" type="line"/>
      <point x="417" y="820" type="line"/>
      <point x="201" y="820" type="line"/>
    </contour>
  </outline>
</glyph>
<glyph name="circumflexcomb.color0" format="2">
  <unicode hex="0302"/>
  <outline>
    <contour>
      <point x="342" y="592" type="line"/>
      <point x="519" y="592" type="line"/>
      <point x="519" y="593" type="line"/>
      <point x="374" y="770" type="line"/>
      <point x="231" y="739" type="line"/>
    </contour>
  </outline>
</glyph>
<glyph name="circumflexcomb.color1" format="2">
  <unicode hex="0302"/>
  <outline>
    <contour>
      <point x="53" y="592" type="line"/>
      <point x="227" y="592" type="line"/>
      <point x="374" y="770" type="line"/>
      <point x="200" y="770" type="line"/>
      <point x="53" y="593" type="line"/>
    </contour>
  </outline>
</glyph>
<glyph name="circumflexcomb" format="2">
  <unicode hex="0302"/>
  <anchor x="299" y="530" name="_top"/>
  <anchor x="301" y="750" name="top"/>
  <outline>
    <contour>
      <point x="342" y="592" type="line"/>
      <point x="519" y="592" type="line"/>
      <point x="519" y="593" type="line"/>
      <point x="374" y="770" type="line"/>
      <point x="231" y="739" type="line"/>
    </contour>
    <contour>
      <point x="53" y="592" type="line"/>
      <point x="227" y="592" type="line"/>
      <point x="374" y="770" type="line"/>
      <point x="200" y="770" type="line"/>
      <point x="53" y="593" type="line"/>
    </contour>
  </outline>
</glyph>
<glyph name="tildecomb.color0" format="2">
  <unicode hex="0303"/>
  <outline>
    <contour>
      <point x="69" y="601" type="line"/>
      <point x="209" y="601" type="line"/>
      <point x="209" y="703" type="line"/>
      <point x="69" y="722" type="line"/>
    </contour>
  </outline>
</glyph>
<glyph name="hookabovecomb.color0" format="2">
  <unicode hex="0309"/>
  <outline>
    <contour>
      <point x="238" y="586" type="line"/>
      <point x="376" y="586" type="line"/>
      <point x="497" y="706" type="line"/>
      <point x="497" y="707" type="line"/>
      <point x="400" y="850" type="line"/>
      <point x="238" y="587" type="line"/>
    </contour>
  </outline>
</glyph>
<glyph name="hookabovecomb.color1" format="2">
  <unicode hex="0309"/>
  <outline>
    <contour>
      <point x="169" y="706" type="line"/>
      <point x="497" y="706" type="line"/>
      <point x="497" y="707" type="line"/>
      <point x="400" y="850" type="line"/>
      <point x="169" y="850" type="line"/>
    </contour>
  </outline>
</glyph>
<glyph name="caroncomb" format="2">
  <unicode hex="030C"/>
  <anchor x="302" y="530" name="_top"/>
  <outline>
    <contour>
      <point x="201" y="582" type="line"/>
      <point x="344" y="613" type="line"/>
      <point x="230" y="750" type="line"/>
      <point x="53" y="750" type="line"/>
      <point x="53" y="749" type="line"/>
    </contour>
    <contour>
      <point x="201" y="582" type="line"/>
      <point x="365" y="582" type="line"/>
      <point x="519" y="749" type="line"/>
      <point x="519" y="750" type="line"/>
      <point x="345" y="750" type="line"/>
    </contour>
  </outline>
</glyph>
<glyph name="breveinvertedcomb.color1" format="2">
  <unicode hex="0311"/>
  <outline>
    <contour>
      <point x="79" y="618" type="line"/>
      <point x="205" y="618" type="line"/>
      <point x="252" y="698" type="line"/>
      <point x="126" y="698" type="line"/>
      <point x="79" y="620" type="line"/>
    </contour>
  </outline>
</glyph>
<glyph name="breveinvertedcomb" format="2">
  <unicode hex="0311"/>
  <anchor x="309" y="530" name="_top"/>
  <outline>
    <contour>
      <point x="126" y="698" type="line"/>
      <point x="453" y="698" type="line"/>
      <point x="392" y="800" type="line"/>
      <point x="187" y="800" type="line"/>
    </contour>
    <contour>
      <point x="79" y="618" type="line"/>
      <point x="205" y="618" type="line"/>
      <point x="252" y="698" type="line"/>
      <point x="126" y="698" type="line"/>
      <point x="79" y="620" type="line"/>
    </contour>
    <contour>
      <point x="384" y="618" type="line"/>
      <point x="500" y="618" type="line"/>
      <point x="500" y="619" type="line"/>
      <point x="453" y="698" type="line"/>
      <point x="337" y="698" type="line"/>
    </contour>
  </outline>
</glyph>
<glyph name="commaaccentcomb" format="2">
  <unicode hex="0326"/>
  <anchor x="331" y="0" name="_bottom"/>
  <outline>
    <contour>
      <point x="426" y="-260" type="line"/>
      <point x="427" y="-260" type="line"/>
      <point x="427" y="-50" type="line"/>
      <point x="235" y="-50" type="line"/>
      <point x="235" y="-158" type="line"/>
    </contour>
  </outline>
</glyph>
<glyph name="cedillacomb.color0" format="2">
  <unicode hex="0327"/>
  <outline>
    <contour>
      <point x="298" y="-126" type="line"/>
      <point x="458" y="-126" type="line"/>
      <point x="458" y="-125" type="line"/>
      <point x="388" y="-32" type="line"/>
      <point x="334" y="-32" type="line"/>
    </contour>
  </outline>
</glyph>
<glyph name="cedillacomb.color2" format="2">
  <unicode hex="0327"/>
  <outline>
    <contour>
      <point x="192" y="-260" type="line"/>
      <point x="350" y="-260" type="line"/>
      <point x="350" y="-168" type="line"/>
      <point x="132" y="-168" type="line"/>
      <point x="132" y="-169" type="line"/>
    </contour>
  </outline>
</glyph>
<glyph name="ogonekcomb.color0" format="2">
  <unicode hex="0328"/>
  <outline>
    <contour>
      <point x="142" y="-86" type="line"/>
      <point x="300" y="-86" type="line"/>
      <point x="384" y="-1" type="line"/>
      <point x="384" y="0" type="line"/>
      <point x="199" y="0" type="line"/>
      <point x="142" y="-85" type="line"/>
    </contour>
  </outline>
</glyph>
<glyph name="ogonekcomb.color1" format="2">
  <unicode hex="0328"/>
  <outline>
    <contour>
      <point x="299" y="-240" type="line"/>
      <point x="300" y="-240" type="line"/>
      <point x="300" y="-86" type="line"/>
      <point x="142" y="-86" type="line"/>
      <point x="142" y="-184" type="line"/>
    </contour>
  </outline>
</glyph>
<glyph name="ogonekcomb" format="2">
  <unicode hex="0328"/>
  <anchor x="269" y="0" name="_bottom"/>
  <outline>
    <contour>
      <point x="142" y="-86" type="line"/>
      <point x="300" y="-86" type="line"/>
      <point x="384" y="-1" type="line"/>
      <point x="384" y="0" type="line"/>
      <point x="199" y="0" type="line"/>
      <point x="142" y="-85" type="line"/>
    </contour>
    <contour>
      <point x="299" y="-240" type="line"/>
      <point x="300" y="-240" type="line"/>
      <point x="300" y="-86" type="line"/>
      <point x="142" y="-86" type="line"/>
      <point x="142" y="-184" type="line"/>
    </contour>
    <contour>
      <point x="300" y="-240" type="line"/>
      <point x="408" y="-240" type="line"/>
      <point x="468" y="-129" type="line"/>
      <point x="468" y="-128" type="line"/>
      <point x="300" y="-128" type="line"/>
    </contour>
  </outline>
</glyph>
<glyph name="Wacute" format="2">
  <advance width="1328"/>
  <unicode hex="1E82"/>
  <anchor x="673" y="730" name="top"/>
  <outline>
    <contour>
      <point x="775" y="0" type="line"/>
      <point x="776" y="0" type="line"/>
      <point x="974" y="192" type="line"/>
      <point x="801" y="730" type="line"/>
      <point x="527" y="730" type="line"/>
    </contour>
    <contour>
      <point x="238" y="0" type="line"/>
      <point x="249" y="0" type="line"/>
      <point x="447" y="192" type="line"/>
      <point x="284" y="730" type="line"/>
      <point x="0" y="730" type="line"/>
      <point x="0" y="729" type="line"/>
    </contour>
    <contour>
      <point x="249" y="0" type="line"/>
      <point x="523" y="0" type="line"/>
      <point x="801" y="730" type="line"/>
      <point x="527" y="730" type="line"/>
    </contour>
    <contour>
      <point x="776" y="0" type="line"/>
      <point x="1060" y="0" type="line"/>
      <point x="1328" y="729" type="line"/>
      <point x="1328" y="730" type="line"/>
      <point x="1044" y="730" type="line"/>
    </contour>
    <contour>
      <point x="569" y="760" type="line"/>
      <point x="735" y="760" type="line"/>
      <point x="850" y="899" type="line"/>
      <point x="850" y="900" type="line"/>
      <point x="604" y="900" type="line"/>
    </contour>
  </outline>
</glyph>
<glyph name="wacute.color5" format="2">
  <advance width="600"/>
  <unicode hex="1E83"/>
  <outline>
    <contour>
      <point x="548" y="590" type="line"/>
      <point x="694" y="590" type="line"/>
      <point x="799" y="819" type="line"/>
      <point x="799" y="820" type="line"/>
      <point x="583" y="820" type="line"/>
    </contour>
  </outline>
</glyph>
<glyph name="Wdieresis.color1" format="2">
  <advance width="600"/>
  <unicode hex="1E84"/>
  <outline>
    <contour>
      <point x="238" y="0" type="line"/>
      <point x="249" y="0" type="line"/>
      <point x="447" y="192" type="line"/>
      <point x="284" y="730" type="line"/>
      <point x="0" y="730" type="line"/>
      <point x="0" y="729" type="line"/>
    </contour>
  </outline>
</glyph>
<glyph name="Wdieresis.color5" format="2">
  <advance width="600"/>
  <unicode hex="1E84"/>
  <outline>
    <contour>
      <point x="477" y="788" type="line"/>
      <point x="623" y="788" type="line"/>
      <point x="623" y="900" type="line"/>
      <point x="477" y="900" type="line"/>
    </contour>
  </outline>
</glyph>
<glyph name="Germandbls.color4" format="2">
  <advance width="600"/>
  <unicode hex="1E9E"/>
  <outline>
    <contour>
      <point x="437" y="263" type="line"/>
      <point x="728" y="263" type="line"/>
      <point x="728" y="467" type="line"/>
      <point x="384" y="467" type="line"/>
      <point x="384" y="466" type="line"/>
    </contour>
  </outline>
</glyph>
<glyph name="Germandbls" format="2">
  <advance width="1007"/>
  <unicode hex="1E9E"/>
  <outline>
    <contour>
      <point x="25" y="0" type="line"/>
      <point x="279" y="0" type="line"/>
      <point x="279" y="730" type="line"/>
      <point x="25" y="730" type="line"/>
    </contour>
    <contour>
      <point x="495" y="0" type="line"/>
      <point x="728" y="0" type="line"/>
      <point x="728" y="244" type="line"/>
      <point x="635" y="244" type="line"/>
      <point x="495" y="1" type="line"/>
    </contour>
    <contour>
      <point x="279" y="486" type="line"/>
      <point x="584" y="486" type="line"/>
      <point x="584" y="730" type="line"/>
      <point x="279" y="730" type="line"/>
    </contour>
    <contour>
      <point x="698" y="376" type="line"/>
      <point x="816" y="530" type="line"/>
      <point x="816" y="531" type="line"/>
      <point x="585" y="730" type="line"/>
      <point x="584" y="730" type="line"/>
      <point x="384" y="467" type="line"/>
    </contour>
    <contour>
      <point x="437" y="263" type="line"/>
      <point x="728" y="263" type="line"/>
      <point x="728" y="467" type="line"/>
      <point x="384" y="467" type="line"/>
      <point x="384" y="466" type="line"/>
    </contour>
    <contour>
      <point x="728" y="0" type="line"/>
      <point x="729" y="0" type="line"/>
      <point x="982" y="193" type="line"/>
      <point x="982" y="274" type="line"/>
      <point x="729" y="467" type="line"/>
      <point x="728" y="467" type="line"/>
    </contour>
  </outline>
</glyph>
<glyph name="ahookabove.color5" format="2">
  <advance width="600"/>
  <unicode hex="1EA3"/>
  <outline>
    <contour>
      <point x="352" y="706" type="line"/>
      <point x="680" y="706" type="line"/>
      <point x="680" y="707" type="line"/>
      <point x="583" y="850" type="line"/>
      <point x="352" y="850" type="line"/>
    </contour>
  </outline>
</glyph>
<glyph name="ahookabove" format="2">
  <advance width="907"/>
  <unicode hex="1EA3"/>
  <anchor x="431" y="0" name="bottom"/>
  <anchor x="492" y="530" name="top"/>
  <outline>
    <contour>
      <point x="279" y="286" type="line"/>
      <point x="862" y="286" type="line"/>
      <point x="862" y="287" type="line"/>
      <point x="755" y="530" type="line"/>
      <point x="279" y="530" type="line"/>
    </contour>
    <contour>
      <point x="132" y="0" type="line"/>
      <point x="608" y="0" type="line"/>
      <point x="608" y="244" type="line"/>
      <point x="25" y="244" type="line"/>
      <point x="25" y="243" type="line"/>
    </contour>
    <contour>
      <point x="25" y="244" type="line"/>
      <point x="279" y="244" type="line"/>
      <point x="279" y="530" type="line"/>
      <point x="278" y="530" type="line"/>
      <point x="25" y="423" type="line"/>
    </contour>
    <contour>
      <point x="608" y="0" type="line"/>
      <point x="862" y="0" type="line"/>
      <point x="862" y="286" type="line"/>
      <point x="608" y="286" type="line"/>
    </contour>
    <contour>
      <point x="421" y="586" type="line"/>
      <point x="559" y="586" type="line"/>
      <point x="680" y="706" type="line"/>
      <point x="680" y="707" type="line"/>
      <point x="583" y="850" type="line"/>
      <point x="421" y="587" type="line"/>
    </contour>
    <contour>
      <point x="352" y="706" type="line"/>
      <point x="680" y="706" type="line"/>
      <point x="680" y="707" type="line"/>
      <point x="583" y="850" type="line"/>
      <point x="352" y="850" type="line"/>
    </contour>
  </outline>
</glyph>
<glyph name="Acircumflexgrave" format="2">
  <advance width="927"/>
  <unicode hex="1EA6"/>
  <anchor x="462" y="0" name="bottom"/>
  <anchor x="486" y="730" name="top"/>
  <outline>
    <contour>
      <point x="35" y="0" type="line"/>
      <point x="289" y="0" type="line"/>
      <point x="289" y="730" type="line"/>
      <point x="288" y="730" type="line"/>
      <point x="35" y="523" type="line"/>
    </contour>
    <contour>
      <point x="289" y="173" type="line"/>
      <point x="638" y="173" type="line"/>
      <point x="638" y="417" type="line"/>
      <point x="289" y="417" type="line"/>
    </contour>
    <contour>
      <point x="638" y="0" type="line"/>
      <point x="892" y="0" type="line"/>
      <point x="892" y="486" type="line"/>
      <point x="638" y="486" type="line"/>
    </contour>
    <contour>
      <point x="289" y="486" type="line"/>
      <point x="892" y="486" type="line"/>
      <point x="892" y="487" type="line"/>
      <point x="690" y="730" type="line"/>
      <point x="289" y="730" type="line"/>
    </contour>
    <contour>
      <point x="519" y="755" type="line"/>
      <point x="676" y="755" type="line"/>
      <point x="676" y="756" type="line"/>
      <point x="548" y="883" type="line"/>
      <point x="415" y="852" type="line"/>
    </contour>
    <contour>
      <point x="250" y="755" type="line"/>
      <point x="404" y="755" type="line"/>
      <point x="548" y="883" type="line"/>
      <point x="384" y="883" type="line"/>
      <point x="250" y="756" type="line"/>
    </contour>
    <contour>
      <point x="652" y="808" type="line"/>
      <point x="768" y="808" type="line"/>
      <point x="725" y="950" type="line"/>
      <point x="559" y="950" type="line"/>
      <point x="559" y="949" type="line"/>
    </contour>
  </outline>
</glyph>
<glyph name="Acircumflexhookabove.color5" format="2">
  <advance width="600"/>
  <unicode hex="1EA8"/>
  <outline>
    <contour>
      <point x="240" y="755" type="line"/>
      <point x="394" y="755" type="line"/>
      <point x="553" y="873" type="line"/>
      <point x="394" y="873" type="line"/>
      <point x="240" y="756" type="line"/>
    </contour>
  </outline>
</glyph>
<glyph name="acircumflexhookabove.color1" format="2">
  <advance width="600"/>
  <unicode hex="1EA9"/>
  <outline>
    <contour>
      <point x="132" y="0" type="line"/>
      <point x="608" y="0" type="line"/>
      <point x="608" y="244" type="line"/>
      <point x="25" y="244" type="line"/>
      <point x="25" y="243" type="line"/>
    </contour>
  </outline>
</glyph>
<glyph name="acircumflexhookabove.color4" format="2">
  <advance width="600"/>
  <unicode hex="1EA9"/>
  <outline>
    <contour>
      <point x="545" y="578" type="line"/>
      <point x="729" y="578" type="line"/>
      <point x="729" y="579" type="line"/>
      <point x="574" y="706" type="line"/>
      <point x="523" y="706" type="line"/>
      <point x="421" y="675" type="line"/>
    </contour>
  </outline>
</glyph>
<glyph name="acircumflexhookabove.color7" format="2">
  <advance width="600"/>
  <unicode hex="1EA9"/>
  <outline>
    <contour>
      <point x="421" y="736" type="line"/>
      <point x="537" y="736" type="line"/>
      <point x="650" y="811" type="line"/>
      <point x="650" y="812" type="line"/>
      <point x="563" y="900" type="line"/>
      <point x="421" y="737" type="line"/>
    </contour>
  </outline>
</glyph>
<glyph name="acircumflexhookabove" format="2">
  <advance width="907"/>
  <unicode hex="1EA9"/>
  <anchor x="431" y="0" name="bottom"/>
  <anchor x="492" y="530" name="top"/>
  <outline>
    <contour>
      <point x="279" y="286" type="line"/>
      <point x="862" y="286" type="line"/>
      <point x="862" y="287" type="line"/>
      <point x="755" y="530" type="line"/>
      <point x="279" y="530" type="line"/>
    </contour>
    <contour>
      <point x="132" y="0" type="line"/>
      <point x="608" y="0" type="line"/>
      <point x="608" y="244" type="line"/>
      <point x="25" y="244" type="line"/>
      <point x="25" y="243" type="line"/>
    </contour>
    <contour>
      <point x="25" y="244" type="line"/>
      <point x="279" y="244" type="line"/>
      <point x="279" y="530" type="line"/>
      <point x="278" y="530" type="line"/>
      <point x="25" y="423" type="line"/>
    </contour>
    <contour>
      <point x="608" y="0" type="line"/>
      <point x="862" y="0" type="line"/>
      <point x="862" y="286" type="line"/>
      <point x="608" y="286" type="line"/>
    </contour>
    <contour>
      <point x="545" y="578" type="line"/>
      <point x="729" y="578" type="line"/>
      <point x="729" y="579" type="line"/>
      <point x="574" y="706" type="line"/>
      <point x="523" y="706" type="line"/>
      <point x="421" y="675" type="line"/>
    </contour>
    <contour>
      <point x="226" y="578" type="line"/>
      <point x="400" y="578" type="line"/>
      <point x="574" y="706" type="line"/>
      <point x="390" y="706" type="line"/>
      <point x="226" y="579" type="line"/>
    </contour>
    <contour>
      <point x="342" y="811" type="line"/>
      <point x="650" y="811" type="line"/>
      <point x="650" y="812" type="line"/>
      <point x="563" y="900" type="line"/>
      <point x="342" y="900" type="line"/>
    </contour>
    <contour>
      <point x="421" y="736" type="line"/>
      <point x="537" y="736" type="line"/>
      <point x="650" y="811" type="line"/>
      <point x="650" y="812" type="line"/>
      <point x="563" y="900" type="line"/>
      <point x="421" y="737" type="line"/>
    </contour>
  </outline>
</glyph>
<glyph name="Acircumflextilde.color4" format="2">
  <advance width="600"/>
  <unicode hex="1EAA"/>
  <outline>
    <contour>
      <point x="548" y="755" type="line"/>
      <point x="722" y="755" type="line"/>
      <point x="722" y="756" type="line"/>
      <point x="558" y="853" type="line"/>
      <point x="444" y="808" type="line"/>
    </contour>
  </outline>
</glyph>
<glyph name="acircumflexdotbelow.color5" format="2">
  <advance width="600"/>
  <unicode hex="1EAD"/>
  <outline>
    <contour>
      <point x="535" y="592" type="line"/>
      <point x="712" y="592" type="line"/>
      <point x="712" y="593" type="line"/>
      <point x="567" y="770" type="line"/>
      <point x="424" y="739" type="line"/>
    </contour>
  </outline>
</glyph>
<glyph name="acircumflexdotbelow.color6" format="2">
  <advance width="600"/>
  <unicode hex="1EAD"/>
  <outline>
    <contour>
      <point x="246" y="592" type="line"/>
      <point x="420" y="592" type="line"/>
      <point x="567" y="770" type="line"/>
      <point x="393" y="770" type="line"/>
      <point x="246" y="593" type="line"/>
    </contour>
  </outline>
</glyph>
<glyph name="acircumflexdotbelow" format="2">
  <advance width="907"/>
  <unicode hex="1EAD"/>
  <anchor x="431" y="0" name="bottom"/>
  <anchor x="494" y="750" name="top"/>
  <outline>
    <contour>
      <point x="279" y="286" type="line"/>
      <point x="862" y="286" type="line"/>
      <point x="862" y="287" type="line"/>
      <point x="755" y="530" type="line"/>
      <point x="279" y="530" type="line"/>
    </contour>
    <contour>
      <point x="132" y="0" type="line"/>
      <point x="608" y="0" type="line"/>
      <point x="608" y="244" type="line"/>
      <point x="25" y="244" type="line"/>
      <point x="25" y="243" type="line"/>
    </contour>
    <contour>
      <point x="25" y="244" type="line"/>
      <point x="279" y="244" type="line"/>
      <point x="279" y="530" type="line"/>
      <point x="278" y="530" type="line"/>
      <point x="25" y="423" type="line"/>
    </contour>
    <contour>
      <point x="608" y="0" type="line"/>
      <point x="862" y="0" type="line"/>
      <point x="862" y="286" type="line"/>
      <point x="608" y="286" type="line"/>
    </contour>
    <contour>
      <point x="332" y="-200" type="line"/>
      <point x="536" y="-200" type="line"/>
      <point x="536" y="-38" type="line"/>
      <point x="332" y="-38" type="line"/>
    </contour>
    <contour>
      <point x="535" y="592" type="line"/>
      <point x="712" y="592" type="line"/>
      <point x="712" y="593" type="line"/>
      <point x="567" y="770" type="line"/>
      <point x="424" y="739" type="line"/>
    </contour>
    <contour>
      <point x="246" y="592" type="line"/>
      <point x="420" y="592" type="line"/>
      <point x="567" y="770" type="line"/>
      <point x="393" y="770" type="line"/>
      <point x="246" y="593" type="line"/>
    </contour>
  </outline>
</glyph>
<glyph name="Abreveacute.color4" format="2">
  <advance width="600"/>
  <unicode hex="1EAE"/>
  <outline>
    <contour>
      <point x="364" y="760" type="line"/>
      <point x="609" y="760" type="line"/>
      <point x="700" y="852" type="line"/>
      <point x="273" y="852" type="line"/>
    </contour>
  </outline>
</glyph>
<glyph name="Abreveacute.color6" format="2">
  <advance width="600"/>
  <unicode hex="1EAE"/>
  <outline>
    <contour>
      <point x="422" y="870" type="line"/>
      <point x="518" y="870" type="line"/>
      <point x="621" y="979" type="line"/>
      <point x="621" y="980" type="line"/>
      <point x="455" y="980" type="line"/>
    </contour>
  </outline>
</glyph>
<glyph name="Abrevegrave.color6" format="2">
  <advance width="600"/>
  <unicode hex="1EB0"/>
  <outline>
    <contour>
      <point x="449" y="870" type="line"/>
      <point x="545" y="870" type="line"/>
      <point x="512" y="980" type="line"/>
      <point x="346" y="980" type="line"/>
      <point x="346" y="979" type="line"/>
    </contour>
  </outline>
</glyph>
<glyph name="abrevegrave.color3" format="2">
  <advance width="600"/>
  <unicode hex="1EB1"/>
  <outline>
    <contour>
      <point x="608" y="0" type="line"/>
      <point x="862" y="0" type="line"/>
      <point x="862" y="286" type="line"/>
      <point x="608" y="286" type="line"/>
    </contour>
  </outline>
</glyph>
<glyph name="abrevegrave.color5" format="2">
  <advance width="600"/>
  <unicode hex="1EB1"/>
  <outline>
    <contour>
      <point x="278" y="685" type="line"/>
      <point x="404" y="685" type="line"/>
      <point x="357" y="756" type="line"/>
      <point x="231" y="756" type="line"/>
      <point x="231" y="754" type="line"/>
    </contour>
  </outline>
</glyph>
<glyph name="Abrevehookabove.color7" format="2">
  <advance width="600"/>
  <unicode hex="1EB2"/>
  <outline>
    <contour>
      <point x="439" y="874" type="line"/>
      <point x="537" y="874" type="line"/>
      <point x="634" y="928" type="line"/>
      <point x="634" y="929" type="line"/>
      <point x="567" y="1010" type="line"/>
      <point x="439" y="875" type="line"/>
    </contour>
  </outline>
</glyph>
<glyph name="abrevehookabove.color4" format="2">
  <advance width="600"/>
  <unicode hex="1EB3"/>
  <outline>
    <contour>
      <point x="350" y="578" type="line"/>
      <point x="635" y="578" type="line"/>
      <point x="696" y="675" type="line"/>
      <point x="289" y="675" type="line"/>
    </contour>
  </outline>
</glyph>
<glyph name="abrevehookabove.color5" format="2">
  <advance width="600"/>
  <unicode hex="1EB3"/>
  <outline>
    <contour>
      <point x="289" y="675" type="line"/>
      <point x="415" y="675" type="line"/>
      <point x="368" y="746" type="line"/>
      <point x="242" y="746" type="line"/>
      <point x="242" y="744" type="line"/>
    </contour>
  </outline>
</glyph>
<glyph name="abrevehookabove.color8" format="2">
  <advance width="600"/>
  <unicode hex="1EB3"/>
  <outline>
    <contour>
      <point x="570" y="675" type="line"/>
      <point x="696" y="675" type="line"/>
      <point x="743" y="745" type="line"/>
      <point x="743" y="746" type="line"/>
      <point x="617" y="746" type="line"/>
    </contour>
  </outline>
</glyph>
<glyph name="Abrevetilde.color7" format="2">
  <advance width="600"/>
  <unicode hex="1EB4"/>
  <outline>
    <contour>
      <point x="213" y="852" type="line"/>
      <point x="359" y="852" type="line"/>
      <point x="307" y="900" type="line"/>
      <point x="171" y="900" type="line"/>
      <point x="171" y="898" type="line"/>
    </contour>
  </outline>
</glyph>
<glyph name="Abrevetilde" format="2">
  <advance width="927"/>
  <unicode hex="1EB4"/>
  <anchor x="462" y="0" name="bottom"/>
  <anchor x="486" y="730" name="top"/>
  <outline>
    <contour>
      <point x="35" y="0" type="line"/>
      <point x="289" y="0" type="line"/>
      <point x="289" y="730" type="line"/>
      <point x="288" y="730" type="line"/>
      <point x="35" y="523" type="line"/>
    </contour>
    <contour>
      <point x="289" y="173" type="line"/>
      <point x="638" y="173" type="line"/>
      <point x="638" y="417" type="line"/>
      <point x="289" y="417" type="line"/>
    </contour>
    <contour>
      <point x="638" y="0" type="line"/>
      <point x="892" y="0" type="line"/>
      <point x="892" y="486" type="line"/>
      <point x="638" y="486" type="line"/>
    </contour>
    <contour>
      <point x="289" y="486" type="line"/>
      <point x="892" y="486" type="line"/>
      <point x="892" y="487" type="line"/>
      <point x="690" y="730" type="line"/>
      <point x="289" y="730" type="line"/>
    </contour>
    <contour>
      <point x="670" y="907" type="line"/>
      <point x="805" y="916" type="line"/>
      <point x="805" y="980" type="line"/>
      <point x="670" y="980" type="line"/>
    </contour>
    <contour>
      <point x="370" y="868" type="line"/>
      <point x="495" y="868" type="line"/>
      <point x="495" y="955" type="line"/>
      <point x="370" y="944" type="line"/>
    </contour>
    <contour>
      <point x="682" y="879" type="line"/>
      <point x="723" y="879" type="line"/>
      <point x="805" y="916" type="line"/>
      <point x="805" y="927" type="line"/>
      <point x="526" y="984" type="line"/>
      <point x="485" y="984" type="line"/>
      <point x="370" y="945" type="line"/>
      <point x="370" y="944" type="line"/>
    </contour>
    <contour>
      <point x="213" y="852" type="line"/>
      <point x="359" y="852" type="line"/>
      <point x="307" y="900" type="line"/>
      <point x="171" y="900" type="line"/>
      <point x="171" y="898" type="line"/>
    </contour>
    <contour>
      <point x="494" y="852" type="line"/>
      <point x="640" y="852" type="line"/>
      <point x="654" y="866" type="line"/>
      <point x="654" y="867" type="line"/>
      <point x="540" y="890" type="line"/>
    </contour>
    <contour>
      <point x="304" y="760" type="line"/>
      <point x="549" y="760" type="line"/>
      <point x="640" y="852" type="line"/>
      <point x="213" y="852" type="line"/>
    </contour>
  </outline>
</glyph>
<glyph name="abrevetilde.color9" format="2">
  <advance width="600"/>
  <unicode hex="1EB5"/>
  <outline>
    <contour>
      <point x="659" y="760" type="line"/>
      <point x="670" y="760" type="line"/>
      <point x="780" y="800" type="line"/>
      <point x="780" y="821" type="line"/>
      <point x="523" y="902" type="line"/>
      <point x="522" y="902" type="line"/>
      <point x="422" y="852" type="line"/>
      <point x="422" y="851" type="line"/>
    </contour>
  </outline>
</glyph>
<glyph name="abrevetilde" format="2">
  <advance width="907"/>
  <unicode hex="1EB5"/>
  <anchor x="431" y="0" name="bottom"/>
  <anchor x="507" y="860" name="top"/>
  <outline>
    <contour>
      <point x="279" y="286" type="line"/>
      <point x="862" y="286" type="line"/>
      <point x="862" y="287" type="line"/>
      <point x="755" y="530" type="line"/>
      <point x="279" y="530" type="line"/>
    </contour>
    <contour>
      <point x="132" y="0" type="line"/>
      <point x="608" y="0" type="line"/>
      <point x="608" y="244" type="line"/>
      <point x="25" y="244" type="line"/>
      <point x="25" y="243" type="line"/>
    </contour>
    <contour>
      <point x="25" y="244" type="line"/>
      <point x="279" y="244" type="line"/>
      <point x="279" y="530" type="line"/>
      <point x="278" y="530" type="line"/>
      <point x="25" y="423" type="line"/>
    </contour>
    <contour>
      <point x="608" y="0" type="line"/>
      <point x="862" y="0" type="line"/>
      <point x="862" y="286" type="line"/>
      <point x="608" y="286" type="line"/>
    </contour>
    <contour>
      <point x="289" y="685" type="line"/>
      <point x="415" y="685" type="line"/>
      <point x="368" y="756" type="line"/>
      <point x="242" y="756" type="line"/>
      <point x="242" y="754" type="line"/>
    </contour>
    <contour>
      <point x="350" y="578" type="line"/>
      <point x="635" y="578" type="line"/>
      <point x="696" y="685" type="line"/>
      <point x="289" y="685" type="line"/>
    </contour>
    <contour>
      <point x="422" y="731" type="line"/>
      <point x="532" y="731" type="line"/>
      <point x="532" y="833" type="line"/>
      <point x="422" y="852" type="line"/>
    </contour>
    <contour>
      <point x="570" y="685" type="line"/>
      <point x="696" y="685" type="line"/>
      <point x="731" y="740" type="line"/>
      <point x="731" y="741" type="line"/>
      <point x="605" y="741" type="line"/>
    </contour>
    <contour>
      <point x="660" y="820" type="line"/>
      <point x="780" y="800" type="line"/>
      <point x="780" y="919" type="line"/>
      <point x="660" y="919" type="line"/>
    </contour>
    <contour>
      <point x="659" y="760" type="line"/>
      <point x="670" y="760" type="line"/>
      <point x="780" y="800" type="line"/>
      <point x="780" y="821" type="line"/>
      <point x="523" y="902" type="line"/>
      <point x="522" y="902" type="line"/>
      <point x="422" y="852" type="line"/>
      <point x="422" y="851" type="line"/>
    </contour>
  </outline>
</glyph>
<glyph name="edotbelow.color3" format="2">
  <advance width="600"/>
  <unicode hex="1EB9"/>
  <outline>
    <contour>
      <point x="279" y="330" type="line"/>
      <point x="872" y="330" type="line"/>
      <point x="872" y="331" type="line"/>
      <point x="765" y="530" type="line"/>
      <point x="279" y="530" type="line"/>
    </contour>
  </outline>
</glyph>
<glyph name="ehookabove" format="2">
  <advance width="902"/>
  <unicode hex="1EBB"/>
  <anchor x="411" y="0" name="bottom"/>
  <anchor x="472" y="530" name="top"/>
  <outline>
    <contour>
      <point x="132" y="0" type="line"/>
      <point x="765" y="0" type="line"/>
      <point x="872" y="199" type="line"/>
      <point x="872" y="200" type="line"/>
      <point x="25" y="200" type="line"/>
      <point x="25" y="199" type="line"/>
    </contour>
    <contour>
      <point x="25" y="200" type="line"/>
      <point x="279" y="200" type="line"/>
      <point x="279" y="530" type="line"/>
      <point x="278" y="530" type="line"/>
      <point x="25" y="423" type="line"/>
    </contour>
    <contour>
      <point x="279" y="220" type="line"/>
      <point x="618" y="221" type="line"/>
      <point x="618" y="311" type="line"/>
      <point x="279" y="311" type="line"/>
    </contour>
    <contour>
      <point x="279" y="330" type="line"/>
      <point x="872" y="330" type="line"/>
      <point x="872" y="331" type="line"/>
      <point x="765" y="530" type="line"/>
      <point x="279" y="530" type="line"/>
    </contour>
    <contour>
      <point x="618" y="221" type="line"/>
      <point x="619" y="221" type="line"/>
      <point x="872" y="298" type="line"/>
      <point x="872" y="330" type="line"/>
      <point x="618" y="330" type="line"/>
    </contour>
    <contour>
      <point x="401" y="586" type="line"/>
      <point x="539" y="586" type="line"/>
      <point x="660" y="706" type="line"/>
      <point x="660" y="707" type="line"/>
      <point x="563" y="850" type="line"/>
      <point x="401" y="587" type="line"/>
    </contour>
    <contour>
      <point x="332" y="706" type="line"/>
      <point x="660" y="706" type="line"/>
      <point x="660" y="707" type="line"/>
      <point x="563" y="850" type="line"/>
      <point x="332" y="850" type="line"/>
    </contour>
  </outline>
</glyph>
<glyph name="etilde.color5" format="2">
  <advance width="600"/>
  <unicode hex="1EBD"/>
  <outline>
    <contour>
      <point x="239" y="601" type="line"/>
      <point x="379" y="601" type="line"/>
      <point x="379" y="703" type="line"/>
      <point x="239" y="722" type="line"/>
    </contour>
  </outline>
</glyph>
<glyph name="Ecircumflexacute.color0" format="2">
  <advance width="600"/>
  <unicode hex="1EBE"/>
  <outline>
    <contour>
      <point x="237" y="0" type="line"/>
      <point x="801" y="0" type="line"/>
      <point x="801" y="244" type="line"/>
      <point x="35" y="244" type="line"/>
      <point x="35" y="243" type="line"/>
    </contour>
  </outline>
</glyph>
<glyph name="Ecircumflexgrave.color0" format="2">
  <advance width="600"/>
  <unicode hex="1EC0"/>
  <outline>
    <contour>
      <point x="237" y="0" type="line"/>
      <point x="801" y="0" type="line"/>
      <point x="801" y="244" type="line"/>
      <point x="35" y="244" type="line"/>
      <point x="35" y="243" type="line"/>
    </contour>
  </outline>
</glyph>
<glyph name="ecircumflexhookabove.color0" format="2">
  <advance width="600"/>
  <unicode hex="1EC3"/>
  <outline>
    <contour>
      <point x="132" y="0" type="line"/>
      <point x="765" y="0" type="line"/>
      <point x="872" y="199" type="line"/>
      <point x="872" y="200" type="line"/>
      <point x="25" y="200" type="line"/>
      <point x="25" y="199" type="line"/>
    </contour>
  </outline>
</glyph>
<glyph name="ecircumflexhookabove.color2" format="2">
  <advance width="600"/>
  <unicode hex="1EC3"/>
  <outline>
    <contour>
      <point x="279" y="220" type="line"/>
      <point x="618" y="221" type="line"/>
      <point x="618" y="311" type="line"/>
      <point x="279" y="311" type="line"/>
    </contour>
  </outline>
</glyph>
<glyph name="ecircumflexhookabove.color3" format="2">
  <advance width="600"/>
  <unicode hex="1EC3"/>
  <outline>
    <contour>
      <point x="279" y="330" type="line"/>
      <point x="872" y="330" type="line"/>
      <point x="872" y="331" type="line"/>
      <point x="765" y="530" type="line"/>
      <point x="279" y="530" type="line"/>
    </contour>
  </outline>
</glyph>
<glyph name="ecircumflexhookabove.color6" format="2">
  <advance width="600"/>
  <unicode hex="1EC3"/>
  <outline>
    <contour>
      <point x="206" y="578" type="line"/>
      <point x="380" y="578" type="line"/>
      <point x="554" y="706" type="line"/>
      <point x="370" y="706" type="line"/>
      <point x="206" y="579" type="line"/>
    </contour>
  </outline>
</glyph>
<glyph name="ecircumflexhookabove.color7" format="2">
  <advance width="600"/>
  <unicode hex="1EC3"/>
  <outline>
    <contour>
      <point x="322" y="811" type="line"/>
      <point x="630" y="811" type="line"/>
      <point x="630" y="812" type="line"/>
      <point x="543" y="900" type="line"/>
      <point x="322" y="900" type="line"/>
    </contour>
  </outline>
</glyph>
<glyph name="ecircumflexhookabove" format="2">
  <advance width="902"/>
  <unicode hex="1EC3"/>
  <anchor x="411" y="0" name="bottom"/>
  <anchor x="472" y="530" name="top"/>
  <outline>
    <contour>
      <point x="132" y="0" type="line"/>
      <point x="765" y="0" type="line"/>
      <point x="872" y="199" type="line"/>
      <point x="872" y="200" type="line"/>
      <point x="25" y="200" type="line"/>
      <point x="25" y="199" type="line"/>
    </contour>
    <contour>
      <point x="25" y="200" type="line"/>
      <point x="279" y="200" type="line"/>
      <point x="279" y="530" type="line"/>
      <point x="278" y="530" type="line"/>
      <point x="25" y="423" type="line"/>
    </contour>
    <contour>
      <point x="279" y="220" type="line"/>
      <point x="618" y="221" type="line"/>
      <point x="618" y="311" type="line"/>
      <point x="279" y="311" type="line"/>
    </contour>
    <contour>
      <point x="279" y="330" type="line"/>
      <point x="872" y="330" type="line"/>
      <point x="872" y="331" type="line"/>
      <point x="765" y="530" type="line"/>
      <point x="279" y="530" type="line"/>
    </contour>
    <contour>
      <point x="618" y="221" type="line"/>
      <point x="619" y="221" type="line"/>
      <point x="872" y="298" type="line"/>
      <point x="872" y="330" type="line"/>
      <point x="618" y="330" type="line"/>
    </contour>
    <contour>
      <point x="525" y="578" type="line"/>
      <point x="709" y="578" type="line"/>
      <point x="709" y="579" type="line"/>
      <point x="554" y="706" type="line"/>
      <point x="503" y="706" type="line"/>
      <point x="401" y="675" type="line"/>
    </contour>
    <contour>
      <point x="206" y="578" type="line"/>
      <point x="380" y="578" type="line"/>
      <point x="554" y="706" type="line"/>
      <point x="370" y="706" type="line"/>
      <point x="206" y="579" type="line"/>
    </contour>
    <contour>
      <point x="322" y="811" type="line"/>
      <point x="630" y="811" type="line"/>
      <point x="630" y="812" type="line"/>
      <point x="543" y="900" type="line"/>
      <point x="322" y="900" type="line"/>
    </contour>
    <contour>
      <point x="401" y="736" type="line"/>
      <point x="517" y="736" type="line"/>
      <point x="630" y="811" type="line"/>
      <point x="630" y="812" type="line"/>
      <point x="543" y="900" type="line"/>
      <point x="401" y="737" type="line"/>
    </contour>
  </outline>
</glyph>
